<svg xmlns="http://www.w3.org/2000/svg" xmlns:xlink="http://www.w3.org/1999/xlink" version="1.1" x="0px" y="0px" viewBox="0 0 2000 2500" enable-background="new 0 0 2000 2000" xml:space="preserve"><metadata><?xpacket begin="&#65279;" id="W5M0MpCehiHzreSzNTczkc9d"?><x:xmpmeta xmlns:x="adobe:ns:meta/" x:xmptk="Adobe XMP Core 5.3-c011 66.145661, 2012/02/06-14:56:27        "/><?xpacket end="w"?></metadata><g><path d="M1474.515,455.454H696.198l668.452-158.806c14.193,1.042,25.421,12.923,25.421,27.377v128.596h40V324.025   c0-37.193-30.259-67.452-67.452-67.452h-2.343L522.861,455.52c-35.979,1.385-64.827,31.072-64.827,67.385v1153.07   c0,37.193,30.258,67.451,67.451,67.451h949.029c37.193,0,67.451-30.258,67.451-67.451V522.905   C1541.966,485.712,1511.708,455.454,1474.515,455.454z M1501.966,1675.976c0,15.137-12.314,27.451-27.451,27.451H525.485   c-15.137,0-27.451-12.314-27.451-27.451V522.905c0-15.137,12.314-27.452,27.451-27.452h949.029   c15.137,0,27.451,12.315,27.451,27.452V1675.976z"/><path d="M694.274,1017.389c2.89,1.536,6.112,2.338,9.384,2.338h13.225l-14.832,199.43c-1.557,21.226,5.094,41.518,18.248,55.671   c11.086,11.93,25.86,18.5,41.599,18.501c0,0,0.001,0,0.002,0c15.737,0,30.51-6.57,41.596-18.499   c13.117-14.113,19.769-34.331,18.265-55.493l-12.504-220.18l0.001-272.489c0-5.304-2.146-10.392-5.896-14.142   s-8.876-5.858-14.181-5.858c-28.037,0-52.283,10.196-72.067,30.304c-15.682,15.938-28.59,38.474-38.368,66.979   c-16.857,49.144-21.936,108.454-25.297,147.702l-0.25,2.924C649.928,992.677,689.726,1014.973,694.274,1017.389z M693.051,957.999   l0.252-2.932c5.661-66.105,15.745-183.893,75.954-205.083l-0.001,249.745c0,0.378,0.011,0.756,0.032,1.134l12.545,220.894   c0.006,0.109,0.013,0.218,0.021,0.327c0.734,10.029-2.129,19.568-7.659,25.518c-3.533,3.801-7.67,5.729-12.297,5.729   c-4.627,0-8.766-1.929-12.299-5.73c-5.529-5.95-8.392-15.489-7.658-25.496l16.429-220.894c0.413-5.547-1.503-11.015-5.288-15.091   c-3.785-4.076-9.095-6.392-14.657-6.392l-29.169,0C702.493,975.098,692.359,966.058,693.051,957.999z"/><path d="M933.014,935.756l-19.954,299.9c-0.004,0.065-0.009,0.13-0.012,0.195c-1.549,27.315,31.001,43.742,37.542,46.757   c2.625,1.21,5.482,1.837,8.374,1.837h33.706c2.891,0,5.748-0.627,8.374-1.837c6.541-3.016,39.092-19.442,37.543-46.757   c-0.003-0.065-0.007-0.13-0.012-0.195l-19.954-299.9c30.029-20.156,49.41-60.64,49.41-105.63c0-30.656-8.875-59.71-24.991-81.812   c-17.503-24.003-41.376-37.223-67.222-37.223c-25.847,0-49.72,13.22-67.223,37.223c-16.115,22.101-24.99,51.156-24.99,81.812   C883.604,875.117,902.984,915.601,933.014,935.756z M975.818,751.091c28.302,0,52.213,36.194,52.213,79.035   c0,34.894-15.723,66.158-38.235,76.028c-7.716,3.383-12.485,11.238-11.926,19.645l20.654,310.43   c-1.722,2.213-6.187,5.604-10.733,8.218h-23.949c-4.546-2.614-9.011-6.005-10.732-8.218l20.654-310.43   c0.559-8.406-4.209-16.262-11.926-19.645c-22.512-9.87-38.234-41.133-38.234-76.028   C923.604,787.285,947.515,751.091,975.818,751.091z"/><path d="M1180.443,875.563c6.121,1.872,12.205,3.485,17.533,4.794l-20.418,359.958c-0.728,12.854,3.68,25.023,12.413,34.265   c8.732,9.241,20.632,14.33,33.505,14.33h33.704c12.874,0,24.772-5.089,33.505-14.33c8.731-9.242,13.14-21.411,12.411-34.267   l-20.416-359.956c5.327-1.309,11.411-2.922,17.533-4.794c23.127-7.07,46.77-17.18,46.77-38.553V731.091c0-11.045-8.954-20-20-20   s-20,8.955-20,20v99.237c-8.638,4.514-29.745,10.88-48.962,14.54c-9.861,1.871-16.808,10.761-16.239,20.782l21.379,376.927   c0.128,2.253-0.772,3.707-1.55,4.53c-0.777,0.822-2.176,1.803-4.431,1.803h-33.704c-2.255,0-3.655-0.98-4.432-1.803   c-0.778-0.823-1.678-2.277-1.551-4.528l21.381-376.929c0.568-10.021-6.378-18.911-16.239-20.782   c-19.207-3.645-40.316-10.011-48.963-14.537v-99.239c0-11.045-8.954-20-20-20c-11.045,0-20,8.955-20,20V837.01   C1133.673,858.383,1157.316,868.492,1180.443,875.563z"/><path d="M1203.195,829.809c11.046,0,20-8.954,20-20v-78.718c0-11.046-8.954-20-20-20s-20,8.954-20,20v78.718   C1183.195,820.854,1192.149,829.809,1203.195,829.809z"/><path d="M1277.462,829.809c11.046,0,20-8.954,20-20v-78.718c0-11.046-8.954-20-20-20s-20,8.954-20,20v78.718   C1257.462,820.854,1266.416,829.809,1277.462,829.809z"/><path d="M1431.9,624.757H568.1c-11.046,0-20,8.954-20,20v709.888c0,11.046,8.954,20,20,20H1431.9c11.046,0,20-8.954,20-20V644.757   C1451.9,633.711,1442.946,624.757,1431.9,624.757z M1411.9,1334.645H588.1V664.757H1411.9V1334.645z"/><path d="M1251.418,1443.789H748.582c-11.046,0-20,8.954-20,20s8.954,20,20,20h502.836c11.046,0,20-8.954,20-20   S1262.464,1443.789,1251.418,1443.789z"/><path d="M1251.418,1523.355H748.582c-11.046,0-20,8.954-20,20s8.954,20,20,20h502.836c11.046,0,20-8.954,20-20   S1262.464,1523.355,1251.418,1523.355z"/></g><text x="0" y="2015" fill="#000000" font-size="5px" font-weight="bold" font-family="'Helvetica Neue', Helvetica, Arial-Unicode, Arial, Sans-serif">Created by Rifai</text><text x="0" y="2020" fill="#000000" font-size="5px" font-weight="bold" font-family="'Helvetica Neue', Helvetica, Arial-Unicode, Arial, Sans-serif">from the Noun Project</text></svg>