<?xml version="1.0" encoding="UTF-8"?>
<!-- Generator: visioncortex VTracer 0.6.3 -->
<svg version="1.1" xmlns="http://www.w3.org/2000/svg" width="1280" height="1280">
<path d="M0 0 C0 0.66 0 1.32 0 2 C0.6 2.23 1.19 2.47 1.8 2.71 C4.55 4.32 5.52 5.95 7.12 8.69 C7.62 9.52 8.12 10.35 8.63 11.2 C11.43 16.93 12.25 22.22 12.25 28.55 C12.26 29.28 12.26 30.02 12.26 30.77 C12.27 33.23 12.26 35.68 12.26 38.14 C12.26 39.92 12.26 41.71 12.27 43.49 C12.28 48.42 12.27 53.34 12.27 58.26 C12.27 63.61 12.27 68.97 12.28 74.32 C12.29 83.7 12.29 93.08 12.29 102.47 C12.29 116.42 12.3 130.37 12.31 144.33 C12.33 170.7 12.33 197.07 12.33 223.43 C12.33 226.34 12.33 229.25 12.33 232.16 C12.33 232.88 12.33 233.61 12.33 234.35 C12.34 250.34 12.34 266.33 12.34 282.33 C12.35 288.91 12.35 295.5 12.35 302.08 C12.35 302.81 12.35 303.54 12.35 304.29 C12.36 345.98 12.37 387.67 12.37 429.37 C12.37 430.93 12.37 432.49 12.37 434.05 C12.37 441.09 12.37 448.14 12.37 455.18 C12.37 458.33 12.37 461.47 12.37 464.61 C12.37 466.18 12.37 467.76 12.37 469.33 C12.37 519.06 12.38 568.78 12.41 618.51 C12.42 631.04 12.43 643.57 12.43 656.1 C12.43 656.87 12.43 657.64 12.43 658.43 C12.45 682.21 12.45 705.98 12.46 729.76 C12.46 730.51 12.46 731.25 12.46 732.02 C12.46 748.41 12.46 764.79 12.46 781.17 C12.46 787.04 12.46 792.9 12.46 798.76 C12.46 800.22 12.46 801.68 12.46 803.14 C12.46 826.38 12.47 849.62 12.49 872.87 C12.5 896.93 12.51 920.99 12.49 945.05 C12.49 958.92 12.49 972.8 12.51 986.67 C12.52 995.94 12.52 1005.2 12.5 1014.46 C12.5 1019.74 12.49 1025.02 12.51 1030.31 C12.53 1035.11 12.52 1039.91 12.5 1044.72 C12.5 1046.45 12.5 1048.17 12.51 1049.9 C12.59 1062.43 11.25 1072.45 3.37 1082.64 C2 1084 2 1084 0 1084 C0 1084.66 0 1085.32 0 1086 C-0.99 1086 -1.98 1086 -3 1086 C-3 1086.66 -3 1087.32 -3 1088 C-10.52 1092.26 -18.28 1092.08 -26.75 1091.94 C-33.38 1090.02 -39.43 1086.18 -44 1081 C-44 1080.34 -44 1079.68 -44 1079 C-44.99 1078.67 -45.98 1078.34 -47 1078 C-47 1077.34 -47 1076.68 -47 1076 C-47.66 1076 -48.32 1076 -49 1076 C-49 1075.34 -49 1074.68 -49 1074 C-49.66 1074 -50.32 1074 -51 1074 C-52.52 1072.46 -52.52 1072.46 -54.25 1070.38 C-56.55 1067.66 -58.87 1065.09 -61.44 1062.62 C-64 1060 -64 1060 -64 1058 C-64.66 1058 -65.32 1058 -66 1058 C-67.51 1056.54 -67.51 1056.54 -69.12 1054.62 C-69.93 1053.69 -69.93 1053.69 -70.76 1052.73 C-72 1051 -72 1051 -72 1049 C-72.66 1049 -73.32 1049 -74 1049 C-75.62 1047.36 -75.62 1047.36 -77.44 1045.19 C-79.97 1042.18 -79.97 1042.18 -82.72 1039.36 C-84 1038 -84 1038 -84 1036 C-84.99 1035.67 -85.98 1035.34 -87 1035 C-87 1034.34 -87 1033.68 -87 1033 C-87.66 1033 -88.32 1033 -89 1033 C-89 1032.34 -89 1031.68 -89 1031 C-89.66 1031 -90.32 1031 -91 1031 C-92.66 1029.39 -92.66 1029.39 -94.5 1027.25 C-95.11 1026.55 -95.72 1025.86 -96.34 1025.14 C-97.88 1023.16 -98.97 1021.28 -100 1019 C-100.66 1019 -101.32 1019 -102 1019 C-107 1013.52 -107 1013.52 -107 1011 C-107.66 1011 -108.32 1011 -109 1011 C-109 1010.34 -109 1009.68 -109 1009 C-109.99 1008.67 -110.98 1008.34 -112 1008 C-112 1007.34 -112 1006.68 -112 1006 C-112.66 1006 -113.32 1006 -114 1006 C-115.45 1004.54 -115.45 1004.54 -117.13 1002.52 C-119.66 999.54 -122.23 996.65 -124.93 993.82 C-125.58 993.14 -126.23 992.46 -126.9 991.76 C-128.24 990.36 -129.58 988.96 -130.92 987.56 C-131.56 986.88 -132.21 986.21 -132.87 985.51 C-133.45 984.91 -134.02 984.3 -134.62 983.68 C-136 982 -136 982 -137 979 C-137.66 979 -138.32 979 -139 979 C-140.62 977.36 -140.62 977.36 -142.44 975.19 C-144.97 972.18 -144.97 972.18 -147.72 969.36 C-149 968 -149 968 -149 966 C-149.66 966 -150.32 966 -151 966 C-152.59 964.39 -152.59 964.39 -154.38 962.25 C-156.34 959.93 -158.26 957.75 -160.44 955.62 C-162 954 -162 954 -162 952 C-162.66 952 -163.32 952 -164 952 C-165.69 950.36 -165.69 950.36 -167.56 948.19 C-168.18 947.48 -168.8 946.77 -169.44 946.04 C-171 944 -171 944 -172 941 C-172.66 941 -173.32 941 -174 941 C-174 940.34 -174 939.68 -174 939 C-174.99 938.67 -175.98 938.34 -177 938 C-177 937.34 -177 936.68 -177 936 C-177.66 936 -178.32 936 -179 936 C-180.62 934.36 -180.62 934.36 -182.44 932.19 C-184.97 929.18 -184.97 929.18 -187.72 926.36 C-189 925 -189 925 -189 923 C-189.66 923 -190.32 923 -191 923 C-192.51 921.54 -192.51 921.54 -194.12 919.62 C-194.93 918.69 -194.93 918.69 -195.76 917.73 C-197 916 -197 916 -197 914 C-197.66 914 -198.32 914 -199 914 C-200.62 912.62 -200.62 912.62 -202 911 C-202 910.34 -202 909.68 -202 909 C-202.66 909 -203.32 909 -204 909 C-209 903.52 -209 903.52 -209 901 C-209.64 900.73 -210.28 900.46 -210.94 900.19 C-213 899 -213 899 -214 896 C-214.66 896 -215.32 896 -216 896 C-217.34 894.67 -217.34 894.67 -218.94 892.75 C-221.21 890.07 -223.51 887.43 -225.91 884.87 C-226.41 884.33 -226.91 883.8 -227.42 883.24 C-228.43 882.17 -229.43 881.1 -230.44 880.04 C-234 876.22 -234 876.22 -234 874 C-234.99 873.67 -235.98 873.34 -237 873 C-237 872.34 -237 871.68 -237 871 C-237.66 871 -238.32 871 -239 871 C-240.43 869.56 -240.43 869.56 -242.1 867.55 C-244.72 864.48 -247.39 861.49 -250.18 858.57 C-250.88 857.84 -251.58 857.11 -252.3 856.35 C-253.75 854.84 -255.2 853.33 -256.65 851.83 C-257.34 851.1 -258.03 850.38 -258.75 849.63 C-259.37 848.98 -260 848.33 -260.64 847.66 C-262 846 -262 846 -262 844 C-262.66 844 -263.32 844 -264 844 C-265.62 842.36 -265.62 842.36 -267.44 840.19 C-269.97 837.18 -269.97 837.18 -272.72 834.36 C-274 833 -274 833 -274 831 C-274.99 830.67 -275.98 830.34 -277 830 C-277 829.34 -277 828.68 -277 828 C-277.66 828 -278.32 828 -279 828 C-280.34 826.67 -280.34 826.67 -281.94 824.75 C-284.21 822.07 -286.51 819.43 -288.91 816.87 C-289.41 816.33 -289.91 815.8 -290.42 815.24 C-291.43 814.17 -292.43 813.1 -293.44 812.04 C-297 808.22 -297 808.22 -297 806 C-297.66 806 -298.32 806 -299 806 C-299 805.34 -299 804.68 -299 804 C-299.99 803.67 -300.98 803.34 -302 803 C-302 802.34 -302 801.68 -302 801 C-302.66 801 -303.32 801 -304 801 C-305.62 799.36 -305.62 799.36 -307.44 797.19 C-309.97 794.18 -309.97 794.18 -312.72 791.36 C-314 790 -314 790 -314 788 C-314.66 788 -315.32 788 -316 788 C-317.59 786.39 -317.59 786.39 -319.38 784.25 C-321.34 781.93 -323.26 779.75 -325.44 777.62 C-327 776 -327 776 -327 774 C-327.66 774 -328.32 774 -329 774 C-329 773.34 -329 772.68 -329 772 C-330.01 772 -331.02 772 -332.07 772 C-356.71 772.03 -381.34 772.04 -405.98 772.05 C-417.9 772.06 -429.81 772.06 -441.73 772.08 C-452.11 772.09 -462.5 772.09 -472.88 772.09 C-478.38 772.1 -483.88 772.1 -489.38 772.11 C-494.56 772.11 -499.74 772.11 -504.91 772.11 C-506.81 772.11 -508.71 772.12 -510.61 772.12 C-513.2 772.12 -515.8 772.12 -518.4 772.12 C-519.15 772.12 -519.89 772.13 -520.66 772.13 C-532.08 772.1 -540.4 770.41 -549.06 762.38 C-550.9 760.13 -551.68 758.85 -552 756 C-552.66 756 -553.32 756 -554 756 C-555.98 751.85 -556.25 748.49 -556.26 743.91 C-556.26 743.2 -556.26 742.5 -556.27 741.77 C-556.28 739.4 -556.27 737.03 -556.27 734.66 C-556.27 732.95 -556.28 731.23 -556.28 729.52 C-556.29 724.8 -556.29 720.08 -556.29 715.37 C-556.29 710.28 -556.3 705.2 -556.31 700.11 C-556.33 690.15 -556.33 680.19 -556.33 670.22 C-556.34 662.12 -556.34 654.03 -556.35 645.93 C-556.36 622.98 -556.37 600.03 -556.37 577.08 C-556.37 575.84 -556.37 574.6 -556.37 573.33 C-556.37 572.09 -556.37 570.85 -556.37 569.57 C-556.37 549.49 -556.39 529.4 -556.42 509.32 C-556.45 488.7 -556.46 468.08 -556.46 447.47 C-556.46 435.89 -556.46 424.31 -556.48 412.73 C-556.5 402.88 -556.51 393.02 -556.49 383.16 C-556.49 378.13 -556.49 373.1 -556.5 368.07 C-556.52 363.47 -556.52 358.87 -556.5 354.26 C-556.5 352.59 -556.5 350.93 -556.51 349.26 C-556.57 339.46 -556.39 332.27 -549.81 324.38 C-539.54 315.7 -531.56 313.83 -518.4 313.88 C-517.58 313.88 -516.77 313.88 -515.93 313.88 C-513.22 313.88 -510.51 313.88 -507.8 313.89 C-505.85 313.89 -503.9 313.89 -501.95 313.89 C-496.67 313.89 -491.39 313.89 -486.11 313.9 C-480.58 313.9 -475.05 313.91 -469.53 313.91 C-459.08 313.91 -448.62 313.92 -438.17 313.93 C-426.26 313.94 -414.35 313.94 -402.45 313.95 C-377.97 313.96 -353.48 313.98 -329 314 C-329 313.34 -329 312.68 -329 312 C-328.34 312 -327.68 312 -327 312 C-326.75 311.43 -326.51 310.85 -326.25 310.26 C-324.8 307.64 -323.1 305.94 -320.94 303.88 C-318.08 301.22 -318.08 301.22 -316 298 C-315.34 298 -314.68 298 -314 298 C-313.74 297.41 -313.49 296.83 -313.22 296.23 C-311.89 293.81 -310.43 292.27 -308.44 290.38 C-305.86 287.95 -305.86 287.95 -304 285 C-303.34 285 -302.68 285 -302 285 C-301.67 284.01 -301.34 283.02 -301 282 C-300.34 282 -299.68 282 -299 282 C-299 281.34 -299 280.68 -299 280 C-298.34 280 -297.68 280 -297 280 C-296.74 279.42 -296.48 278.84 -296.22 278.24 C-294.91 275.83 -293.46 274.15 -291.56 272.18 C-290.89 271.48 -290.23 270.78 -289.54 270.06 C-288.5 268.98 -288.5 268.98 -287.44 267.88 C-286.06 266.44 -284.68 265 -283.31 263.55 C-282.7 262.92 -282.09 262.29 -281.46 261.63 C-279.91 260.05 -279.91 260.05 -279 258 C-278.34 258 -277.68 258 -277 258 C-276.67 257.01 -276.34 256.02 -276 255 C-275.34 255 -274.68 255 -274 255 C-273.74 254.41 -273.49 253.83 -273.22 253.23 C-271.89 250.81 -270.43 249.27 -268.44 247.38 C-265.86 244.95 -265.86 244.95 -264 242 C-263.34 242 -262.68 242 -262 242 C-261.74 241.41 -261.47 240.81 -261.2 240.2 C-259.96 237.92 -258.7 236.53 -256.81 234.75 C-252.26 230.33 -248.16 225.56 -244.07 220.71 C-243.45 219.98 -242.83 219.25 -242.19 218.5 C-241.62 217.83 -241.06 217.16 -240.48 216.47 C-239 215 -239 215 -237 215 C-236.67 214.01 -236.34 213.02 -236 212 C-235.34 212 -234.68 212 -234 212 C-233.74 211.41 -233.47 210.83 -233.2 210.22 C-231.96 207.92 -230.62 206.32 -228.81 204.43 C-228.2 203.78 -227.58 203.13 -226.95 202.46 C-226.3 201.79 -225.66 201.13 -225 200.44 C-223.73 199.1 -222.46 197.77 -221.19 196.43 C-220.62 195.85 -220.06 195.26 -219.48 194.65 C-217.8 192.86 -217.8 192.86 -216 190 C-215.34 190 -214.68 190 -214 190 C-213.73 189.36 -213.46 188.72 -213.19 188.06 C-212 186 -212 186 -209 185 C-207.95 183.15 -207.95 183.15 -207 181 C-205.5 178.75 -205.5 178.75 -204 177 C-203.34 177 -202.68 177 -202 177 C-202 176.34 -202 175.68 -202 175 C-200.62 173.37 -200.62 173.37 -199 172 C-198.34 172 -197.68 172 -197 172 C-196.75 171.44 -196.5 170.89 -196.25 170.31 C-194.77 167.58 -193.07 165.32 -191 163 C-190.34 163 -189.68 163 -189 163 C-188.74 162.41 -188.49 161.83 -188.22 161.23 C-186.89 158.81 -185.43 157.27 -183.44 155.38 C-180.86 152.95 -180.86 152.95 -179 150 C-178.34 150 -177.68 150 -177 150 C-176.67 149.01 -176.34 148.02 -176 147 C-175.34 147 -174.68 147 -174 147 C-174 146.34 -174 145.68 -174 145 C-173.34 145 -172.68 145 -172 145 C-171.74 144.42 -171.48 143.83 -171.21 143.23 C-169.93 140.87 -168.52 139.22 -166.66 137.29 C-166.01 136.6 -165.36 135.91 -164.69 135.21 C-164.01 134.5 -163.33 133.79 -162.62 133.06 C-161.28 131.66 -159.94 130.25 -158.6 128.85 C-157.97 128.19 -157.34 127.53 -156.7 126.85 C-155.27 125.3 -153.95 123.65 -152.65 122 C-152.1 121.34 -151.56 120.68 -151 120 C-150.34 120 -149.68 120 -149 120 C-148.74 119.41 -148.49 118.83 -148.22 118.23 C-146.89 115.81 -145.43 114.27 -143.44 112.38 C-140.86 109.95 -140.86 109.95 -139 107 C-138.34 107 -137.68 107 -137 107 C-136.75 106.42 -136.49 105.83 -136.23 105.23 C-134.87 102.76 -133.36 101.19 -131.31 99.25 C-126.67 94.73 -122.42 89.94 -118.3 84.94 C-117.77 84.3 -117.24 83.66 -116.69 83 C-116.22 82.42 -115.75 81.84 -115.26 81.25 C-114 80 -114 80 -112 80 C-111.67 79.01 -111.34 78.02 -111 77 C-110.34 77 -109.68 77 -109 77 C-108.77 76.46 -108.55 75.93 -108.31 75.38 C-106.54 72.18 -104.46 69.71 -102 67 C-101.34 67 -100.68 67 -100 67 C-99.74 66.43 -99.48 65.86 -99.22 65.27 C-97.89 62.79 -96.35 60.87 -94.5 58.75 C-93.89 58.04 -93.28 57.34 -92.66 56.61 C-91 55 -91 55 -89 55 C-89 54.34 -89 53.68 -89 53 C-88.34 53 -87.68 53 -87 53 C-86.67 52.01 -86.34 51.02 -86 50 C-85.34 50 -84.68 50 -84 50 C-83.66 49.2 -83.66 49.2 -83.31 48.38 C-80.98 44.15 -77.68 40.15 -74 37 C-73.34 37 -72.68 37 -72 37 C-71.75 36.44 -71.5 35.89 -71.25 35.31 C-69.77 32.58 -68.07 30.32 -66 28 C-65.34 28 -64.68 28 -64 28 C-63.74 27.41 -63.49 26.83 -63.22 26.23 C-61.89 23.81 -60.43 22.27 -58.44 20.38 C-55.86 17.95 -55.86 17.95 -54 15 C-53.34 15 -52.68 15 -52 15 C-51.67 14.01 -51.34 13.02 -51 12 C-50.34 12 -49.68 12 -49 12 C-49 11.34 -49 10.68 -49 10 C-48.34 10 -47.68 10 -47 10 C-46.76 9.42 -46.52 8.85 -46.27 8.25 C-42.97 2.39 -36.24 -2.69 -30 -5 C-19.66 -7.59 -8.69 -6.23 0 0 Z M-53 106 C-53 106.66 -53 107.32 -53 108 C-54.49 108.5 -54.49 108.5 -56 109 C-56 109.66 -56 110.32 -56 111 C-56.66 111 -57.32 111 -58 111 C-59.7 112.69 -59.7 112.69 -61.44 114.81 C-64.84 118.85 -64.84 118.85 -66.72 120.64 C-68.23 121.93 -68.23 121.93 -68 124 C-68.66 124 -69.32 124 -70 124 C-71.5 125.45 -71.5 125.45 -73.06 127.38 C-79.04 134.39 -85.08 141.3 -91.79 147.62 C-93.22 148.94 -93.22 148.94 -93 151 C-93.66 151 -94.32 151 -95 151 C-96.4 152.35 -96.4 152.35 -97.88 154.19 C-100.21 156.95 -102.58 159.65 -105.06 162.29 C-105.59 162.86 -106.13 163.43 -106.68 164.02 C-107.76 165.16 -108.83 166.3 -109.91 167.43 C-112.43 170.12 -114.62 172.55 -116 176 C-116.66 176 -117.32 176 -118 176 C-118 176.66 -118 177.32 -118 178 C-118.66 178 -119.32 178 -120 178 C-121.7 179.69 -121.7 179.69 -123.44 181.81 C-126.84 185.85 -126.84 185.85 -128.72 187.64 C-130.23 188.93 -130.23 188.93 -130 191 C-131.49 191.5 -131.49 191.5 -133 192 C-133 192.66 -133 193.32 -133 194 C-133.66 194 -134.32 194 -135 194 C-136.58 195.48 -136.58 195.48 -138.12 197.38 C-138.93 198.31 -138.93 198.31 -139.76 199.27 C-141.19 200.92 -141.19 200.92 -141 203 C-141.66 203 -142.32 203 -143 203 C-144.7 204.69 -144.7 204.69 -146.44 206.81 C-149.84 210.85 -149.84 210.85 -151.72 212.64 C-153.23 213.93 -153.23 213.93 -153 216 C-153.66 216 -154.32 216 -155 216 C-156.67 217.33 -156.67 217.33 -158 219 C-158 219.66 -158 220.32 -158 221 C-158.66 221 -159.32 221 -160 221 C-161.43 222.38 -161.43 222.38 -162.94 224.25 C-165.21 226.93 -167.51 229.57 -169.91 232.13 C-170.66 232.94 -170.66 232.94 -171.42 233.76 C-172.43 234.83 -173.43 235.9 -174.44 236.96 C-177.16 239.55 -177.16 239.55 -178 243 C-178.99 243.33 -179.98 243.66 -181 244 C-181 244.66 -181 245.32 -181 246 C-181.66 246 -182.32 246 -183 246 C-184.7 247.69 -184.7 247.69 -186.44 249.81 C-189.84 253.85 -189.84 253.85 -191.72 255.64 C-193.23 256.93 -193.23 256.93 -193 259 C-193.66 259 -194.32 259 -195 259 C-196.67 260.65 -196.67 260.65 -198.38 262.75 C-200.34 265.07 -202.26 267.25 -204.44 269.38 C-206.23 270.86 -206.23 270.86 -206 273 C-206.66 273 -207.32 273 -208 273 C-209.7 274.69 -209.7 274.69 -211.44 276.81 C-214.84 280.85 -214.84 280.85 -216.72 282.64 C-218.23 283.93 -218.23 283.93 -218 286 C-218.66 286 -219.32 286 -220 286 C-221.67 287.33 -221.67 287.33 -223 289 C-223 289.66 -223 290.32 -223 291 C-223.66 291 -224.32 291 -225 291 C-226.5 292.45 -226.5 292.45 -228.06 294.38 C-231.69 298.66 -235.46 302.78 -239.28 306.9 C-241.21 308.8 -241.21 308.8 -241 311 C-241.66 311 -242.32 311 -243 311 C-243 311.66 -243 312.32 -243 313 C-243.66 313 -244.32 313 -245 313 C-246.7 314.69 -246.7 314.69 -248.44 316.81 C-251.84 320.85 -251.84 320.85 -253.72 322.64 C-255.23 323.93 -255.23 323.93 -255 326 C-255.99 326.33 -256.98 326.66 -258 327 C-258 327.66 -258 328.32 -258 329 C-258.66 329 -259.32 329 -260 329 C-261.5 330.45 -261.5 330.45 -263.06 332.38 C-266.63 336.59 -270.33 340.65 -274.08 344.7 C-276.05 346.87 -276.05 346.87 -277.07 349.23 C-278 351 -278 351 -281 352 C-281 352.66 -281 353.32 -281 354 C-281.66 354 -282.32 354 -283 354 C-283 354.66 -283 355.32 -283 356 C-283.66 356 -284.32 356 -285 356 C-286.6 357.62 -286.6 357.62 -288.25 359.69 C-290.5 362.35 -292.7 364.71 -295.44 366.88 C-296.28 367.58 -297.13 368.28 -298 369 C-298 369.66 -298 370.32 -298 371 C-298.63 371.2 -299.25 371.41 -299.9 371.62 C-300.72 371.89 -301.53 372.16 -302.38 372.44 C-303.59 372.84 -303.59 372.84 -304.84 373.25 C-307.01 373.95 -307.01 373.95 -309 375 C-311.44 375.11 -313.86 375.15 -316.3 375.16 C-317.06 375.16 -317.82 375.17 -318.6 375.17 C-321.17 375.19 -323.74 375.2 -326.3 375.21 C-328.16 375.22 -330.03 375.23 -331.89 375.24 C-336.89 375.26 -341.89 375.28 -346.89 375.3 C-351.58 375.32 -356.27 375.35 -360.96 375.37 C-374.68 375.44 -388.4 375.5 -402.12 375.56 C-432.77 375.71 -463.42 375.85 -495 376 C-495 486.22 -495 596.44 -495 710 C-434.19 710.17 -434.19 710.17 -373.39 710.3 C-361.62 710.34 -361.62 710.34 -356.11 710.37 C-352.26 710.39 -348.42 710.39 -344.58 710.39 C-339.67 710.39 -334.76 710.41 -329.85 710.44 C-328.05 710.45 -326.25 710.45 -324.45 710.45 C-308.16 710.4 -308.16 710.4 -301.53 714.14 C-300 715.16 -300 715.16 -298 715 C-298 715.66 -298 716.32 -298 717 C-296.38 718.6 -296.38 718.6 -294.31 720.25 C-291.65 722.5 -289.29 724.7 -287.12 727.44 C-286.42 728.28 -285.72 729.13 -285 730 C-284.34 730 -283.68 730 -283 730 C-283 730.66 -283 731.32 -283 732 C-282.34 732 -281.68 732 -281 732 C-280.77 732.56 -280.53 733.12 -280.29 733.7 C-278.68 736.57 -276.68 738.47 -274.31 740.75 C-269.12 745.84 -264.04 750.94 -260 757 C-259.34 757 -258.68 757 -258 757 C-257.67 757.99 -257.34 758.98 -257 760 C-256.34 760 -255.68 760 -255 760 C-254.77 760.54 -254.55 761.07 -254.31 761.62 C-251.98 765.85 -248.68 769.85 -245 773 C-244.34 773 -243.68 773 -243 773 C-243 773.66 -243 774.32 -243 775 C-242.34 775 -241.68 775 -241 775 C-240.6 775.89 -240.6 775.89 -240.19 776.79 C-238.99 779.02 -237.74 780.56 -236 782.38 C-235.42 782.99 -234.84 783.6 -234.25 784.23 C-233.65 784.86 -233.05 785.48 -232.44 786.12 C-231.25 787.38 -230.06 788.63 -228.87 789.88 C-228.34 790.43 -227.82 790.98 -227.28 791.55 C-226 793 -226 793 -225 795 C-224.34 795 -223.68 795 -223 795 C-223 795.66 -223 796.32 -223 797 C-221.67 798.67 -221.67 798.67 -220 800 C-219.34 800 -218.68 800 -218 800 C-217.62 800.88 -217.62 800.88 -217.22 801.77 C-215.89 804.19 -214.43 805.73 -212.44 807.62 C-209.1 810.81 -209.1 810.81 -208 813 C-207.34 813 -206.68 813 -206 813 C-205.75 813.57 -205.51 814.15 -205.25 814.74 C-203.8 817.36 -202.1 819.06 -199.94 821.12 C-196.1 824.81 -196.1 824.81 -195 827 C-194.34 827 -193.68 827 -193 827 C-192.62 827.88 -192.62 827.88 -192.22 828.77 C-190.89 831.19 -189.43 832.73 -187.44 834.62 C-184.1 837.81 -184.1 837.81 -183 840 C-182.34 840 -181.68 840 -181 840 C-180.67 840.99 -180.34 841.98 -180 843 C-179.34 843 -178.68 843 -178 843 C-177.74 843.59 -177.47 844.19 -177.2 844.8 C-175.96 847.08 -174.7 848.47 -172.81 850.25 C-168.12 854.81 -163.64 859.55 -160 865 C-159.34 865 -158.68 865 -158 865 C-158 865.66 -158 866.32 -158 867 C-156.67 868.67 -156.67 868.67 -155 870 C-154.34 870 -153.68 870 -153 870 C-152.62 870.88 -152.62 870.88 -152.22 871.77 C-150.89 874.19 -149.43 875.73 -147.44 877.62 C-144.1 880.81 -144.1 880.81 -143 883 C-142.34 883 -141.68 883 -141 883 C-140.75 883.56 -140.5 884.11 -140.25 884.69 C-138.77 887.42 -137.07 889.68 -135 892 C-134.34 892 -133.68 892 -133 892 C-132.67 892.99 -132.34 893.98 -132 895 C-131.34 895 -130.68 895 -130 895 C-129.77 895.54 -129.55 896.07 -129.31 896.62 C-126.5 901.72 -122.27 906.08 -118 910 C-117.34 910 -116.68 910 -116 910 C-115.62 910.88 -115.62 910.88 -115.23 911.77 C-113.88 914.22 -112.41 915.72 -110.38 917.62 C-106.46 921.42 -103.1 925.49 -99.76 929.8 C-98.25 931.68 -96.82 933.42 -95 935 C-94.34 935 -93.68 935 -93 935 C-92.76 935.57 -92.51 936.14 -92.26 936.73 C-90.77 939.4 -89.02 941.14 -86.81 943.25 C-81.56 948.38 -76.78 953.78 -72.19 959.5 C-71.47 960.33 -70.74 961.15 -70 962 C-69.34 962 -68.68 962 -68 962 C-67.62 962.88 -67.62 962.88 -67.22 963.77 C-65.89 966.19 -64.43 967.73 -62.44 969.62 C-59.1 972.81 -59.1 972.81 -58 975 C-57.34 975 -56.68 975 -56 975 C-55.67 975.99 -55.34 976.98 -55 978 C-54.34 978 -53.68 978 -53 978 C-53 978.66 -53 979.32 -53 980 C-52.34 980 -51.68 980 -51 980 C-51 691.58 -51 403.16 -51 106 C-51.66 106 -52.32 106 -53 106 Z " fill="#000000" transform="translate(556,97)"/>
<path d="M0 0 C16.52 -1.53 27.1 1.11 41 10 C43 11.19 45 12.38 47 13.56 C48.08 14.25 48.08 14.25 49.19 14.94 C51.12 16.16 51.12 16.16 54 17 C54 17.66 54 18.32 54 19 C54.57 19.11 55.13 19.22 55.71 19.34 C58.32 20.09 60.28 21.21 62.59 22.62 C63.46 23.14 64.32 23.67 65.22 24.21 C66.11 24.76 67.01 25.31 67.94 25.88 C68.83 26.42 69.73 26.96 70.65 27.52 C72.32 28.54 73.99 29.55 75.66 30.57 C77.35 31.6 79.07 32.59 80.8 33.56 C81.52 34.03 82.25 34.51 83 35 C83 35.66 83 36.32 83 37 C83.99 37 84.98 37 86 37 C86 37.66 86 38.32 86 39 C86.65 39.21 87.3 39.42 87.97 39.63 C92.18 41.53 95.71 44.17 99.44 46.88 C100.91 47.94 102.39 49 103.87 50.05 C104.57 50.56 105.27 51.06 105.99 51.58 C107.81 52.87 109.66 54.07 111.54 55.26 C112.35 55.83 113.16 56.41 114 57 C114 57.66 114 58.32 114 59 C114.78 59.31 115.57 59.62 116.38 59.94 C119 61 119 61 121 62 C121 62.66 121 63.32 121 64 C121.8 64.37 121.8 64.37 122.62 64.75 C125.58 66.31 128.3 68.03 131 70 C131 70.66 131 71.32 131 72 C131.55 72.24 132.1 72.48 132.66 72.73 C135.56 74.3 137.9 76.26 140.44 78.38 C144.59 81.83 144.59 81.83 148.85 85.16 C149.56 85.77 150.27 86.38 151 87 C151 87.66 151 88.32 151 89 C151.87 89.39 151.87 89.39 152.75 89.79 C155.15 91.08 156.92 92.55 158.94 94.38 C161.25 96.45 163.53 98.41 166 100.31 C166.66 100.87 167.32 101.43 168 102 C168 102.66 168 103.32 168 104 C168.99 104.33 169.98 104.66 171 105 C171 105.66 171 106.32 171 107 C171.64 107.27 172.28 107.54 172.94 107.81 C175 109 175 109 176 112 C176.66 112.33 177.32 112.66 178 113 C178.66 113.33 179.32 113.66 180 114 C180.33 114.99 180.66 115.98 181 117 C181.84 117.42 181.84 117.42 182.7 117.84 C185.94 119.47 188.24 121.95 190.75 124.5 C191.26 125 191.76 125.5 192.29 126.01 C196 129.75 196 129.75 196 132 C196.66 132 197.32 132 198 132 C199.62 133.38 199.62 133.38 201 135 C201 135.66 201 136.32 201 137 C201.66 137 202.32 137 203 137 C204.52 138.5 204.52 138.5 206.25 140.56 C206.86 141.29 207.48 142.01 208.11 142.76 C208.74 143.5 209.36 144.24 210 145 C210.59 145.67 211.18 146.33 211.79 147.02 C212.34 147.63 212.88 148.24 213.44 148.88 C214.18 149.71 214.18 149.71 214.93 150.55 C216 152 216 152 216 154 C216.66 154 217.32 154 218 154 C219.52 155.68 220.97 157.42 222.38 159.19 C223.15 160.15 223.92 161.11 224.71 162.11 C225.47 163.06 226.22 164.02 227 165 C227.76 165.9 228.51 166.81 229.29 167.74 C231 170 231 170 231 172 C231.66 172 232.32 172 233 172 C234.51 173.68 234.51 173.68 236.12 175.88 C236.66 176.59 237.2 177.31 237.76 178.05 C239 180 239 180 239 182 C239.66 182 240.32 182 241 182 C242.45 183.74 243.81 185.54 245.12 187.38 C245.85 188.37 246.57 189.37 247.32 190.4 C249 193 249 193 249 195 C249.66 195 250.32 195 251 195 C254 199.38 254 199.38 254 202 C254.66 202 255.32 202 256 202 C259 206.38 259 206.38 259 209 C259.66 209 260.32 209 261 209 C261 209.99 261 210.98 261 212 C261.66 212 262.32 212 263 212 C264.45 213.98 264.45 213.98 266.12 216.75 C268.71 220.92 271.33 225.05 274.06 229.12 C274.72 230.12 275.39 231.11 276.07 232.13 C277.31 233.98 278.57 235.82 279.84 237.65 C280.66 238.85 280.66 238.85 281.5 240.06 C281.98 240.75 282.47 241.45 282.97 242.16 C284 244 284 244 284 247 C284.66 247 285.32 247 286 247 C288.04 249.91 289 251.4 289 255 C289.66 255 290.32 255 291 255 C291.33 255.69 291.66 256.38 292 257.1 C294.87 263.01 297.94 268.66 301.38 274.25 C305.71 281.33 309.44 288.62 313.06 296.08 C314.51 299.05 316.01 301.99 317.5 304.94 C324.89 319.71 331.74 334.71 338 350 C338.29 350.72 338.59 351.43 338.89 352.17 C345.63 368.61 351.51 385.3 357.05 402.18 C358 405.07 358.98 407.94 360.11 410.77 C361.16 413.4 361.78 416.08 362.43 418.82 C363.03 421.12 363.78 423.32 364.56 425.56 C365.87 429.36 366.46 433.02 367 437 C367.3 437.74 367.6 438.47 367.91 439.23 C369.24 442.6 370.09 446.04 370.94 449.56 C371.29 450.99 371.64 452.42 371.99 453.86 C372.16 454.56 372.33 455.26 372.51 455.99 C373.19 458.79 373.91 461.58 374.62 464.38 C375.71 468.69 376.63 473.01 377.47 477.38 C378.08 480.38 378.79 483.34 379.5 486.31 C381.32 494.1 382.44 501.94 383.53 509.86 C383.71 511.12 383.88 512.39 384.06 513.69 C384.22 514.85 384.37 516.01 384.54 517.2 C384.85 519.94 384.85 519.94 386 522 C386.18 524 386.32 526 386.44 528 C386.72 532.02 387.08 535.88 387.94 539.81 C390.44 551.46 391.25 563.2 391.66 575.08 C391.71 576.37 391.71 576.37 391.75 577.68 C391.78 578.44 391.8 579.2 391.83 579.99 C391.94 582.21 391.94 582.21 393 585 C393.09 586.5 393.13 588.01 393.13 589.52 C393.13 590.44 393.13 591.37 393.14 592.32 C393.13 593.84 393.13 593.84 393.13 595.39 C393.13 596.99 393.13 596.99 393.13 598.63 C393.14 602.17 393.14 605.71 393.13 609.25 C393.13 611.7 393.13 614.16 393.14 616.61 C393.14 621.76 393.14 626.91 393.13 632.06 C393.12 638.67 393.13 645.27 393.13 651.88 C393.14 656.95 393.14 662.02 393.13 667.09 C393.13 669.53 393.13 671.97 393.14 674.4 C393.14 677.81 393.13 681.21 393.13 684.61 C393.13 685.62 393.13 686.64 393.14 687.68 C393.13 689.07 393.13 689.07 393.13 690.48 C393.13 691.29 393.13 692.09 393.13 692.92 C393 695 393 695 392 698 C391.86 699.59 391.78 701.19 391.72 702.78 C391.68 703.71 391.64 704.63 391.61 705.58 C391.55 707.03 391.55 707.03 391.5 708.5 C391.43 710.41 391.36 712.31 391.28 714.22 C391.25 715.06 391.22 715.91 391.19 716.78 C391 719 391 719 390 722 C389.8 723.52 389.64 725.04 389.5 726.56 C389.42 727.44 389.34 728.32 389.25 729.23 C389.17 730.14 389.09 731.06 389 732 C388.84 733.81 388.67 735.63 388.5 737.44 C388.43 738.24 388.36 739.04 388.28 739.87 C388 742 388 742 387 745 C386.69 748.35 386.49 751.71 386.28 755.07 C386 758 386 758 385 760 C384.65 762.1 384.35 764.2 384.06 766.31 C383.89 767.58 383.71 768.84 383.53 770.15 C383.2 772.53 382.88 774.91 382.57 777.29 C381.57 784.41 379.94 791.16 378.01 798.08 C376.56 803.47 375.65 808.95 374.71 814.44 C374.05 817.77 373.09 820.79 372 824 C371.2 827.54 370.49 831.1 369.78 834.66 C369.09 837.63 368.14 840.18 367 843 C366.39 845.39 365.81 847.79 365.25 850.19 C363.4 857.87 360.99 865.3 358.43 872.77 C357.23 876.28 356.12 879.82 355.06 883.38 C353.34 889.05 351.44 894.65 349.5 900.25 C349.22 901.08 348.93 901.91 348.64 902.76 C346.93 907.62 345.02 912.32 342.88 917.01 C341.83 919.38 340.96 921.79 340.12 924.25 C338.22 929.63 335.86 934.73 333.43 939.89 C332.22 942.53 331.11 945.16 330.06 947.88 C321.63 969.4 310.54 991.02 298.38 1010.64 C295.66 1015.29 293.35 1020.16 291 1025 C290.34 1025 289.68 1025 289 1025 C288.88 1025.58 288.75 1026.15 288.62 1026.75 C287.99 1029.02 287.11 1030.93 286 1033 C285.34 1033 284.68 1033 284 1033 C283.88 1033.59 283.76 1034.17 283.63 1034.77 C282.99 1037.03 282.17 1038.63 280.93 1040.61 C280.3 1041.61 280.3 1041.61 279.66 1042.64 C279.22 1043.33 278.77 1044.03 278.31 1044.75 C277.63 1045.83 277.63 1045.83 276.94 1046.93 C274.22 1051.2 271.38 1055.32 268.25 1059.32 C266.21 1062.06 264.63 1065 263 1068 C262.34 1068 261.68 1068 261 1068 C261 1068.99 261 1069.98 261 1071 C260.34 1071 259.68 1071 259 1071 C258.69 1071.78 258.38 1072.57 258.06 1073.38 C257 1076 257 1076 256 1078 C255.34 1078 254.68 1078 254 1078 C253.69 1078.78 253.38 1079.57 253.06 1080.38 C252 1083 252 1083 251 1085 C250.34 1085 249.68 1085 249 1085 C248.73 1085.56 248.46 1086.12 248.19 1086.7 C246.92 1089.16 245.51 1091.44 244 1093.75 C243.48 1094.55 242.97 1095.35 242.44 1096.17 C241.73 1097.08 241.73 1097.08 241 1098 C240.34 1098 239.68 1098 239 1098 C238.63 1099.08 238.63 1099.08 238.25 1100.19 C236.88 1103.28 235.28 1105.51 233 1108 C232.34 1108 231.68 1108 231 1108 C230.77 1108.71 230.55 1109.42 230.32 1110.14 C228.7 1113.64 226.58 1115.9 223.94 1118.69 C220.58 1122.07 220.58 1122.07 218 1126 C217.34 1126 216.68 1126 216 1126 C216 1126.66 216 1127.32 216 1128 C215.34 1128 214.68 1128 214 1128 C213.74 1128.58 213.48 1129.15 213.22 1129.75 C211.9 1132.19 210.37 1134.01 208.5 1136.06 C206.44 1138.33 204.71 1140.44 203 1143 C202.34 1143 201.68 1143 201 1143 C201 1143.66 201 1144.32 201 1145 C199.62 1146.62 199.62 1146.62 198 1148 C197.34 1148 196.68 1148 196 1148 C195.6 1148.96 195.6 1148.96 195.19 1149.94 C194 1152 194 1152 191 1153 C190.67 1153.66 190.34 1154.32 190 1155 C189.67 1155.66 189.34 1156.32 189 1157 C188.01 1157.33 187.02 1157.66 186 1158 C185.67 1158.66 185.34 1159.32 185 1160 C184.67 1160.66 184.34 1161.32 184 1162 C183.01 1162.33 182.02 1162.66 181 1163 C180.67 1163.66 180.34 1164.32 180 1165 C179.67 1165.66 179.34 1166.32 179 1167 C178.01 1167.33 177.02 1167.66 176 1168 C175.67 1168.66 175.34 1169.32 175 1170 C174.67 1170.66 174.34 1171.32 174 1172 C173.01 1172.33 172.02 1172.66 171 1173 C171 1173.66 171 1174.32 171 1175 C169.6 1176.41 169.6 1176.41 167.62 1178.06 C163.34 1181.69 159.22 1185.46 155.1 1189.28 C153 1191 153 1191 151 1191 C151 1191.66 151 1192.32 151 1193 C149.37 1194.48 147.67 1195.88 145.94 1197.25 C142.54 1199.96 139.19 1202.68 135.94 1205.56 C133 1208 133 1208 131 1208 C131 1208.66 131 1209.32 131 1210 C129.32 1211.51 129.32 1211.51 127.12 1213.12 C126.41 1213.66 125.69 1214.2 124.95 1214.76 C123 1216 123 1216 121 1216 C121 1216.66 121 1217.32 121 1218 C116.62 1221 116.62 1221 114 1221 C114 1221.66 114 1222.32 114 1223 C112.58 1224.23 112.58 1224.23 110.6 1225.61 C109.88 1226.11 109.15 1226.62 108.41 1227.14 C107.64 1227.67 106.86 1228.2 106.06 1228.75 C105.29 1229.29 104.51 1229.83 103.71 1230.38 C101.48 1231.93 99.24 1233.47 97 1235 C95.99 1235.7 94.98 1236.4 93.94 1237.12 C88.27 1241 88.27 1241 86 1241 C86 1241.66 86 1242.32 86 1243 C85.01 1243 84.02 1243 83 1243 C83 1243.66 83 1244.32 83 1245 C81.26 1246.27 81.26 1246.27 78.84 1247.68 C77.96 1248.2 77.09 1248.71 76.18 1249.25 C74.79 1250.05 74.79 1250.05 73.38 1250.88 C71.57 1251.93 69.76 1252.99 67.96 1254.05 C66.67 1254.81 66.67 1254.81 65.36 1255.58 C63.36 1256.78 61.45 1258.04 59.54 1259.38 C57 1261 57 1261 54 1261 C54 1261.66 54 1262.32 54 1263 C52.94 1263.51 52.94 1263.51 51.87 1264.03 C44.82 1267.49 38.01 1271.22 31.23 1275.17 C30.16 1275.77 29.1 1276.38 28 1277 C27.11 1277.57 26.22 1278.14 25.3 1278.73 C20.42 1280.61 15.8 1280.32 10.62 1280.19 C9.6 1280.17 8.58 1280.16 7.53 1280.15 C5.02 1280.11 2.51 1280.06 0 1280 C0 1279.34 0 1278.68 0 1278 C-0.74 1277.9 -1.48 1277.8 -2.25 1277.7 C-8.3 1276.16 -13.65 1270.09 -17 1265 C-20.6 1257.92 -20.96 1250.85 -20 1243 C-18.69 1239.1 -17.04 1235.57 -15 1232 C-14.34 1232 -13.68 1232 -13 1232 C-12.59 1231.1 -12.59 1231.1 -12.17 1230.18 C-8.34 1223.06 -0.37 1219.99 6.57 1216.66 C18.04 1211.12 28.82 1204.19 39.56 1197.38 C40.98 1196.47 40.98 1196.47 42.43 1195.56 C49.36 1191.13 56.11 1186.51 62.72 1181.64 C63.36 1181.18 64 1180.71 64.66 1180.23 C65.22 1179.82 65.77 1179.41 66.33 1178.99 C68.2 1177.88 69.89 1177.43 72 1177 C72 1176.34 72 1175.68 72 1175 C73.74 1173.55 75.54 1172.19 77.38 1170.88 C78.37 1170.15 79.37 1169.43 80.4 1168.68 C83 1167 83 1167 85 1167 C85 1166.34 85 1165.68 85 1165 C86.68 1163.49 86.68 1163.49 88.88 1161.88 C89.59 1161.34 90.31 1160.8 91.05 1160.24 C93 1159 93 1159 95 1159 C95 1158.34 95 1157.68 95 1157 C97.12 1155.05 97.12 1155.05 99.88 1152.88 C100.78 1152.15 101.68 1151.43 102.62 1150.68 C105 1149 105 1149 107 1149 C107 1148.34 107 1147.68 107 1147 C112.48 1142 112.48 1142 115 1142 C115.33 1141.01 115.66 1140.02 116 1139 C116.66 1139 117.32 1139 118 1139 C118 1138.34 118 1137.68 118 1137 C119.61 1135.41 119.61 1135.41 121.75 1133.62 C124.07 1131.66 126.25 1129.74 128.38 1127.56 C130 1126 130 1126 132 1126 C132 1125.34 132 1124.68 132 1124 C133.57 1122.45 133.57 1122.45 135.69 1120.69 C139.91 1117.09 143.9 1113.64 147 1109 C147.66 1109 148.32 1109 149 1109 C149.26 1108.43 149.52 1107.86 149.78 1107.27 C151.11 1104.79 152.65 1102.87 154.5 1100.75 C155.11 1100.04 155.72 1099.34 156.34 1098.61 C158 1097 158 1097 160 1097 C160 1096.34 160 1095.68 160 1095 C160.66 1095 161.32 1095 162 1095 C162.33 1094.01 162.66 1093.02 163 1092 C163.66 1092 164.32 1092 165 1092 C165.27 1091.43 165.54 1090.86 165.81 1090.27 C167.04 1087.92 168.43 1085.88 170 1083.75 C170.52 1083.04 171.03 1082.34 171.56 1081.61 C172.04 1081.08 172.51 1080.55 173 1080 C173.66 1080 174.32 1080 175 1080 C175.27 1079.42 175.54 1078.85 175.81 1078.25 C177.03 1075.94 178.3 1073.98 180 1072 C180.66 1072 181.32 1072 182 1072 C182.37 1070.92 182.37 1070.92 182.75 1069.81 C184.12 1066.72 185.72 1064.49 188 1062 C188.66 1062 189.32 1062 190 1062 C190.32 1061 190.32 1061 190.66 1059.99 C192.45 1056 194.9 1052.69 197.5 1049.19 C198 1048.49 198.5 1047.8 199.01 1047.09 C199.49 1046.43 199.97 1045.78 200.47 1045.11 C200.91 1044.51 201.34 1043.91 201.79 1043.3 C202.19 1042.87 202.59 1042.44 203 1042 C203.66 1042 204.32 1042 205 1042 C205 1041.01 205 1040.02 205 1039 C205.66 1039 206.32 1039 207 1039 C207.31 1038.22 207.62 1037.43 207.94 1036.62 C209 1034 209 1034 210 1032 C210.66 1032 211.32 1032 212 1032 C212.1 1031.42 212.21 1030.85 212.31 1030.25 C213.11 1027.63 214.29 1026.07 216 1023.94 C217.94 1021.5 219 1020 220 1017 C220.66 1017 221.32 1017 222 1017 C222.12 1016.42 222.24 1015.83 222.36 1015.23 C223.04 1012.88 223.93 1011.3 225.29 1009.28 C225.76 1008.58 226.22 1007.88 226.69 1007.16 C227.19 1006.43 227.68 1005.69 228.19 1004.94 C231.88 999.33 235.36 993.73 238.48 987.79 C239.98 985.04 241.58 982.38 243.21 979.71 C250.47 967.87 256.42 955.45 262.21 942.85 C263.72 939.58 265.3 936.41 267.11 933.3 C268.64 930.64 269.86 928.16 270.94 925.31 C272.41 921.52 273.92 917.75 275.5 914 C279.08 905.44 282.47 896.82 285.78 888.15 C286.82 885.46 287.9 882.79 289 880.12 C290.95 875.29 292.59 870.35 294.21 865.39 C295.27 862.16 296.37 858.97 297.62 855.81 C299.26 851.6 300.23 847.23 301.25 842.83 C302 840 302 840 302.97 837.59 C304.25 834.36 305.06 831.06 305.88 827.69 C306.22 826.27 306.57 824.85 306.92 823.43 C307.28 821.95 307.64 820.48 308 819 C308.7 816.12 309.41 813.25 310.12 810.38 C310.44 809.1 310.75 807.83 311.07 806.52 C312 803 312 803 313.02 800.07 C314.23 796.27 314.87 792.49 315.5 788.56 C316.36 783.24 317.51 778.19 319 773 C319.22 771.4 319.39 769.8 319.5 768.19 C320.01 762.29 321.11 756.57 322.54 750.83 C323.92 745.17 324.42 739.63 324.75 733.82 C325 731 325 731 326 728 C326.2 726.36 326.36 724.72 326.5 723.07 C326.58 722.11 326.66 721.15 326.75 720.16 C326.83 719.16 326.91 718.16 327 717.12 C327.16 715.15 327.33 713.17 327.5 711.2 C327.57 710.32 327.64 709.44 327.72 708.54 C328 706 328 706 328.51 703.54 C329.06 700.71 329.19 698.02 329.28 695.14 C329.32 694.02 329.36 692.91 329.39 691.76 C329.45 690.02 329.45 690.02 329.5 688.25 C329.57 685.96 329.64 683.68 329.72 681.39 C329.75 680.38 329.78 679.37 329.81 678.33 C329.95 675.8 330.19 673.36 330.51 670.85 C331.16 665.25 331.14 659.69 331.13 654.06 C331.13 652.94 331.13 651.82 331.14 650.67 C331.14 648.31 331.13 645.96 331.13 643.6 C331.13 640.01 331.13 636.42 331.14 632.84 C331.14 630.54 331.13 628.24 331.13 625.94 C331.14 624.34 331.14 624.34 331.14 622.72 C331.12 617.4 330.9 612.23 330.23 606.96 C329.91 604.28 329.82 601.62 329.75 598.93 C329.72 597.85 329.69 596.78 329.66 595.67 C329.63 594.57 329.6 593.46 329.56 592.31 C329.29 584.11 328.84 576.15 327.47 568.05 C326.78 563.6 326.52 559.14 326.25 554.64 C326.09 551.9 326.09 551.9 325 549 C324.84 547.13 324.72 545.25 324.62 543.38 C324.23 537.78 323.48 532.33 322.5 526.81 C322.37 526.07 322.24 525.33 322.1 524.56 C321.42 520.67 321.42 520.67 320 517 C319.68 515.07 319.39 513.13 319.12 511.19 C318.27 505.39 317.09 499.75 315.72 494.06 C315.08 491.34 314.52 488.62 314 485.88 C313.13 481.4 311.95 477.05 310.72 472.66 C309.47 468.07 308.5 463.42 307.54 458.76 C306.4 453.35 304.82 448.21 303 443 C302.48 441.46 301.96 439.92 301.44 438.38 C301.21 437.7 300.98 437.03 300.75 436.34 C299.4 432.12 298.23 427.85 297.07 423.57 C295.43 417.58 293.67 411.94 291 406.34 C289.76 403.45 288.89 400.51 288 397.5 C286.62 392.87 285.04 388.54 283 384.16 C281.94 381.87 280.99 379.54 280.06 377.19 C278.59 373.47 277.09 369.76 275.56 366.06 C275.19 365.17 274.82 364.27 274.44 363.35 C263.64 338.26 251.45 313.71 237.38 290.3 C235.84 287.73 234.3 285.14 232.77 282.56 C231.68 280.73 230.59 278.9 229.5 277.06 C228.98 276.19 228.47 275.32 227.93 274.42 C227.45 273.61 226.97 272.81 226.47 271.97 C226.04 271.25 225.61 270.53 225.17 269.79 C223.99 267.86 223.99 267.86 222 266 C222 265.01 222 264.02 222 263 C221.34 263 220.68 263 220 263 C219.42 261.97 218.85 260.94 218.25 259.88 C216.84 257.4 215.37 255.03 213.75 252.69 C212 250 212 250 212 248 C211.34 248 210.68 248 210 248 C208.71 246.32 208.71 246.32 207.38 244.12 C206.93 243.41 206.48 242.69 206.02 241.95 C205 240 205 240 205 238 C204.34 238 203.68 238 203 238 C201.58 236.38 201.58 236.38 199.96 234.13 C199.38 233.33 198.8 232.53 198.2 231.7 C197.6 230.85 197 230 196.38 229.12 C195.46 227.86 195.46 227.86 194.52 226.57 C190 220.26 190 220.26 190 218 C189.34 218 188.68 218 188 218 C186.49 216.32 186.49 216.32 184.88 214.12 C184.34 213.41 183.8 212.69 183.24 211.95 C182 210 182 210 182 208 C181.34 208 180.68 208 180 208 C175 202.52 175 202.52 175 200 C174.34 200 173.68 200 173 200 C171.31 198.14 171.31 198.14 169.44 195.69 C168.82 194.89 168.2 194.09 167.56 193.26 C166 191 166 191 165 188 C164.01 187.67 163.02 187.34 162 187 C162 186.34 162 185.68 162 185 C161.34 185 160.68 185 160 185 C160 184.34 160 183.68 160 183 C159.34 183 158.68 183 158 183 C156.59 181.6 156.59 181.6 154.94 179.62 C154.32 178.9 153.69 178.17 153.05 177.41 C152.38 176.62 151.7 175.82 151 175 C142.52 164.28 142.52 164.28 132 156 C132 155.34 132 154.68 132 154 C131.42 153.75 130.84 153.5 130.25 153.24 C127.7 151.83 126.07 150.23 124.06 148.12 C121.77 145.76 119.59 143.68 117 141.62 C116.34 141.09 115.68 140.55 115 140 C115 139.34 115 138.68 115 138 C114.42 137.73 113.85 137.46 113.25 137.19 C110.94 135.97 108.98 134.7 107 133 C107 132.34 107 131.68 107 131 C106.43 130.73 105.86 130.46 105.27 130.19 C102.92 128.96 100.88 127.57 98.75 126 C98.04 125.48 97.34 124.97 96.61 124.44 C96.08 123.96 95.55 123.49 95 123 C95 122.34 95 121.68 95 121 C94.46 120.75 93.93 120.5 93.38 120.25 C90.42 118.69 87.7 116.97 85 115 C85 114.34 85 113.68 85 113 C84.34 112.79 83.68 112.59 83 112.38 C78.93 110.51 75.31 108.02 72 105 C72 104.34 72 103.68 72 103 C71.4 102.88 70.8 102.75 70.19 102.62 C68 102 68 102 65 100 C65 99.34 65 98.68 65 98 C64.12 97.82 64.12 97.82 63.22 97.64 C60.89 96.97 59.43 96.11 57.46 94.71 C56.8 94.24 56.14 93.78 55.46 93.3 C54.43 92.57 54.43 92.57 53.38 91.81 C47.92 87.98 42.46 84.36 36.62 81.12 C36.09 80.75 35.55 80.38 35 80 C35 79.34 35 78.68 35 78 C34.45 77.89 33.9 77.78 33.33 77.67 C30.55 76.87 28.28 75.65 25.75 74.25 C24.86 73.76 23.97 73.27 23.05 72.77 C20.71 71.41 18.44 70.02 16.17 68.57 C12.75 66.42 9.26 64.54 5.66 62.72 C-8.43 55.59 -8.43 55.59 -13 50 C-13 49.34 -13 48.68 -13 48 C-13.66 48 -14.32 48 -15 48 C-20.09 39.1 -21.91 30.5 -19.34 20.39 C-16.43 13.06 -10.6 6.28 -4 2 C-2.68 2 -1.36 2 0 2 C0 1.34 0 0.68 0 0 Z " fill="#000000" transform="translate(887,0)"/>
<path d="M0 0 C2.25 1.27 4.54 2.4 6.88 3.52 C12.18 6.13 17.16 9.23 22.17 12.36 C24.3 13.69 26.43 14.98 28.62 16.2 C32.13 18.2 35.61 20.25 39.06 22.33 C39.95 22.85 39.95 22.85 40.86 23.39 C42.32 24.27 43.73 25.23 45.12 26.2 C45.12 26.86 45.12 27.52 45.12 28.2 C46.12 28.2 47.11 28.2 48.12 28.2 C48.12 28.86 48.12 29.52 48.12 30.2 C48.91 30.51 49.69 30.82 50.5 31.14 C53.12 32.2 53.12 32.2 55.12 33.2 C55.12 33.86 55.12 34.52 55.12 35.2 C55.91 35.51 56.69 35.82 57.5 36.14 C60.12 37.2 60.12 37.2 62.12 38.2 C62.12 38.86 62.12 39.52 62.12 40.2 C62.69 40.47 63.25 40.74 63.83 41.02 C66.28 42.28 68.56 43.69 70.88 45.2 C72.07 45.98 72.07 45.98 73.3 46.77 C73.9 47.24 74.5 47.71 75.12 48.2 C75.12 48.86 75.12 49.52 75.12 50.2 C75.7 50.47 76.28 50.74 76.87 51.02 C79.16 52.22 81.12 53.58 83.19 55.14 C83.86 55.64 84.53 56.15 85.22 56.67 C87 58.1 88.62 59.49 90.12 61.2 C90.12 61.86 90.12 62.52 90.12 63.2 C90.7 63.47 91.28 63.74 91.88 64.02 C94.18 65.23 96.15 66.51 98.12 68.2 C98.12 68.86 98.12 69.52 98.12 70.2 C98.98 70.57 98.98 70.57 99.86 70.95 C102.49 72.4 104.24 74.09 106.35 76.23 C107.13 77.02 107.92 77.81 108.73 78.63 C109.54 79.46 110.35 80.29 111.19 81.14 C112.41 82.38 112.41 82.38 113.66 83.64 C115.17 85.17 116.69 86.71 118.2 88.24 C119.4 89.47 120.62 90.67 121.88 91.84 C123.12 93.2 123.12 93.2 123.12 95.2 C123.78 95.2 124.44 95.2 125.12 95.2 C130.12 100.68 130.12 100.68 130.12 103.2 C130.78 103.2 131.44 103.2 132.12 103.2 C133.87 105.08 133.87 105.08 136 107.77 C136.79 108.76 137.58 109.75 138.39 110.77 C139.04 111.59 139.04 111.59 139.71 112.42 C141.25 114.36 142.82 116.28 144.39 118.2 C145.49 119.56 146.59 120.91 147.69 122.27 C148.49 123.25 148.49 123.25 149.31 124.25 C153.12 128.98 153.12 128.98 153.12 131.2 C153.78 131.2 154.44 131.2 155.12 131.2 C158.12 135.59 158.12 135.59 158.12 138.2 C158.78 138.2 159.44 138.2 160.12 138.2 C163.12 142.59 163.12 142.59 163.12 145.2 C163.78 145.2 164.44 145.2 165.12 145.2 C165.12 146.19 165.12 147.18 165.12 148.2 C165.78 148.2 166.44 148.2 167.12 148.2 C168.82 150.47 168.82 150.47 170.69 153.45 C171.31 154.43 171.93 155.4 172.57 156.41 C173.88 158.77 174.67 160.57 175.12 163.2 C175.78 163.2 176.44 163.2 177.12 163.2 C178.86 165.63 178.86 165.63 180.88 168.95 C181.23 169.54 181.58 170.12 181.95 170.72 C184.84 175.56 187.36 180.54 189.82 185.61 C191.37 188.68 193.17 191.38 195.12 194.2 C198.12 199.67 198.12 199.67 198.12 203.2 C198.79 203.2 199.44 203.2 200.12 203.2 C203.12 209.83 203.12 209.83 203.12 213.2 C203.79 213.2 204.44 213.2 205.12 213.2 C205.34 213.79 205.56 214.37 205.79 214.97 C207.67 219.83 209.74 224.5 212.12 229.14 C214.53 233.86 216.47 238.58 218.2 243.58 C219.06 246.02 220.01 248.38 221 250.77 C223.24 256.29 225.08 261.94 226.93 267.61 C228.54 272.53 230.29 277.37 232.12 282.2 C234.96 290.15 236.95 298.16 238.66 306.42 C238.97 308.21 238.97 308.21 240.12 309.2 C240.6 311.29 241.08 313.39 241.52 315.48 C242.16 318.35 242.89 321.18 243.62 324.02 C244.87 328.97 245.8 333.9 246.59 338.95 C247.09 341.97 247.65 344.97 248.23 347.98 C250.78 361.15 252.31 374.34 253.43 387.7 C253.5 388.6 253.58 389.5 253.66 390.43 C253.73 391.23 253.79 392.03 253.86 392.85 C254.08 395.18 254.08 395.18 254.63 397.35 C255.26 400.98 255.26 404.55 255.25 408.22 C255.26 409.41 255.26 409.41 255.26 410.62 C255.26 413.23 255.26 415.84 255.26 418.45 C255.26 420.27 255.26 422.09 255.26 423.91 C255.26 427.72 255.26 431.53 255.26 435.34 C255.25 440.22 255.25 445.1 255.26 449.98 C255.26 453.73 255.26 457.49 255.26 461.24 C255.26 463.04 255.26 464.84 255.26 466.64 C255.26 469.16 255.26 471.67 255.25 474.19 C255.26 474.93 255.26 475.67 255.26 476.43 C255.25 480.16 254.98 483.58 254.12 487.2 C253.95 488.79 253.79 490.38 253.66 491.98 C253.58 492.88 253.51 493.78 253.43 494.7 C253.35 495.65 253.27 496.6 253.19 497.58 C252.03 510.71 250.44 523.55 247.53 536.42 C246.69 540.23 246 543.95 245.63 547.83 C245.23 551.83 244.32 555.48 243.12 559.33 C241.69 563.97 240.76 568.39 240.12 573.2 C239.29 576.42 238.42 579.49 237.15 582.56 C236.08 585.31 235.37 588.02 234.69 590.89 C232.69 599.04 230.36 606.82 227.16 614.58 C226.05 617.38 225.11 620.21 224.19 623.08 C222.16 629.27 219.68 635.21 217.12 641.2 C216.72 642.19 216.32 643.18 215.91 644.2 C213.35 650.51 210.51 656.58 207.36 662.61 C206.3 664.84 205.6 666.79 205.12 669.2 C204.46 669.2 203.81 669.2 203.12 669.2 C203 669.92 202.88 670.65 202.75 671.39 C202.13 674.16 201.24 676.6 200.12 679.2 C199.46 679.2 198.81 679.2 198.12 679.2 C198.02 679.93 197.91 680.66 197.79 681.42 C197.09 684.37 196.07 686.23 194.44 688.77 C192.15 692.44 190.13 696.12 188.25 700.02 C185.98 704.63 183.54 709.06 180.88 713.45 C180.21 714.55 179.54 715.65 178.86 716.78 C178.29 717.58 177.71 718.38 177.12 719.2 C176.47 719.2 175.81 719.2 175.12 719.2 C175.03 719.74 174.94 720.29 174.84 720.84 C173.91 723.9 172.4 726.26 170.69 728.95 C169.76 730.43 169.76 730.43 168.82 731.94 C167.98 733.06 167.98 733.06 167.12 734.2 C166.47 734.2 165.81 734.2 165.12 734.2 C165.12 735.19 165.12 736.18 165.12 737.2 C164.47 737.2 163.81 737.2 163.12 737.2 C162.82 737.99 162.51 738.77 162.19 739.58 C161.13 742.2 161.13 742.2 160.12 744.2 C159.47 744.2 158.81 744.2 158.12 744.2 C157.82 744.99 157.51 745.77 157.19 746.58 C156.13 749.2 156.13 749.2 155.12 751.2 C154.47 751.2 153.81 751.2 153.12 751.2 C152.89 751.74 152.65 752.27 152.41 752.82 C150.76 755.88 148.69 758.54 146.56 761.27 C146.12 761.83 145.68 762.39 145.23 762.98 C143.87 764.72 142.5 766.46 141.12 768.2 C140.69 768.76 140.26 769.31 139.81 769.88 C138.59 771.43 137.36 772.97 136.12 774.52 C135.4 775.42 134.68 776.32 133.94 777.25 C133.34 777.9 132.74 778.54 132.12 779.2 C131.47 779.2 130.81 779.2 130.12 779.2 C129.78 780.01 129.78 780.01 129.44 780.83 C127.1 785.05 123.8 789.05 120.12 792.2 C119.47 792.2 118.81 792.2 118.12 792.2 C117.8 793.02 117.8 793.02 117.47 793.84 C115.66 797.02 113.21 799.41 110.62 801.95 C110.13 802.46 109.63 802.97 109.11 803.49 C105.38 807.2 105.38 807.2 103.12 807.2 C103.12 807.86 103.12 808.52 103.12 809.2 C101.75 810.83 101.75 810.83 100.12 812.2 C99.47 812.2 98.81 812.2 98.12 812.2 C98.12 812.86 98.12 813.52 98.12 814.2 C92.65 819.2 92.65 819.2 90.12 819.2 C90.12 819.86 90.12 820.52 90.12 821.2 C88.43 822.77 86.67 824.26 84.88 825.7 C83.9 826.5 82.93 827.29 81.92 828.11 C79.68 829.79 77.68 831.08 75.12 832.2 C75.12 832.86 75.12 833.52 75.12 834.2 C73.39 835.65 71.59 837.01 69.75 838.33 C68.75 839.05 67.75 839.78 66.73 840.52 C64.12 842.2 64.12 842.2 62.12 842.2 C62.12 842.86 62.12 843.52 62.12 844.2 C57.74 847.2 57.74 847.2 55.12 847.2 C55.12 847.86 55.12 848.52 55.12 849.2 C50.74 852.2 50.74 852.2 48.12 852.2 C48.12 852.86 48.12 853.52 48.12 854.2 C47.13 854.2 46.14 854.2 45.12 854.2 C45.12 854.86 45.12 855.52 45.12 856.2 C42.76 857.84 40.4 859.35 37.94 860.83 C37.21 861.27 36.49 861.72 35.74 862.17 C34.25 863.08 32.76 863.99 31.27 864.9 C29.34 866.08 27.41 867.27 25.48 868.46 C10.02 878.08 10.02 878.08 4.83 880.09 C1.35 881.52 -1.89 883.33 -5.19 885.14 C-16.52 891.22 -27.68 895.55 -40.8 892.01 C-44.44 890.6 -47.89 888.74 -50.88 886.2 C-50.88 885.54 -50.88 884.88 -50.88 884.2 C-51.53 884.2 -52.2 884.2 -52.88 884.2 C-54.31 882.41 -54.31 882.41 -55.88 880.02 C-56.39 879.24 -56.91 878.46 -57.44 877.66 C-60.48 872.45 -61.29 868.02 -61.31 862.02 C-61.32 861.27 -61.32 860.52 -61.32 859.74 C-61.19 853.34 -59.53 848.51 -55.88 843.2 C-55.22 843.2 -54.55 843.2 -53.88 843.2 C-53.54 842.21 -53.22 841.22 -52.88 840.2 C-52.22 840.2 -51.55 840.2 -50.88 840.2 C-50.88 839.54 -50.88 838.88 -50.88 838.2 C-48.31 835.91 -47.4 835.2 -43.88 835.2 C-43.88 834.54 -43.88 833.88 -43.88 833.2 C-42.97 832.87 -42.97 832.87 -42.04 832.54 C-36.47 830.43 -31.55 827.92 -26.51 824.77 C-23.69 823.09 -20.82 821.64 -17.88 820.2 C-3.47 813.1 9.68 803.75 22.69 794.39 C23.44 793.85 24.19 793.31 24.96 792.76 C28.25 790.37 31.45 787.97 34.53 785.32 C37.12 783.2 37.12 783.2 39.12 783.2 C39.12 782.54 39.12 781.88 39.12 781.2 C40.99 779.51 40.99 779.51 43.44 777.64 C44.24 777.02 45.04 776.4 45.86 775.76 C48.13 774.2 48.13 774.2 51.12 773.2 C51.46 772.21 51.78 771.22 52.12 770.2 C52.78 770.2 53.44 770.2 54.12 770.2 C54.12 769.54 54.12 768.88 54.12 768.2 C55.58 766.77 55.58 766.77 57.6 765.1 C62.14 761.23 66.36 757.12 70.56 752.89 C71.28 752.18 72 751.46 72.74 750.72 C73.42 750.04 74.11 749.36 74.81 748.65 C75.73 747.73 75.73 747.73 76.67 746.79 C78.22 745.25 78.22 745.25 79.12 743.2 C79.78 743.2 80.44 743.2 81.12 743.2 C81.46 742.21 81.78 741.22 82.12 740.2 C82.78 740.2 83.44 740.2 84.12 740.2 C84.39 739.63 84.66 739.06 84.94 738.47 C86.17 736.12 87.55 734.08 89.12 731.95 C89.9 730.89 89.9 730.89 90.69 729.81 C91.16 729.28 91.64 728.75 92.12 728.2 C92.78 728.2 93.44 728.2 94.12 728.2 C94.37 727.66 94.62 727.12 94.88 726.56 C96.4 723.67 98.22 721.11 100.12 718.45 C101.18 716.98 101.18 716.98 102.25 715.47 C103.18 714.35 103.18 714.35 104.12 713.2 C104.78 713.2 105.44 713.2 106.12 713.2 C106.43 712.42 106.74 711.64 107.06 710.83 C108.13 708.2 108.13 708.2 109.12 706.2 C109.78 706.2 110.44 706.2 111.12 706.2 C111.5 705.43 111.5 705.43 111.88 704.64 C114.28 699.95 116.75 695.61 120 691.45 C122.93 687.63 125.16 683.61 127.41 679.36 C129.84 674.89 132.48 670.57 135.14 666.24 C136.76 663.58 138.14 661.17 139.12 658.2 C139.78 658.2 140.44 658.2 141.12 658.2 C141.21 657.53 141.3 656.85 141.39 656.15 C142.32 652.44 144.07 649.38 145.94 646.08 C148.87 640.76 151.31 635.58 153.14 629.77 C154.19 627.02 155.62 624.63 157.11 622.1 C158.85 618.85 159.96 615.39 161.12 611.89 C161.64 610.38 162.16 608.87 162.68 607.36 C162.93 606.64 163.17 605.92 163.43 605.18 C164.29 602.73 165.25 600.34 166.25 597.95 C169.98 588.83 172.44 579.21 175.12 569.74 C175.79 567.38 176.47 565.02 177.16 562.66 C180.07 552.7 182.93 542.75 183.88 532.38 C184.48 526.98 185.71 521.68 187.19 516.45 C188.49 511.48 188.61 506.39 188.88 501.28 C189.12 498.2 189.12 498.2 190.12 495.2 C190.42 492.8 190.67 490.42 190.88 488.01 C190.94 487.29 191.01 486.56 191.08 485.82 C193.79 455.06 193.66 425.14 190.88 394.39 C190.82 393.71 190.76 393.02 190.7 392.32 C190.42 389.43 190.05 386.96 189.12 384.2 C188.99 382.2 188.9 380.2 188.81 378.2 C188.26 369.68 186.46 361.55 184.58 353.23 C184.06 350.9 183.58 348.55 183.12 346.2 C180.34 332.16 177.51 318.26 172.95 304.67 C172.12 302.2 171.32 299.73 170.51 297.26 C167.07 286.73 163.37 276.43 159.12 266.2 C158.48 264.56 157.83 262.91 157.19 261.27 C152.84 250.44 148.2 239.92 142.41 229.78 C141.12 227.2 141.12 227.2 141.12 224.2 C140.47 224.2 139.81 224.2 139.12 224.2 C138.76 223.45 138.4 222.7 138.02 221.93 C134.69 215.14 131.13 208.61 127.12 202.2 C126.27 200.82 126.27 200.82 125.4 199.42 C122.27 194.41 119.01 189.61 115.41 184.92 C111.12 179.2 111.12 179.2 111.12 176.2 C110.47 176.2 109.81 176.2 109.12 176.2 C106.12 171.82 106.12 171.82 106.12 169.2 C105.47 169.2 104.81 169.2 104.12 169.2 C102.94 167.71 101.83 166.15 100.75 164.58 C96.82 159.01 92.52 153.89 87.99 148.8 C84.12 144.41 84.12 144.41 84.12 142.2 C83.13 141.87 82.14 141.54 81.12 141.2 C81.12 140.54 81.12 139.88 81.12 139.2 C80.47 139.2 79.81 139.2 79.12 139.2 C77.69 137.75 77.69 137.75 76.02 135.73 C72.16 131.19 68.04 126.97 63.81 122.77 C63.1 122.05 62.38 121.33 61.65 120.59 C60.96 119.91 60.28 119.22 59.57 118.52 C58.96 117.91 58.34 117.29 57.71 116.66 C56.17 115.11 56.17 115.11 54.12 114.2 C54.12 113.54 54.12 112.88 54.12 112.2 C52.64 111.71 52.64 111.71 51.12 111.2 C51.12 110.54 51.12 109.88 51.12 109.2 C50.55 108.94 49.98 108.67 49.39 108.39 C47.05 107.16 45 105.78 42.88 104.2 C42.17 103.69 41.46 103.17 40.73 102.64 C40.2 102.17 39.67 101.69 39.12 101.2 C39.12 100.54 39.12 99.88 39.12 99.2 C38.54 98.92 37.95 98.64 37.34 98.36 C35.28 97.29 33.56 96.14 31.73 94.73 C31.09 94.25 30.45 93.77 29.79 93.27 C28.78 92.49 28.78 92.49 27.75 91.7 C22.39 87.65 17.02 83.62 11.56 79.7 C11.02 79.31 10.47 78.91 9.91 78.5 C6.66 76.18 3.34 74.13 -0.15 72.19 C-2.9 70.62 -5.57 68.9 -8.25 67.2 C-13.33 64.05 -18.34 61.46 -23.88 59.2 C-23.88 58.54 -23.88 57.88 -23.88 57.2 C-24.59 57.1 -25.3 57 -26.03 56.89 C-29.23 56.12 -31.59 54.85 -34.44 53.2 C-37.58 51.39 -40.29 49.88 -43.88 49.2 C-43.88 48.54 -43.88 47.88 -43.88 47.2 C-44.77 47.02 -44.77 47.02 -45.69 46.83 C-47.88 46.2 -47.88 46.2 -50.88 44.2 C-50.88 43.54 -50.88 42.88 -50.88 42.2 C-51.87 41.87 -52.86 41.54 -53.88 41.2 C-53.88 40.54 -53.88 39.88 -53.88 39.2 C-54.53 39.2 -55.2 39.2 -55.88 39.2 C-61.6 30.89 -62.39 21.99 -60.88 12.2 C-59.67 8.48 -58.11 5.4 -55.88 2.2 C-55.37 1.46 -54.86 0.71 -54.33 -0.06 C-53.85 -0.63 -53.37 -1.21 -52.88 -1.8 C-52.22 -1.8 -51.55 -1.8 -50.88 -1.8 C-50.88 -2.46 -50.88 -3.12 -50.88 -3.8 C-35.23 -17.1 -15.56 -9.04 0 0 Z " fill="#000000" transform="translate(827.875,198.796875)"/>
<path d="M0 0 C1.08 0.38 2.17 0.77 3.29 1.16 C16.54 6 28.98 12.66 41 20 C41.86 20.52 42.73 21.04 43.62 21.57 C51.57 26.46 58.95 32.08 66.35 37.75 C67.7 38.77 69.08 39.76 70.47 40.73 C70.98 41.15 71.48 41.57 72 42 C72 42.66 72 43.32 72 44 C72.53 44.21 73.05 44.42 73.6 44.64 C76.99 46.56 79.61 49.14 82.44 51.81 C83 52.33 83.56 52.86 84.13 53.39 C85.77 54.92 87.39 56.46 89 58 C89.5 58.47 90.01 58.94 90.52 59.43 C91.72 60.58 92.87 61.79 94 63 C94 63.66 94 64.32 94 65 C94.66 65 95.32 65 96 65 C97.46 66.59 98.84 68.25 100.19 69.94 C100.98 70.94 101.78 71.93 102.6 72.96 C103.39 73.96 104.18 74.97 105 76 C105.71 76.88 106.42 77.76 107.15 78.66 C112 84.74 112 84.74 112 87 C112.66 87 113.32 87 114 87 C117 91.38 117 91.38 117 94 C117.66 94 118.32 94 119 94 C119.8 95.45 119.8 95.45 120.62 96.94 C122.25 99.79 124 102.49 125.88 105.19 C128.77 109.48 131.05 113.93 133.3 118.58 C134.54 121.08 135.82 123.51 137.17 125.95 C141.89 134.5 145.67 142.94 148.73 152.21 C149.74 155.22 150.82 158.09 152.06 161 C157.36 173.92 160.41 187.74 162.54 201.5 C162.88 203.99 162.88 203.99 164 206 C164.37 208.52 164.7 211.03 165 213.56 C165.08 214.24 165.16 214.92 165.25 215.62 C165.41 216.99 165.58 218.35 165.73 219.72 C165.9 221.15 166.08 222.58 166.26 224.01 C167.01 229.99 167.16 235.9 167.17 241.92 C167.17 242.94 167.17 243.97 167.18 245.02 C167.18 247.17 167.19 249.32 167.19 251.47 C167.19 254.73 167.21 257.98 167.22 261.23 C167.27 280.17 167.27 280.17 165.48 289.4 C164.77 293.23 164.57 297.07 164.34 300.95 C163.88 305.05 162.94 308.99 162 313 C161.64 314.61 161.28 316.23 160.92 317.84 C157.22 334.07 152.19 349.55 146 365 C145.65 365.92 145.29 366.85 144.93 367.8 C137.8 385.85 127.68 403.43 116.31 419.14 C114.95 420.97 114.95 420.97 114 423 C113.34 423 112.68 423 112 423 C111.75 423.72 111.5 424.44 111.25 425.19 C109.88 428.28 108.28 430.51 106 433 C105.34 433 104.68 433 104 433 C103.79 433.68 103.59 434.36 103.38 435.06 C101.57 438.92 99.1 442.08 96 445 C95.34 445 94.68 445 94 445 C93.76 445.56 93.53 446.12 93.28 446.7 C91.71 449.52 89.79 451.48 87.5 453.75 C86.71 454.55 85.91 455.35 85.09 456.17 C83 458 83 458 81 458 C81 458.66 81 459.32 81 460 C79.54 461.51 79.54 461.51 77.62 463.12 C77 463.66 76.37 464.2 75.73 464.76 C74 466 74 466 72 466 C72 466.66 72 467.32 72 468 C68.54 471 68.54 471 66 471 C66 471.66 66 472.32 66 473 C64.4 474.37 64.4 474.37 62.15 475.94 C61.33 476.52 60.5 477.1 59.65 477.7 C58.76 478.31 57.86 478.93 56.94 479.56 C56.02 480.2 55.11 480.83 54.16 481.48 C40.03 491.16 25.59 498.9 10 506 C8.89 506.52 7.77 507.03 6.62 507.57 C-5.71 513.03 -20.3 518.88 -33.59 514.06 C-35.78 513.12 -37.89 512.11 -40 511 C-40.66 510.67 -41.32 510.34 -42 510 C-42 509.34 -42 508.68 -42 508 C-42.64 507.73 -43.28 507.46 -43.94 507.19 C-46 506 -46 506 -47 503 C-47.66 503 -48.32 503 -49 503 C-54.65 495 -54.79 486.48 -54 477 C-52.02 468.81 -46.22 461.99 -39.38 457.25 C-34.9 454.65 -30.05 453.38 -25.11 451.96 C-21.81 450.94 -18.97 449.63 -15.95 447.99 C-13.73 446.86 -11.46 446 -9.12 445.12 C-3.69 443.01 1.07 440.08 6 437 C7.25 436.28 8.5 435.58 9.75 434.88 C12.03 433.56 14.16 432.24 16.31 430.75 C19 429 19 429 21 429 C21 428.34 21 427.68 21 427 C22.39 426.05 23.78 425.11 25.21 424.22 C27.84 422.43 30.14 420.31 32.48 418.17 C34 417 34 417 36 417 C36 416.34 36 415.68 36 415 C37.4 413.66 37.4 413.66 39.38 412.06 C45.58 406.8 51.48 400.78 56 394 C56.66 394 57.32 394 58 394 C58.23 393.31 58.47 392.62 58.71 391.91 C60.27 388.39 62.4 385.45 64.69 382.38 C65.6 381.11 66.51 379.85 67.42 378.59 C67.86 377.97 68.31 377.36 68.76 376.72 C82.68 357.35 92.18 333.94 97.19 310.69 C98 307 98 307 99 306 C99.37 303.86 99.7 301.71 100 299.56 C100.89 293.22 100.89 293.22 102 291 C102.21 288.54 102.37 286.09 102.5 283.62 C102.87 276.44 102.87 276.44 103.51 274.26 C104.23 270.96 104.14 267.67 104.13 264.31 C104.13 263.57 104.13 262.83 104.14 262.07 C104.14 260.51 104.13 258.95 104.13 257.39 C104.13 255.01 104.13 252.63 104.14 250.24 C104.14 248.72 104.13 247.21 104.13 245.69 C104.14 244.62 104.14 244.62 104.14 243.53 C104.12 240.19 103.94 237.21 103 234 C102.73 230.28 102.56 226.55 102.38 222.82 C102 218.98 101.11 215.69 100 212 C99.49 209.4 99.01 206.8 98.56 204.19 C96.96 195.35 94.59 187.16 91.14 178.86 C90.05 176.12 89.07 173.35 88.09 170.56 C81.48 152.05 71.25 135.81 59.47 120.18 C58 118 58 118 58 116 C57.34 116 56.68 116 56 116 C54.59 114.6 54.59 114.6 52.94 112.62 C52.32 111.9 51.71 111.18 51.07 110.43 C50.39 109.63 49.7 108.83 49 108 C47.45 106.22 45.88 104.45 44.31 102.69 C43.59 101.87 42.86 101.05 42.11 100.2 C40.08 97.96 40.08 97.96 37.73 96.33 C37.16 95.89 36.59 95.45 36 95 C36 94.34 36 93.68 36 93 C35.44 92.74 34.87 92.49 34.29 92.22 C31.74 90.86 29.63 89.25 27.38 87.44 C24.34 84.98 24.34 84.98 21 83 C21 82.34 21 81.68 21 81 C20.32 80.77 19.64 80.55 18.94 80.31 C16.01 79 13.72 77.33 11.15 75.43 C7.57 73.05 3.71 71.28 -0.15 69.41 C-2.37 68.31 -4.46 67.17 -6.56 65.88 C-11.19 63.35 -16.03 61.72 -21 60 C-23 59.27 -24.99 58.53 -26.98 57.76 C-28.43 57.21 -29.89 56.71 -31.36 56.24 C-40.17 53.2 -47.67 47.37 -52 39 C-55.01 31.62 -55.41 22.76 -53.14 15.09 C-52.19 12.98 -51.18 10.99 -50 9 C-49.67 8.34 -49.34 7.68 -49 7 C-48.34 7 -47.68 7 -47 7 C-46.73 6.36 -46.46 5.72 -46.19 5.06 C-45 3 -45 3 -42 2 C-42 1.34 -42 0.68 -42 0 C-29.16 -10.18 -13.65 -5.02 0 0 Z " fill="#000000" transform="translate(719,385)"/>
</svg>
