<?xml version="1.0" encoding="UTF-8"?>
<!-- Generator: visioncortex VTracer 0.6.3 -->
<svg version="1.1" xmlns="http://www.w3.org/2000/svg" width="1280" height="1280">
<path d="M0 0 C0.71 0 1.43 0 2.16 0.01 C2.89 0.01 3.62 0 4.37 0 C5.91 0 7.46 0 9 0.01 C11.37 0.01 13.74 0.01 16.11 0 C17.61 0 19.1 0 20.6 0.01 C21.31 0 22.03 0 22.76 0 C27.77 0.02 27.77 0.02 28.88 1.14 C29.81 1.22 30.74 1.3 31.69 1.39 C37.44 2.1 42.64 4.81 47.88 7.14 C47.88 7.8 47.88 8.46 47.88 9.14 C48.6 9.23 49.31 9.33 50.05 9.42 C53.35 10.26 55.43 11.61 58.19 13.58 C59.08 14.19 59.96 14.81 60.87 15.45 C61.53 16.01 62.2 16.56 62.88 17.14 C62.88 17.8 62.88 18.46 62.88 19.14 C63.46 19.39 64.03 19.64 64.62 19.9 C67.2 21.31 68.93 22.93 71.01 25.01 C71.82 25.82 72.63 26.63 73.47 27.46 C74.8 28.79 74.8 28.79 76.15 30.15 C77.09 31.09 78.04 32.03 78.99 32.98 C81.55 35.53 84.11 38.1 86.67 40.66 C89.35 43.34 92.03 46.02 94.71 48.7 C99.21 53.19 103.71 57.69 108.2 62.2 C113.4 67.41 118.6 72.61 123.82 77.81 C128.29 82.27 132.75 86.74 137.22 91.2 C139.88 93.88 142.55 96.54 145.22 99.21 C148.2 102.18 151.17 105.15 154.13 108.13 C155.02 109.02 155.91 109.91 156.83 110.82 C158.04 112.03 158.04 112.03 159.26 113.27 C159.97 113.97 160.67 114.67 161.39 115.4 C162.88 117.14 162.88 117.14 162.88 119.14 C163.87 119.47 164.86 119.8 165.88 120.14 C165.88 120.8 165.88 121.46 165.88 122.14 C166.54 122.14 167.2 122.14 167.88 122.14 C169.59 124.36 171.16 126.56 172.69 128.89 C173.37 129.91 173.37 129.91 174.05 130.95 C180.58 141.05 185.2 152 185.18 164.16 C185.19 165.28 185.19 165.28 185.19 166.42 C185.2 167.99 185.2 169.56 185.2 171.13 C185.19 173.5 185.22 175.87 185.24 178.25 C185.27 185.96 185.18 193.01 181.88 200.14 C181.5 201.1 181.13 202.05 180.74 203.04 C175.85 213.95 169.64 223.88 160.88 232.14 C159.89 232.47 158.9 232.8 157.88 233.14 C157.88 233.8 157.88 234.46 157.88 235.14 C148.86 242.9 139 247.61 127.76 251.17 C125.16 252.04 122.74 253.05 120.26 254.2 C117.15 255.64 114.11 256.71 110.82 257.64 C106.82 258.77 103.34 260.29 99.68 262.23 C97.17 263.5 94.55 264.29 91.88 265.14 C90.73 265.63 89.57 266.13 88.38 266.64 C85.23 267.99 82.13 269.06 78.88 270.14 C75.79 271.24 72.71 272.38 69.63 273.51 C68.78 273.83 67.94 274.14 67.06 274.46 C61.3 276.6 55.57 278.81 49.88 281.14 C48.15 281.83 46.42 282.51 44.69 283.2 C41.88 284.32 39.1 285.48 36.32 286.7 C33.79 287.76 31.35 288.67 28.76 289.51 C27.66 289.89 27.66 289.89 26.55 290.27 C24.75 290.85 22.94 291.39 21.11 291.87 C9.87 295.32 3.23 302.83 -4.73 311.11 C-6.19 312.59 -7.65 314.08 -9.11 315.56 C-12.94 319.44 -16.75 323.34 -20.55 327.25 C-26.63 333.51 -32.75 339.74 -38.88 345.96 C-41 348.13 -43.11 350.31 -45.22 352.49 C-46.53 353.82 -47.84 355.16 -49.15 356.5 C-49.73 357.1 -50.3 357.7 -50.89 358.32 C-56.04 363.52 -61.71 367.59 -69.03 368.77 C-81.28 368.55 -81.28 368.55 -87.12 364.14 C-88.45 363.46 -89.78 362.78 -91.12 362.14 C-91.12 361.81 -91.12 361.48 -91.12 361.14 C-104.98 375 -118.84 388.86 -133.12 403.14 C-131.8 404.79 -130.48 406.44 -129.12 408.14 C-125.12 413.92 -126.36 423.46 -127.12 430.14 C-128.18 433.56 -129.6 435.63 -132.12 438.14 C-132.71 438.77 -133.3 439.4 -133.92 440.05 C-139.43 445.42 -144.92 447.51 -152.43 448.64 C-158.07 447.87 -162.98 445.5 -168.12 443.14 C-168.12 442.48 -168.12 441.82 -168.12 441.14 C-171.89 441.71 -173.6 443.25 -176.24 445.92 C-177.05 446.73 -177.85 447.53 -178.67 448.35 C-179.53 449.22 -180.38 450.09 -181.26 450.99 C-182.14 451.87 -183.02 452.76 -183.93 453.67 C-186.27 456.03 -188.61 458.39 -190.94 460.75 C-193.32 463.16 -195.71 465.57 -198.1 467.97 C-202.78 472.68 -207.45 477.41 -212.12 482.14 C-211.77 482.68 -211.43 483.21 -211.07 483.77 C-210.62 484.48 -210.17 485.19 -209.7 485.92 C-209.25 486.62 -208.8 487.32 -208.34 488.05 C-204.93 493.88 -203.97 500.68 -205.65 507.21 C-208.17 514.44 -212.53 519.85 -217.99 525.14 C-218.57 525.71 -219.14 526.27 -219.73 526.86 C-220.98 528.08 -222.22 529.3 -223.47 530.52 C-225.44 532.44 -227.41 534.38 -229.37 536.32 C-234.94 541.83 -240.53 547.33 -246.13 552.81 C-249.57 556.17 -252.99 559.54 -256.4 562.92 C-257.7 564.21 -259 565.49 -260.31 566.76 C-262.15 568.54 -263.96 570.34 -265.77 572.14 C-266.58 572.92 -266.58 572.92 -267.42 573.71 C-269.93 576.25 -271.07 577.74 -271.54 581.32 C-271.01 584.87 -269.73 587.32 -267.99 590.45 C-264.08 597.81 -261.43 605.41 -258.77 613.29 C-257.94 615.66 -256.98 617.96 -255.99 620.26 C-253.36 626.68 -251.81 633.43 -250.12 640.14 C-249.84 641.2 -249.56 642.26 -249.27 643.35 C-247.47 650.24 -246.14 657.09 -245.12 664.14 C-244.99 664.9 -244.87 665.66 -244.74 666.45 C-241.11 688.94 -235.57 729.05 -246.12 750.14 C-246.25 751.57 -246.35 753.01 -246.43 754.45 C-246.92 759.87 -248.41 764.71 -250.09 769.87 C-251.03 772.86 -251.79 775.83 -252.49 778.89 C-255.29 790.3 -259.36 801.24 -264.82 811.65 C-265.84 813.6 -266.75 815.61 -267.62 817.64 C-269.88 822.92 -272.52 828.02 -275.12 833.14 C-275.78 833.14 -276.44 833.14 -277.12 833.14 C-277.22 833.69 -277.31 834.24 -277.42 834.81 C-278.29 837.72 -279.7 839.85 -281.37 842.39 C-283.62 845.84 -285.82 849.29 -287.93 852.83 C-288.65 853.92 -289.38 855.01 -290.12 856.14 C-290.78 856.14 -291.44 856.14 -292.12 856.14 C-292.37 856.85 -292.61 857.57 -292.87 858.31 C-294.26 861.45 -295.96 863.78 -298.12 866.45 C-298.82 867.33 -299.52 868.22 -300.24 869.13 C-300.86 869.79 -301.48 870.45 -302.12 871.14 C-302.78 871.14 -303.44 871.14 -304.12 871.14 C-304.33 871.67 -304.55 872.2 -304.77 872.75 C-306.63 876.04 -309.11 878.65 -311.68 881.39 C-312.48 882.25 -312.48 882.25 -313.3 883.12 C-317.63 887.72 -322.04 892.37 -327.12 896.14 C-327.78 896.14 -328.44 896.14 -329.12 896.14 C-329.12 896.8 -329.12 897.46 -329.12 898.14 C-331.21 899.93 -333.3 901.61 -335.49 903.26 C-336.1 903.73 -336.7 904.2 -337.32 904.68 C-341.86 908.14 -341.86 908.14 -344.12 908.14 C-344.12 908.8 -344.12 909.46 -344.12 910.14 C-345.63 911.34 -345.63 911.34 -347.73 912.67 C-348.49 913.15 -349.24 913.63 -350.02 914.13 C-350.81 914.63 -351.61 915.12 -352.43 915.64 C-353.22 916.14 -354 916.64 -354.81 917.15 C-356.28 918.08 -357.75 919.01 -359.22 919.93 C-360.87 920.98 -362.49 922.06 -364.12 923.14 C-365.11 923.14 -366.1 923.14 -367.12 923.14 C-367.12 923.8 -367.12 924.46 -367.12 925.14 C-368.77 925.47 -370.42 925.8 -372.12 926.14 C-372.12 926.8 -372.12 927.46 -372.12 928.14 C-373.16 928.64 -374.2 929.13 -375.27 929.64 C-382.7 933.25 -389.69 936.87 -396.3 941.89 C-398.12 943.14 -398.12 943.14 -400.12 943.14 C-400.12 943.8 -400.12 944.46 -400.12 945.14 C-401.58 946.65 -401.58 946.65 -403.49 948.26 C-404.43 949.07 -404.43 949.07 -405.39 949.9 C-407.12 951.14 -407.12 951.14 -409.12 951.14 C-409.39 951.71 -409.66 952.28 -409.93 952.87 C-411.16 955.22 -412.54 957.26 -414.12 959.39 C-414.89 960.45 -414.89 960.45 -415.68 961.53 C-416.16 962.06 -416.63 962.59 -417.12 963.14 C-417.78 963.14 -418.44 963.14 -419.12 963.14 C-419.38 963.85 -419.64 964.56 -419.91 965.29 C-421.18 968.29 -422.73 970.92 -424.43 973.7 C-427.95 979.65 -430.68 985.68 -433.12 992.14 C-433.42 992.92 -433.71 993.7 -434.02 994.51 C-437.59 1004.48 -438.48 1014.84 -439.42 1025.32 C-439.54 1026.58 -439.54 1026.58 -439.65 1027.86 C-439.72 1028.61 -439.79 1029.36 -439.85 1030.14 C-440.12 1032.14 -440.12 1032.14 -441.12 1035.14 C-441.25 1036.89 -441.35 1038.64 -441.43 1040.39 C-441.9 1046.76 -443.47 1052.6 -445.2 1058.71 C-445.93 1061.42 -446.46 1063.92 -446.74 1066.7 C-447.21 1070.99 -448.49 1074.61 -450.12 1078.58 C-451.06 1081 -451.79 1083.42 -452.49 1085.92 C-456.7 1100.85 -456.7 1100.85 -460.12 1107.19 C-461.26 1109.42 -462.16 1111.68 -463.06 1114.01 C-471.65 1135.8 -484.92 1155.65 -499.12 1174.14 C-499.66 1174.91 -500.19 1175.68 -500.75 1176.47 C-501.2 1177.02 -501.65 1177.57 -502.12 1178.14 C-502.78 1178.14 -503.44 1178.14 -504.12 1178.14 C-504.39 1178.72 -504.66 1179.29 -504.94 1179.89 C-506.14 1182.18 -507.49 1184.14 -509.06 1186.2 C-509.81 1187.21 -509.81 1187.21 -510.58 1188.24 C-512.02 1190.01 -513.4 1191.64 -515.12 1193.14 C-515.78 1193.14 -516.44 1193.14 -517.12 1193.14 C-517.12 1193.8 -517.12 1194.46 -517.12 1195.14 C-517.78 1195.14 -518.44 1195.14 -519.12 1195.14 C-519.45 1196.13 -519.78 1197.12 -520.12 1198.14 C-520.78 1198.14 -521.44 1198.14 -522.12 1198.14 C-522.45 1199.13 -522.78 1200.12 -523.12 1201.14 C-523.78 1201.14 -524.44 1201.14 -525.12 1201.14 C-525.12 1201.8 -525.12 1202.46 -525.12 1203.14 C-525.78 1203.14 -526.44 1203.14 -527.12 1203.14 C-527.12 1203.8 -527.12 1204.46 -527.12 1205.14 C-528.81 1206.7 -530.57 1208.19 -532.37 1209.64 C-533.34 1210.43 -534.32 1211.23 -535.32 1212.05 C-537.57 1213.73 -539.57 1215.02 -542.12 1216.14 C-542.12 1216.8 -542.12 1217.46 -542.12 1218.14 C-543.85 1219.58 -545.66 1220.95 -547.49 1222.26 C-548.49 1222.99 -549.49 1223.71 -550.52 1224.46 C-553.12 1226.14 -553.12 1226.14 -555.12 1226.14 C-555.12 1226.8 -555.12 1227.46 -555.12 1228.14 C-557.21 1229.65 -557.21 1229.65 -560.06 1231.39 C-564.49 1234.13 -568.84 1236.94 -573.15 1239.88 C-576.31 1241.9 -578.3 1243.14 -582.12 1243.14 C-582.12 1243.8 -582.12 1244.46 -582.12 1245.14 C-583.77 1245.47 -585.42 1245.8 -587.12 1246.14 C-587.12 1246.8 -587.12 1247.46 -587.12 1248.14 C-587.71 1248.36 -588.31 1248.58 -588.92 1248.8 C-593.66 1250.62 -598.09 1252.61 -602.49 1255.14 C-607.27 1257.82 -612 1259.59 -617.22 1261.21 C-619.93 1262.08 -622.5 1263.09 -625.12 1264.2 C-629.79 1266.13 -634.53 1267.32 -639.45 1268.43 C-642.05 1269.02 -642.05 1269.02 -643.98 1270.11 C-646.3 1271.23 -648.43 1271.8 -650.94 1272.36 C-651.87 1272.57 -652.8 1272.78 -653.75 1272.99 C-655.2 1273.31 -655.2 1273.31 -656.68 1273.64 C-657.62 1273.85 -658.56 1274.06 -659.53 1274.28 C-668.35 1276.26 -677.14 1278.19 -686.18 1278.7 C-690.31 1278.84 -690.31 1278.84 -694.12 1280.14 C-696.29 1280.24 -698.47 1280.27 -700.65 1280.27 C-701.32 1280.27 -701.99 1280.27 -702.68 1280.27 C-704.9 1280.28 -707.12 1280.28 -709.34 1280.27 C-710.88 1280.27 -712.42 1280.27 -713.96 1280.27 C-717.18 1280.28 -720.41 1280.27 -723.64 1280.27 C-727.78 1280.26 -731.93 1280.27 -736.07 1280.27 C-739.25 1280.28 -742.43 1280.28 -745.61 1280.27 C-747.13 1280.27 -748.66 1280.27 -750.19 1280.28 C-752.32 1280.28 -754.46 1280.27 -756.59 1280.27 C-757.81 1280.27 -759.02 1280.27 -760.27 1280.27 C-763.12 1280.14 -763.12 1280.14 -765.12 1279.14 C-767.28 1278.96 -769.45 1278.82 -771.62 1278.7 C-777.63 1278.3 -783.25 1277.45 -789.12 1276.14 C-791.58 1275.66 -794.04 1275.18 -796.49 1274.7 C-805.37 1272.92 -814.09 1270.93 -822.65 1267.95 C-825.76 1266.93 -828.9 1266.07 -832.06 1265.2 C-837.09 1263.78 -841.89 1262.15 -846.7 1260.14 C-849.27 1259.08 -851.87 1258.13 -854.49 1257.2 C-864 1253.77 -873.13 1249.75 -882.12 1245.14 C-883.21 1244.61 -883.21 1244.61 -884.33 1244.06 C-895.54 1238.61 -906.92 1232.72 -917.1 1225.49 C-919.27 1224 -919.27 1224 -922.29 1222.38 C-926.84 1219.81 -930.98 1216.73 -935.18 1213.64 C-936.73 1212.5 -938.29 1211.37 -939.84 1210.23 C-940.57 1209.7 -941.3 1209.17 -942.05 1208.62 C-943.89 1207.3 -945.76 1206.07 -947.68 1204.86 C-948.89 1204.01 -948.89 1204.01 -950.12 1203.14 C-950.12 1202.48 -950.12 1201.82 -950.12 1201.14 C-950.66 1200.9 -951.21 1200.66 -951.77 1200.42 C-954.72 1198.81 -957.11 1196.8 -959.68 1194.64 C-962.45 1192.33 -965.12 1190.14 -968.12 1188.14 C-968.12 1187.48 -968.12 1186.82 -968.12 1186.14 C-969.11 1185.81 -970.1 1185.48 -971.12 1185.14 C-971.12 1184.48 -971.12 1183.82 -971.12 1183.14 C-971.7 1182.88 -972.29 1182.63 -972.89 1182.36 C-975.31 1181.03 -976.85 1179.57 -978.74 1177.58 C-981.16 1175 -981.16 1175 -984.12 1173.14 C-984.12 1172.48 -984.12 1171.82 -984.12 1171.14 C-984.78 1171.14 -985.44 1171.14 -986.12 1171.14 C-986.12 1170.48 -986.12 1169.82 -986.12 1169.14 C-986.78 1169.14 -987.44 1169.14 -988.12 1169.14 C-989.74 1167.49 -989.74 1167.49 -991.56 1165.33 C-994.09 1162.31 -994.09 1162.31 -996.84 1159.5 C-998.12 1158.14 -998.12 1158.14 -998.12 1156.14 C-999.11 1155.81 -1000.1 1155.48 -1001.12 1155.14 C-1001.12 1154.48 -1001.12 1153.82 -1001.12 1153.14 C-1001.78 1153.14 -1002.44 1153.14 -1003.12 1153.14 C-1008.12 1147.66 -1008.12 1147.66 -1008.12 1145.14 C-1008.78 1145.14 -1009.44 1145.14 -1010.12 1145.14 C-1010.45 1143.82 -1010.78 1142.5 -1011.12 1141.14 C-1011.78 1141.14 -1012.44 1141.14 -1013.12 1141.14 C-1016.12 1137.68 -1016.12 1137.68 -1016.12 1135.14 C-1016.78 1135.14 -1017.44 1135.14 -1018.12 1135.14 C-1019.32 1133.75 -1019.32 1133.75 -1020.66 1131.81 C-1021.4 1130.74 -1021.4 1130.74 -1022.16 1129.65 C-1022.94 1128.5 -1022.94 1128.5 -1023.74 1127.33 C-1024.83 1125.76 -1025.92 1124.19 -1027 1122.63 C-1027.53 1121.86 -1028.06 1121.09 -1028.61 1120.3 C-1031.13 1116.69 -1033.76 1113.16 -1036.4 1109.63 C-1038.09 1107.18 -1039.57 1104.66 -1041.03 1102.07 C-1042.2 1099.99 -1043.43 1097.95 -1044.66 1095.91 C-1045.1 1095.19 -1045.53 1094.47 -1045.98 1093.72 C-1046.87 1092.24 -1047.77 1090.76 -1048.67 1089.28 C-1050.87 1085.59 -1052.68 1082.5 -1053.12 1078.14 C-1053.78 1078.14 -1054.44 1078.14 -1055.12 1078.14 C-1063.35 1062.03 -1063.35 1062.03 -1066.2 1054.55 C-1067.25 1051.8 -1068.4 1049.1 -1069.56 1046.39 C-1071.91 1040.77 -1073.98 1035.08 -1075.99 1029.33 C-1076.88 1026.82 -1077.79 1024.32 -1078.74 1021.83 C-1081.02 1015.72 -1083.08 1009.63 -1084.59 1003.3 C-1085.21 1000.77 -1085.92 998.27 -1086.62 995.76 C-1088.04 990.59 -1089.13 985.41 -1090.12 980.14 C-1090.49 978.29 -1090.49 978.29 -1090.87 976.41 C-1092.39 968.8 -1093.5 961.38 -1093.91 953.62 C-1093.97 951.14 -1093.97 951.14 -1095.12 949.14 C-1095.22 946.91 -1095.25 944.67 -1095.25 942.44 C-1095.25 941.41 -1095.25 941.41 -1095.25 940.36 C-1095.26 938.08 -1095.26 935.8 -1095.25 933.52 C-1095.25 931.94 -1095.25 930.35 -1095.25 928.77 C-1095.26 925.45 -1095.25 922.14 -1095.25 918.82 C-1095.24 914.56 -1095.25 910.31 -1095.25 906.05 C-1095.26 902.79 -1095.26 899.52 -1095.25 896.25 C-1095.25 894.68 -1095.25 893.11 -1095.26 891.54 C-1095.26 889.35 -1095.25 887.16 -1095.25 884.97 C-1095.25 883.09 -1095.25 883.09 -1095.25 881.18 C-1095.12 878.14 -1095.12 878.14 -1094.12 875.14 C-1093.96 873.39 -1093.84 871.64 -1093.74 869.89 C-1092.94 859.5 -1090.54 849.37 -1087.93 839.31 C-1087.32 836.94 -1086.74 834.57 -1086.18 832.19 C-1084.61 825.58 -1082.96 819.16 -1080.25 812.9 C-1078.42 808.44 -1076.92 803.86 -1075.4 799.29 C-1074.22 795.85 -1072.96 792.69 -1071.12 789.56 C-1069.13 786.16 -1067.65 782.76 -1066.12 779.14 C-1064.92 776.74 -1063.7 774.37 -1062.43 772.01 C-1061.91 771.04 -1061.91 771.04 -1061.38 770.05 C-1057.88 763.58 -1054.05 757.36 -1050.12 751.14 C-1049.46 750.07 -1048.81 748.99 -1048.13 747.89 C-1047.51 746.88 -1046.89 745.87 -1046.24 744.83 C-1045.69 743.92 -1045.14 743.02 -1044.56 742.09 C-1044.09 741.44 -1043.61 740.8 -1043.12 740.14 C-1042.46 740.14 -1041.8 740.14 -1041.12 740.14 C-1040.85 739.58 -1040.58 739.01 -1040.31 738.44 C-1039.04 735.98 -1037.63 733.7 -1036.12 731.39 C-1035.6 730.59 -1035.09 729.79 -1034.56 728.97 C-1033.84 728.06 -1033.84 728.06 -1033.12 727.14 C-1032.46 727.14 -1031.8 727.14 -1031.12 727.14 C-1030.89 726.59 -1030.66 726.04 -1030.42 725.48 C-1028.74 722.46 -1026.6 720.22 -1024.24 717.7 C-1021.69 714.96 -1019.21 712.26 -1016.92 709.29 C-1016.33 708.58 -1015.73 707.87 -1015.12 707.14 C-1014.46 707.14 -1013.8 707.14 -1013.12 707.14 C-1013.12 706.48 -1013.12 705.82 -1013.12 705.14 C-1011.74 703.51 -1011.74 703.51 -1010.12 702.14 C-1009.46 702.14 -1008.8 702.14 -1008.12 702.14 C-1008.12 701.48 -1008.12 700.82 -1008.12 700.14 C-1006.43 698.57 -1004.66 697.09 -1002.87 695.64 C-1001.41 694.45 -1001.41 694.45 -999.92 693.23 C-997.67 691.55 -995.67 690.26 -993.12 689.14 C-993.12 688.48 -993.12 687.82 -993.12 687.14 C-991.71 685.83 -991.71 685.83 -989.76 684.35 C-989.06 683.82 -988.35 683.29 -987.63 682.75 C-986.88 682.2 -986.14 681.64 -985.37 681.08 C-984.64 680.52 -983.91 679.97 -983.16 679.39 C-982.09 678.6 -982.09 678.6 -981.01 677.79 C-980.36 677.31 -979.71 676.82 -979.04 676.32 C-977.06 675.1 -975.39 674.57 -973.12 674.14 C-973.12 673.48 -973.12 672.82 -973.12 672.14 C-970.73 670.46 -968.36 668.91 -965.87 667.39 C-965.14 666.94 -964.4 666.49 -963.65 666.02 C-958.65 662.98 -953.59 660.23 -948.31 657.71 C-945.84 656.49 -943.43 655.24 -941.02 653.92 C-933.83 649.99 -926.95 646.34 -919.03 644.09 C-916.55 643.28 -914.35 642.35 -911.99 641.26 C-906.68 638.85 -901.21 637.17 -895.62 635.51 C-894.15 635.07 -894.15 635.07 -892.65 634.61 C-883.71 631.92 -874.84 630.03 -865.62 628.6 C-863.13 628.26 -863.13 628.26 -861.12 627.14 C-859.5 626.96 -857.87 626.82 -856.24 626.7 C-852.17 626.37 -848.2 625.85 -844.18 625.14 C-840.15 624.43 -836.2 623.96 -832.12 623.7 C-825.88 623.23 -820.12 621.84 -814.12 620.14 C-813.09 619.87 -812.06 619.61 -811 619.33 C-799.23 616.08 -788.66 610.26 -778.76 603.17 C-777.12 602.14 -777.12 602.14 -775.12 602.14 C-775.12 601.48 -775.12 600.82 -775.12 600.14 C-773.66 598.63 -773.66 598.63 -771.74 597.01 C-771.12 596.48 -770.49 595.94 -769.85 595.38 C-768.12 594.14 -768.12 594.14 -766.12 594.14 C-766.12 593.48 -766.12 592.82 -766.12 592.14 C-764.74 590.51 -764.74 590.51 -763.12 589.14 C-762.46 589.14 -761.8 589.14 -761.12 589.14 C-760.89 588.62 -760.65 588.11 -760.42 587.58 C-759.01 584.94 -757.38 582.52 -755.69 580.06 C-751.5 573.97 -747.81 567.91 -744.63 561.21 C-741.75 555.37 -738.4 549.77 -735.12 544.14 C-734.46 544.14 -733.8 544.14 -733.12 544.14 C-733.01 543.56 -732.89 542.98 -732.77 542.38 C-732.06 539.95 -731.11 538.4 -729.64 536.35 C-729.14 535.64 -728.64 534.93 -728.12 534.2 C-727.58 533.46 -727.05 532.72 -726.49 531.95 C-725.68 530.82 -725.68 530.82 -724.85 529.66 C-715.44 516.58 -715.44 516.58 -713.12 514.14 C-712.46 514.14 -711.8 514.14 -711.12 514.14 C-710.75 513.3 -710.75 513.3 -710.37 512.45 C-708.89 509.71 -707.18 507.46 -705.12 505.14 C-704.46 505.14 -703.8 505.14 -703.12 505.14 C-702.79 504.15 -702.46 503.16 -702.12 502.14 C-701.46 502.14 -700.8 502.14 -700.12 502.14 C-700.12 501.48 -700.12 500.82 -700.12 500.14 C-698.51 498.55 -698.51 498.55 -696.37 496.76 C-694.05 494.8 -691.87 492.88 -689.74 490.7 C-688.12 489.14 -688.12 489.14 -686.12 489.14 C-686.12 488.48 -686.12 487.82 -686.12 487.14 C-684.28 485.55 -682.44 484.09 -680.49 482.64 C-679.92 482.2 -679.34 481.77 -678.75 481.32 C-676.88 479.92 -675 478.53 -673.12 477.14 C-672.48 476.66 -671.84 476.18 -671.18 475.69 C-669.29 474.29 -667.39 472.9 -665.49 471.51 C-664.9 471.08 -664.31 470.64 -663.7 470.19 C-659.47 467.14 -659.47 467.14 -656.12 467.14 C-656.12 466.48 -656.12 465.82 -656.12 465.14 C-654.03 463.97 -651.94 462.81 -649.84 461.65 C-647.95 460.6 -646.06 459.54 -644.18 458.47 C-643.21 457.93 -642.24 457.39 -641.24 456.83 C-640.34 456.31 -639.43 455.8 -638.5 455.28 C-636.12 454.14 -636.12 454.14 -633.12 454.14 C-633.12 453.48 -633.12 452.82 -633.12 452.14 C-632.5 451.9 -631.88 451.65 -631.25 451.4 C-626.99 449.72 -622.77 448 -618.62 446.08 C-614.7 444.31 -610.75 443.08 -606.62 441.92 C-604.19 441.16 -601.95 440.23 -599.62 439.2 C-593.28 436.56 -586.6 435.36 -579.9 433.97 C-576.33 433.35 -576.33 433.35 -574.12 432.14 C-570.86 431.43 -567.55 430.95 -564.25 430.46 C-562.75 430.23 -561.25 430 -559.75 429.75 C-532.98 425.46 -505.87 425.89 -479.12 430.14 C-478.09 430.3 -477.06 430.46 -476.01 430.62 C-470.61 431.48 -465.41 432.47 -460.18 434.08 C-455.6 435.45 -451.04 436.63 -446.37 437.64 C-441.54 438.72 -437.17 440.17 -432.63 442.12 C-429.93 443.22 -427.21 444.08 -424.43 444.95 C-418.87 446.76 -413.7 449.11 -408.44 451.63 C-404.06 453.72 -399.7 455.55 -395.12 457.14 C-388.32 451.41 -382.02 445.2 -375.73 438.93 C-374.59 437.8 -373.45 436.67 -372.3 435.54 C-369.19 432.44 -366.07 429.34 -362.96 426.24 C-360.28 423.58 -357.61 420.92 -354.93 418.26 C-329.55 393.03 -304.2 367.76 -278.87 342.49 C-275.57 339.2 -272.28 335.91 -268.98 332.62 C-267.75 331.4 -267.75 331.4 -266.5 330.15 C-253.23 316.92 -239.94 303.7 -226.65 290.49 C-212.98 276.92 -199.33 263.32 -185.71 249.71 C-178.06 242.07 -170.4 234.44 -162.73 226.84 C-156.19 220.36 -149.67 213.87 -143.17 207.35 C-139.86 204.03 -136.54 200.72 -133.2 197.43 C-130.13 194.41 -127.09 191.36 -124.07 188.3 C-122.97 187.21 -121.88 186.12 -120.77 185.04 C-112.24 176.74 -108.02 168.33 -104.12 157.14 C-103.59 155.7 -103.59 155.7 -103.05 154.23 C-102.31 152.21 -101.61 150.18 -100.93 148.14 C-99.23 143.19 -97.4 138.38 -95.18 133.64 C-93.34 129.3 -91.87 124.82 -90.33 120.37 C-88.78 115.9 -87.05 111.59 -85.05 107.3 C-83.48 103.66 -82.34 99.87 -81.11 96.1 C-79.96 92.66 -78.63 89.32 -77.25 85.97 C-75.81 82.38 -74.47 78.76 -73.12 75.14 C-70.87 69.1 -68.57 63.1 -66.12 57.14 C-65.48 55.52 -65.48 55.52 -64.82 53.88 C-60.87 44.21 -55.91 35.82 -50.12 27.14 C-49.46 27.14 -48.8 27.14 -48.12 27.14 C-47.72 26.18 -47.72 26.18 -47.31 25.2 C-46.12 23.14 -46.12 23.14 -43.12 22.14 C-42.79 21.15 -42.46 20.16 -42.12 19.14 C-41.46 19.14 -40.8 19.14 -40.12 19.14 C-40.12 18.48 -40.12 17.82 -40.12 17.14 C-37.88 15.41 -35.66 13.82 -33.31 12.26 C-32.29 11.59 -32.29 11.59 -31.26 10.9 C-26.41 7.76 -21.64 5.47 -16.1 3.76 C-14.14 3.31 -14.14 3.31 -13.12 2.14 C-10.79 1.81 -8.45 1.47 -6.12 1.14 C-4.41 -0.57 -2.27 0.01 0 0 Z " fill="#000000" transform="translate(1095.1190185546875,-0.138946533203125)"/>
<path d="M0 0 C0 0.66 0 1.32 0 2 C0.66 2 1.32 2 2 2 C0.33 6.29 -2.88 9.21 -6.05 12.42 C-6.99 13.38 -6.99 13.38 -7.95 14.37 C-10.06 16.52 -12.18 18.67 -14.29 20.82 C-15.8 22.36 -17.31 23.9 -18.82 25.45 C-32.64 39.54 -46.53 53.57 -60.44 67.58 C-70.7 77.94 -80.94 88.32 -91.13 98.74 C-98.31 106.07 -105.53 113.37 -112.77 120.64 C-117.09 124.98 -121.4 129.33 -125.66 133.73 C-129.68 137.87 -133.74 141.97 -137.84 146.03 C-139.33 147.52 -140.8 149.02 -142.26 150.55 C-152.88 161.66 -161.19 165 -176.51 165.79 C-202.59 168.03 -227.27 185.96 -244 205 C-246.88 208.54 -249.5 212.18 -252 216 C-252.53 216.8 -253.06 217.59 -253.61 218.41 C-270.33 244.82 -274.39 276.79 -268 307 C-263.46 326.88 -254.15 344.26 -240 359 C-238.73 360.33 -238.73 360.33 -237.44 361.69 C-236.23 362.83 -236.23 362.83 -235 364 C-234.48 364.51 -233.95 365.01 -233.41 365.54 C-212.02 385.35 -183.55 395.38 -154.75 395.31 C-153.45 395.33 -152.14 395.34 -150.8 395.36 C-123.28 395.37 -97.31 384.95 -77.25 366.08 C-75 364 -75 364 -72.55 362.15 C-69.41 359.51 -67.05 356.56 -64.56 353.31 C-64.08 352.69 -63.6 352.06 -63.1 351.41 C-61.72 349.62 -60.36 347.81 -59 346 C-58.41 345.21 -57.81 344.42 -57.2 343.61 C-47.37 329.73 -41.06 312.01 -39.68 295.11 C-39.62 294.41 -39.56 293.71 -39.49 292.99 C-39.32 290.97 -39.18 288.95 -39.05 286.93 C-37.14 276.78 -23.32 267.19 -16.25 260.14 C-14.75 258.64 -13.25 257.14 -11.76 255.64 C-7.71 251.59 -3.65 247.54 0.4 243.5 C4.65 239.26 8.89 235.02 13.13 230.78 C21.15 222.76 29.18 214.74 37.2 206.73 C46.34 197.6 55.48 188.46 64.62 179.33 C83.41 160.55 102.2 141.77 121 123 C124 124 124 124 125.39 126.42 C145.74 174.19 147.33 229.87 131 279 C130.64 280.08 130.29 281.16 129.92 282.27 C125.07 295.83 117.74 308.89 110 321 C109.42 321.93 108.84 322.85 108.25 323.8 C100.7 335.55 91.67 345.49 81.88 355.38 C81.14 356.12 80.4 356.87 79.63 357.65 C74.72 362.53 69.57 366.87 64 371 C63.16 371.63 62.32 372.25 61.46 372.9 C51.54 379.92 41.09 385.97 30.31 391.56 C3.9 405.36 -17.85 426.36 -33 452 C-33.62 453.01 -34.25 454.03 -34.89 455.07 C-39.61 463.23 -42.82 471.63 -45.81 480.56 C-46.19 481.67 -46.56 482.78 -46.94 483.93 C-50.95 496.29 -53.21 508.53 -54.53 521.44 C-57.79 552.48 -65.7 582.17 -80 610 C-80.55 611.08 -80.55 611.08 -81.12 612.19 C-96.35 641.67 -119.03 668.58 -146 688 C-147.06 688.77 -148.13 689.55 -149.23 690.35 C-191.73 720.5 -240.39 734.21 -292.19 734.25 C-293.44 734.25 -293.44 734.25 -294.73 734.25 C-309 734.23 -322.91 733.42 -337 731 C-338.02 730.83 -339.04 730.66 -340.08 730.48 C-363.21 726.47 -385.27 719.8 -407 711 C-407.65 710.74 -408.29 710.49 -408.96 710.22 C-443.07 696.67 -475.44 674.84 -502.11 649.71 C-504.41 647.56 -506.73 645.48 -509.12 643.44 C-517.03 636.59 -524.25 628.98 -531 621 C-532.18 619.66 -532.18 619.66 -533.38 618.29 C-571.41 574.62 -595.53 521.74 -606 465 C-606.18 464.07 -606.36 463.13 -606.54 462.17 C-611.78 433.86 -611.91 400.2 -606 372 C-605.8 371.03 -605.6 370.05 -605.4 369.05 C-595.87 323.49 -576.35 282.68 -544 249 C-543.51 248.49 -543.03 247.98 -542.53 247.46 C-527.97 232.34 -510.93 218.27 -492 209 C-490.69 208.34 -489.37 207.68 -488.06 207.01 C-484.7 205.32 -481.33 203.63 -477.95 201.97 C-476.64 201.32 -475.35 200.66 -474.05 199.99 C-449.17 187.13 -419.94 181.93 -392.38 178.91 C-380.54 177.61 -369.35 175.63 -358 172 C-357.32 171.79 -356.64 171.57 -355.95 171.35 C-333.99 164.19 -314.6 151.95 -298 136 C-297.5 135.53 -297.01 135.07 -296.49 134.59 C-283.74 122.61 -274.32 109.36 -266 94 C-254.77 73.4 -254.77 73.4 -248 64 C-247.26 62.96 -246.52 61.93 -245.76 60.86 C-233.46 44.16 -218.06 29.71 -201 18 C-200.15 17.39 -199.31 16.78 -198.43 16.16 C-193.64 12.8 -188.59 10.16 -183.32 7.62 C-181.03 6.5 -178.77 5.33 -176.52 4.12 C-123.26 -24.42 -54.79 -23.94 0 0 Z " fill="#FDF3A2" transform="translate(659,495)"/>
<path d="M0 0 C3.55 2.88 6.74 6.07 9.94 9.33 C10.89 10.27 11.84 11.21 12.79 12.15 C15.34 14.69 17.87 17.24 20.4 19.8 C23.07 22.48 25.75 25.15 28.42 27.83 C32.91 32.32 37.39 36.82 41.87 41.33 C47.02 46.52 52.19 51.7 57.37 56.87 C62.37 61.87 67.37 66.87 72.36 71.88 C74.47 74 76.59 76.12 78.71 78.24 C81.21 80.74 83.7 83.24 86.18 85.75 C87.52 87.1 88.86 88.44 90.21 89.78 C98.64 98.32 104.47 105.69 105.25 117.94 C104.91 127.06 102.57 133.44 96 140 C91.3 143.48 86.53 145.55 81.07 147.59 C80.18 147.93 79.3 148.26 78.38 148.61 C75.45 149.73 72.5 150.83 69.56 151.94 C67.48 152.73 65.41 153.51 63.33 154.3 C58.89 155.99 54.45 157.67 50.01 159.35 C39.23 163.42 28.47 167.54 17.71 171.65 C13.2 173.38 8.68 175.1 4.17 176.82 C0.95 178.05 -2.27 179.28 -5.49 180.52 C-10.01 182.24 -14.54 183.96 -19.06 185.67 C-21.38 186.55 -23.7 187.43 -26.01 188.31 C-27.07 188.71 -28.12 189.11 -29.21 189.51 C-30.72 190.09 -30.72 190.09 -32.26 190.68 C-33.13 191 -34 191.33 -34.89 191.67 C-43.08 195.17 -49.48 198.74 -55.76 205.11 C-56.46 205.81 -57.17 206.5 -57.89 207.22 C-60.2 209.5 -62.48 211.8 -64.77 214.11 C-66.38 215.71 -67.99 217.32 -69.6 218.92 C-72.96 222.28 -76.32 225.64 -79.67 229.02 C-83.95 233.32 -88.25 237.61 -92.55 241.88 C-95.88 245.19 -99.19 248.51 -102.51 251.84 C-104.09 253.42 -105.67 255 -107.26 256.58 C-109.48 258.79 -111.69 261.01 -113.89 263.24 C-114.54 263.88 -115.19 264.52 -115.86 265.18 C-121.53 270.99 -126.58 278.53 -127.21 286.86 C-126.55 293.67 -123 299.99 -120 306 C-133.86 319.86 -147.72 333.72 -162 348 C-160.68 349.65 -159.36 351.3 -158 353 C-154 358.78 -155.24 368.32 -156 375 C-157.06 378.42 -158.48 380.49 -161 383 C-161.89 383.95 -161.89 383.95 -162.8 384.91 C-168.32 390.28 -173.8 392.37 -181.31 393.5 C-186.95 392.74 -191.86 390.36 -197 388 C-197 387.34 -197 386.68 -197 386 C-200.77 386.57 -202.44 388.1 -205.06 390.8 C-205.85 391.61 -206.64 392.41 -207.45 393.24 C-208.29 394.11 -209.13 394.98 -210 395.88 C-211.79 397.71 -213.58 399.53 -215.38 401.36 C-218.2 404.24 -221.02 407.14 -223.83 410.04 C-226.54 412.83 -229.27 415.61 -232 418.38 C-232.84 419.26 -233.68 420.14 -234.55 421.04 C-235.73 422.24 -235.73 422.24 -236.94 423.46 C-237.63 424.17 -238.32 424.88 -239.03 425.61 C-241 427 -241 427 -243.04 426.85 C-245.58 425.75 -247.89 424.32 -250.28 422.92 C-255.17 420.3 -261.12 420.22 -266.39 421.65 C-276.86 425.41 -284.04 433.89 -291.76 441.64 C-292.72 442.6 -293.68 443.56 -294.64 444.52 C-297.27 447.14 -299.89 449.77 -302.51 452.4 C-305.35 455.24 -308.19 458.07 -311.02 460.91 C-315.93 465.82 -320.84 470.73 -325.75 475.64 C-332.85 482.75 -339.95 489.85 -347.05 496.95 C-358.57 508.48 -370.09 520.01 -381.61 531.54 C-392.8 542.73 -403.98 553.92 -415.17 565.11 C-415.86 565.8 -416.55 566.49 -417.26 567.2 C-420.72 570.67 -424.18 574.13 -427.64 577.59 C-454.33 604.29 -481.02 631 -507.71 657.7 C-508.51 658.51 -509.32 659.32 -510.15 660.15 C-510.85 660.85 -511.55 661.55 -512.27 662.27 C-513.52 663.51 -514.76 664.76 -516 666 C-516 665.01 -516 664.02 -516 663 C-516.99 662.67 -517.98 662.34 -519 662 C-520.59 659.76 -522.05 657.52 -523.5 655.19 C-528.33 647.69 -533.71 641.29 -540 635 C-540.89 634.11 -541.77 633.23 -542.68 632.32 C-549.24 626.07 -556.17 621.46 -564 617 C-562.64 613.98 -561.13 611.88 -558.79 609.54 C-558.12 608.87 -557.45 608.2 -556.77 607.51 C-555.66 606.42 -555.66 606.42 -554.54 605.3 C-553.75 604.52 -552.97 603.73 -552.17 602.92 C-549.52 600.28 -546.87 597.64 -544.22 595 C-542.31 593.09 -540.4 591.18 -538.49 589.27 C-534.33 585.11 -530.17 580.96 -526 576.81 C-519.81 570.63 -513.62 564.45 -507.43 558.27 C-497.02 547.87 -486.61 537.47 -476.2 527.08 C-461.97 512.88 -447.75 498.68 -433.54 484.47 C-426.92 477.86 -420.29 471.24 -413.67 464.63 C-413.01 463.97 -412.35 463.3 -411.67 462.62 C-395.88 446.85 -380.1 431.09 -364.31 415.32 C-363.62 414.63 -362.93 413.94 -362.22 413.23 C-346.1 397.14 -329.98 381.04 -313.86 364.95 C-308.26 359.36 -302.67 353.78 -297.08 348.2 C-296.39 347.51 -295.7 346.82 -294.99 346.11 C-279.24 330.38 -263.48 314.65 -247.74 298.92 C-247.07 298.26 -246.41 297.6 -245.73 296.91 C-239.12 290.31 -232.52 283.71 -225.91 277.11 C-222.66 273.86 -219.41 270.61 -216.16 267.36 C-215.52 266.72 -214.88 266.08 -214.22 265.43 C-203.92 255.13 -193.61 244.84 -183.3 234.56 C-172.94 224.22 -162.58 213.88 -152.23 203.53 C-146.08 197.38 -139.93 191.24 -133.77 185.1 C-129.65 181 -125.54 176.9 -121.44 172.79 C-119.1 170.44 -116.76 168.11 -114.41 165.77 C-111.88 163.26 -109.36 160.73 -106.84 158.2 C-106.11 157.48 -105.38 156.76 -104.63 156.02 C-98.13 149.46 -93.93 142.68 -90.83 134.02 C-90.55 133.26 -90.27 132.5 -89.98 131.72 C-89.38 130.09 -88.78 128.46 -88.19 126.82 C-86.55 122.33 -84.89 117.85 -83.23 113.37 C-82.88 112.44 -82.53 111.5 -82.18 110.54 C-78.09 99.51 -73.83 88.55 -69.57 77.59 C-65.42 66.93 -61.33 56.26 -57.36 45.53 C-56.59 43.47 -55.82 41.4 -55.05 39.34 C-53.59 35.41 -52.14 31.49 -50.71 27.55 C-50.04 25.76 -49.37 23.97 -48.71 22.18 C-48.42 21.38 -48.13 20.58 -47.84 19.76 C-44.13 9.89 -38.29 0.66 -28.44 -3.88 C-18.17 -7.19 -8.98 -5.52 0 0 Z " fill="#B66A58" transform="translate(1124,55)"/>
<path d="M0 0 C10.42 8.01 19.57 17.53 28.86 26.79 C30.31 28.24 31.77 29.68 33.22 31.13 C37.97 35.85 42.7 40.57 47.44 45.29 C49.08 46.93 50.72 48.56 52.36 50.2 C59.18 57 66.01 63.8 72.82 70.61 C82.56 80.32 92.3 90.03 102.05 99.72 C108.93 106.57 115.8 113.42 122.66 120.28 C126.75 124.36 130.84 128.44 134.95 132.51 C138.81 136.34 142.66 140.19 146.5 144.04 C147.9 145.44 149.31 146.84 150.72 148.24 C165.06 162.41 176.41 176.71 177.21 197.68 C177.14 209.41 173.22 221.76 164.69 230.19 C164.1 230.71 163.51 231.23 162.91 231.77 C161.13 233.36 159.66 235.04 158.12 236.88 C150.8 245.36 142.69 253.42 134.09 260.61 C132.07 262.36 132.07 262.36 129.98 264.7 C122.71 272.56 113.05 279.6 101.98 280.49 C81.55 281.01 81.55 281.01 72.19 276.31 C71.38 275.94 70.57 275.57 69.74 275.19 C58.41 269.39 50.2 259.83 41.44 250.81 C38.96 248.29 36.49 245.77 34.01 243.25 C32.48 241.69 30.95 240.13 29.43 238.57 C26.09 235.15 22.73 231.87 19.1 228.78 C15.76 225.92 12.95 222.84 10.1 219.49 C6.23 215.08 2 211 -2.16 206.86 C-3.15 205.88 -4.14 204.89 -5.12 203.91 C-7.7 201.33 -10.28 198.76 -12.86 196.19 C-15.48 193.58 -18.1 190.97 -20.72 188.36 C-25.33 183.76 -29.94 179.16 -34.55 174.57 C-36.11 173.01 -37.67 171.45 -39.23 169.89 C-42.06 167.07 -44.92 164.26 -47.78 161.46 C-53.64 155.71 -59.49 149.94 -65.33 144.16 C-68.85 140.67 -72.38 137.19 -75.92 133.73 C-79.37 130.36 -82.8 126.97 -86.21 123.58 C-87.51 122.3 -88.81 121.02 -90.11 119.75 C-102.26 107.95 -110.4 95.99 -111.12 78.5 C-110.51 54.02 -93.93 40.21 -77.87 24.08 C-76.21 22.4 -74.54 20.71 -72.88 19.02 C-70.45 16.55 -68.01 14.1 -65.57 11.64 C-64.84 10.89 -64.11 10.15 -63.36 9.38 C-46.89 -7.03 -20.61 -13.07 0 0 Z " fill="#000000" transform="translate(245.8125,862.6875)"/>
<path d="M0 0 C1.83 -0.03 1.83 -0.03 3.7 -0.06 C14.92 -0.11 24.79 1.77 34.75 7 C35.43 7.35 36.1 7.69 36.8 8.05 C42.21 10.89 46.93 14.27 51.56 18.25 C52.3 18.77 53.04 19.29 53.8 19.82 C54.38 20.29 54.96 20.77 55.56 21.25 C55.56 21.91 55.56 22.57 55.56 23.25 C56.55 23.58 57.54 23.91 58.56 24.25 C58.56 24.91 58.56 25.57 58.56 26.25 C59.22 26.25 59.88 26.25 60.56 26.25 C68.71 35.14 77.34 46.37 76.93 58.95 C76.28 63.06 74.48 66.59 72.56 70.25 C71.89 71.58 71.23 72.92 70.56 74.25 C69.9 74.25 69.24 74.25 68.56 74.25 C68.56 74.91 68.56 75.57 68.56 76.25 C62.63 81.76 56.17 83.02 48.33 82.82 C39.77 82.31 34.93 79.25 29.17 73.12 C22.56 65.42 22.56 65.42 22.56 62.25 C21.57 61.92 20.58 61.59 19.56 61.25 C19.56 60.59 19.56 59.93 19.56 59.25 C18.39 58.82 18.39 58.82 17.19 58.38 C14.56 57.25 14.56 57.25 12.56 55.25 C8.94 53.51 5.74 52.91 1.75 52.62 C0.77 52.55 -0.2 52.48 -1.21 52.4 C-1.94 52.35 -2.68 52.3 -3.44 52.25 C-3.5 53.15 -3.56 54.06 -3.62 54.99 C-3.7 56.17 -3.79 57.35 -3.88 58.56 C-4 60.32 -4 60.32 -4.12 62.11 C-4.44 65.25 -4.44 65.25 -5.44 68.25 C-5.74 71.34 -5.95 74.44 -6.16 77.54 C-6.44 80.25 -6.44 80.25 -7.44 82.25 C-7.81 84.73 -8.14 87.2 -8.44 89.69 C-9.31 96.85 -9.31 96.85 -10.44 100.25 C-10.62 101.89 -10.76 103.54 -10.88 105.19 C-11.52 112.81 -12.7 120.31 -14.5 127.75 C-15.59 132.38 -15.89 137.01 -16.19 141.75 C-16.44 144.25 -16.44 144.25 -17.44 146.25 C-17.81 148.73 -18.14 151.2 -18.44 153.69 C-19.31 160.85 -19.31 160.85 -20.44 164.25 C-20.62 165.89 -20.76 167.54 -20.88 169.19 C-21.58 177.54 -23.04 185.7 -24.95 193.86 C-25.53 196.72 -25.92 199.6 -26.31 202.5 C-29.71 224.77 -40.89 241.79 -58.12 255.74 C-60.44 257.25 -60.44 257.25 -63.44 257.25 C-63.44 257.91 -63.44 258.57 -63.44 259.25 C-76.63 266.87 -89.2 269.7 -104.31 269.75 C-105.44 269.76 -106.57 269.76 -107.73 269.77 C-122.53 269.55 -135.46 264.75 -147.44 256.25 C-148.51 255.57 -149.58 254.89 -150.69 254.19 C-153.64 252.11 -155.95 249.86 -158.44 247.25 C-158.96 246.78 -159.48 246.31 -160.02 245.83 C-174.61 232.47 -180.76 213.06 -182.66 193.98 C-183.23 180.43 -178.69 165.12 -172.44 153.25 C-171.78 153.25 -171.12 153.25 -170.44 153.25 C-170.34 152.68 -170.25 152.12 -170.15 151.53 C-169.27 148.73 -167.91 147.03 -166.06 144.75 C-165.15 143.62 -165.15 143.62 -164.23 142.47 C-163.64 141.74 -163.05 141 -162.44 140.25 C-161.91 139.5 -161.38 138.74 -160.84 137.97 C-160.37 137.4 -159.91 136.83 -159.44 136.25 C-158.78 136.25 -158.12 136.25 -157.44 136.25 C-157.11 135.26 -156.78 134.27 -156.44 133.25 C-154.35 131.51 -152.28 129.93 -150.06 128.38 C-149.43 127.93 -148.8 127.48 -148.15 127.03 C-142.85 123.37 -137.46 120.54 -131.44 118.25 C-130.68 117.96 -129.92 117.66 -129.14 117.36 C-109.9 110.41 -90.09 112.44 -71.44 120.25 C-70.1 120.9 -68.76 121.56 -67.44 122.25 C-67.26 120.89 -67.26 120.89 -67.07 119.5 C-65.54 108.34 -65.54 108.34 -64.38 103.62 C-63.27 99.04 -62.98 94.45 -62.68 89.75 C-62.44 87.25 -62.44 87.25 -61.44 85.25 C-61.07 82.77 -60.74 80.3 -60.44 77.81 C-59.57 70.65 -59.57 70.65 -58.44 67.25 C-58.28 65.69 -58.16 64.13 -58.06 62.56 C-56.32 42.34 -51.29 23.93 -35.44 10.25 C-29.7 5.79 -23.28 3.51 -16.44 1.25 C-11.15 -0.51 -5.53 0.02 0 0 Z " fill="#000000" transform="translate(1129.4375,788.75)"/>
<path d="M0 0 C6.91 5.18 9.62 10.87 11.45 19.28 C11.82 23.99 11.19 28.18 10.38 32.81 C10.24 33.66 10.1 34.51 9.95 35.39 C9.39 38.73 8.82 41.84 7.75 45.06 C7.45 47.89 7.24 50.73 7.03 53.57 C6.75 56.06 6.75 56.06 5.75 58.06 C5.38 60.54 5.05 63.01 4.75 65.5 C3.88 72.67 3.88 72.67 2.75 76.06 C2.45 78.89 2.24 81.73 2.03 84.57 C1.75 87.06 1.75 87.06 0.75 89.06 C0.38 91.54 0.05 94.01 -0.25 96.5 C-1.12 103.67 -1.12 103.67 -2.25 107.06 C-2.55 109.89 -2.76 112.73 -2.97 115.57 C-3.25 118.06 -3.25 118.06 -4.25 120.06 C-4.62 122.56 -4.95 125.05 -5.25 127.56 C-6.11 134.79 -6.11 134.79 -7.25 137.06 C-7.43 138.68 -7.57 140.31 -7.69 141.94 C-8.32 149.42 -9.33 156.87 -11.31 164.12 C-12.1 167.1 -12.46 169.93 -12.69 173 C-14.25 192.37 -18.69 212.71 -31.25 228.06 C-31.91 228.06 -32.57 228.06 -33.25 228.06 C-33.52 228.83 -33.79 229.59 -34.06 230.38 C-35.2 232.95 -36.06 234.33 -38.25 236.06 C-38.91 236.06 -39.57 236.06 -40.25 236.06 C-40.25 236.72 -40.25 237.38 -40.25 238.06 C-43.71 241.06 -43.71 241.06 -46.25 241.06 C-46.25 241.72 -46.25 242.38 -46.25 243.06 C-62.01 252.42 -62.01 252.42 -70.25 255.06 C-71.17 255.36 -72.1 255.66 -73.05 255.96 C-91.57 261.07 -111.17 258.57 -128.25 250.06 C-132.03 247.88 -135.65 245.53 -139.25 243.06 C-139.96 242.58 -140.66 242.1 -141.39 241.61 C-144.24 239.62 -146.94 237.67 -149.25 235.06 C-149.25 234.4 -149.25 233.74 -149.25 233.06 C-149.91 233.06 -150.57 233.06 -151.25 233.06 C-153.12 230.66 -154.86 228.27 -156.56 225.75 C-157.31 224.66 -157.31 224.66 -158.07 223.55 C-161.8 217.97 -164.86 212.35 -167.25 206.06 C-167.64 205.07 -168.03 204.08 -168.44 203.06 C-172.49 188.11 -172.75 172.95 -168.25 158.06 C-167.95 157.02 -167.65 155.98 -167.34 154.91 C-165.35 148.49 -162.78 142.79 -159.25 137.06 C-158.59 137.06 -157.93 137.06 -157.25 137.06 C-157 136.34 -156.75 135.62 -156.5 134.88 C-155.13 131.79 -153.53 129.55 -151.25 127.06 C-150.59 127.06 -149.93 127.06 -149.25 127.06 C-148.98 126.42 -148.71 125.78 -148.44 125.12 C-147.25 123.06 -147.25 123.06 -144.25 122.06 C-144.25 121.4 -144.25 120.74 -144.25 120.06 C-135.51 112.54 -125.37 107.07 -114.25 104.06 C-113.63 103.89 -113.02 103.72 -112.38 103.55 C-106.05 101.95 -99.95 101.72 -93.44 101.75 C-92.37 101.75 -91.31 101.76 -90.22 101.76 C-82.87 101.87 -76.18 102.46 -69.25 105.06 C-68.32 105.41 -67.39 105.76 -66.43 106.12 C-64.71 106.79 -63 107.48 -61.31 108.2 C-59.65 108.89 -57.96 109.49 -56.25 110.06 C-56.15 109.14 -56.05 108.22 -55.95 107.27 C-55.04 99.33 -53.82 91.57 -52.19 83.75 C-50.95 77.84 -49.98 72.13 -49.59 66.09 C-49.09 61.69 -48.15 57.4 -47.25 53.06 C-45.98 46.97 -44.95 41.05 -44.52 34.84 C-43.41 23.33 -41.6 10.69 -33.25 2.06 C-32.59 2.06 -31.93 2.06 -31.25 2.06 C-31.25 1.4 -31.25 0.74 -31.25 0.06 C-21.05 -7.35 -10.19 -6.07 0 0 Z " fill="#000000" transform="translate(411.25,89.9375)"/>
<path d="M0 0 C15.98 12.45 26.76 28.87 29.69 49.12 C29.79 50.4 29.89 51.68 30 53 C30.08 53.96 30.08 53.96 30.16 54.93 C30.93 72.76 24.21 88.73 12.81 102.06 C1.06 114.81 -13.64 122.32 -30.93 123.39 C-51.36 124.09 -67.36 118.44 -83 105 C-84.02 104.15 -84.02 104.15 -85.05 103.27 C-96.67 92.67 -103.13 76.57 -104.2 61.06 C-104.47 43.84 -99.6 28.57 -89 15 C-88.49 14.31 -87.98 13.63 -87.45 12.92 C-79.75 3.25 -68.56 -3.08 -57 -7 C-56.08 -7.32 -55.16 -7.64 -54.21 -7.96 C-36.18 -13.35 -15.76 -10.19 0 0 Z " fill="#59A2FD" transform="translate(541,718)"/>
<path d="M0 0 C4.22 1.65 7.05 4.78 10.18 7.94 C11.1 8.86 11.1 8.86 12.04 9.8 C14.11 11.86 16.17 13.93 18.22 16 C19.7 17.48 21.18 18.95 22.66 20.43 C26.68 24.45 30.69 28.47 34.69 32.49 C38.88 36.69 43.08 40.89 47.28 45.09 C55.22 53.04 63.16 60.99 71.1 68.95 C80.13 78.01 89.17 87.06 98.21 96.11 C116.82 114.74 135.41 133.37 154 152 C152.61 154.88 151.29 156.95 149.02 159.21 C148.12 160.11 148.12 160.11 147.2 161.03 C146.55 161.66 145.91 162.3 145.24 162.95 C144.58 163.61 143.92 164.27 143.23 164.95 C141.12 167.06 139 169.15 136.88 171.25 C135.44 172.68 134 174.1 132.57 175.53 C129.05 179.03 125.53 182.51 122 186 C117.78 184.35 114.95 181.22 111.82 178.06 C111.21 177.45 110.59 176.84 109.96 176.2 C107.89 174.14 105.83 172.07 103.78 170 C102.3 168.52 100.82 167.05 99.34 165.57 C95.32 161.55 91.31 157.53 87.31 153.51 C83.12 149.31 78.92 145.11 74.72 140.91 C66.78 132.96 58.84 125.01 50.9 117.05 C41.87 107.99 32.83 98.94 23.79 89.89 C5.18 71.26 -13.41 52.63 -32 34 C-30.61 31.12 -29.29 29.05 -27.02 26.79 C-26.42 26.19 -25.82 25.59 -25.2 24.97 C-24.55 24.34 -23.91 23.7 -23.24 23.05 C-22.58 22.39 -21.92 21.73 -21.23 21.05 C-19.12 18.94 -17 16.85 -14.88 14.75 C-13.44 13.32 -12 11.9 -10.57 10.47 C-7.05 6.97 -3.53 3.49 0 0 Z " fill="#FDF3A2" transform="translate(218,907)"/>
<path d="M0 0 C6.91 3.85 12.14 10.77 14.37 18.31 C15.82 25.24 15.32 32.24 11.81 38.44 C7.28 44.98 2.24 49.25 -5.6 50.96 C-15.23 52.29 -22.17 50.23 -29.95 44.45 C-34.55 40.31 -37.85 35.08 -38.43 28.84 C-38.68 18.65 -36.19 11.7 -29.26 4.16 C-25.68 1.18 -21.6 -0.2 -17.19 -1.56 C-11.57 -3.43 -5.37 -2.37 0 0 Z " fill="#59A2FD" transform="translate(329.1875,244.5625)"/>
<path d="M0 0 C7.36 4.07 12.63 9.96 14.98 18.09 C15.83 25.23 16.33 32.97 12.45 39.32 C7.36 45.47 1.91 50.52 -6.22 51.46 C-14.45 51.62 -20.15 50.69 -27.02 46.09 C-27.92 45.52 -27.92 45.52 -28.83 44.93 C-34.09 41.08 -36.7 35.33 -38.02 29.09 C-38.82 21.28 -36.17 13.43 -31.4 7.22 C-23.48 -1.21 -10.7 -4.6 0 0 Z " fill="#59A2FD" transform="translate(1036.0234375,954.90625)"/>
<path d="M0 0 C0.5 0.99 0.5 0.99 1 2 C1.99 2.33 2.98 2.66 4 3 C9.45 8.95 9.71 14.67 9.59 22.42 C9.3 28.43 8.38 32.64 4 37 C3.41 37.63 2.81 38.26 2.2 38.91 C-3.32 44.28 -8.8 46.37 -16.31 47.5 C-21.95 46.74 -26.86 44.36 -32 42 C-32 41.34 -32 40.68 -32 40 C-32.99 39.67 -33.98 39.34 -35 39 C-35 38.01 -35 37.02 -35 36 C-35.66 36 -36.32 36 -37 36 C-41.2 29.08 -43.57 23.13 -42 15 C-38.9 6.54 -35.17 0.82 -26.94 -3.19 C-26.29 -3.51 -25.64 -3.83 -24.96 -4.17 C-16.13 -7.91 -7.78 -4.95 0 0 Z " fill="#000000" transform="translate(959,401)"/>
</svg>
