<?xml version="1.0" encoding="UTF-8"?>
<!-- Generator: visioncortex VTracer 0.6.3 -->
<svg version="1.1" xmlns="http://www.w3.org/2000/svg" width="1280" height="1280">
<path d="M0 0 C3.88 1.59 6.33 4.08 9.27 7.03 C9.79 7.54 10.31 8.06 10.85 8.6 C12.6 10.35 14.35 12.1 16.1 13.86 C17.36 15.12 18.63 16.39 19.89 17.65 C23.38 21.13 26.86 24.62 30.33 28.1 C34.08 31.86 37.84 35.61 41.59 39.36 C48.09 45.87 54.59 52.37 61.09 58.88 C70.49 68.29 79.89 77.7 89.29 87.1 C104.54 102.36 119.79 117.62 135.04 132.89 C149.85 147.72 164.67 162.55 179.48 177.37 C180.4 178.29 181.31 179.2 182.25 180.14 C186.83 184.72 191.41 189.31 195.99 193.89 C234 231.92 272 269.96 310 308 C308.66 310.79 307.47 312.75 305.17 314.84 C304.62 315.35 304.07 315.85 303.5 316.37 C302.92 316.89 302.34 317.41 301.75 317.94 C301.19 318.45 300.63 318.96 300.05 319.49 C298.38 321.01 296.69 322.51 295 324 C294.44 324.49 293.88 324.99 293.31 325.49 C289.24 329 289.24 329 287 329 C287 329.66 287 330.32 287 331 C285.51 332.35 283.96 333.63 282.38 334.88 C277.83 338.51 273.35 342.21 268.94 346 C268.34 346.51 267.75 347.02 267.13 347.55 C263.65 350.55 260.21 353.59 256.81 356.69 C242.76 369.41 242.76 369.41 238 371 C238 371.66 238 372.32 238 373 C236.31 374.56 234.54 376.05 232.75 377.5 C231.78 378.29 230.8 379.09 229.8 379.91 C227.55 381.59 225.55 382.88 223 384 C223 384.66 223 385.32 223 386 C217.52 391 217.52 391 215 391 C215 391.66 215 392.32 215 393 C213.14 394.69 213.14 394.69 210.69 396.56 C209.49 397.49 209.49 397.49 208.26 398.44 C206 400 206 400 203 401 C203 401.66 203 402.32 203 403 C201.31 404.56 199.54 406.05 197.75 407.5 C196.78 408.29 195.8 409.09 194.8 409.91 C192.55 411.59 190.55 412.88 188 414 C188 414.66 188 415.32 188 416 C182.52 421 182.52 421 180 421 C180 421.66 180 422.32 180 423 C177.88 424.95 177.88 424.95 175.12 427.12 C174.22 427.85 173.32 428.57 172.38 429.32 C170 431 170 431 168 431 C168 431.66 168 432.32 168 433 C166.31 434.56 164.54 436.05 162.75 437.5 C161.78 438.29 160.8 439.09 159.8 439.91 C157.55 441.59 155.55 442.88 153 444 C153 444.66 153 445.32 153 446 C147.52 451 147.52 451 145 451 C145 451.66 145 452.32 145 453 C142.88 454.95 142.88 454.95 140.12 457.12 C139.22 457.85 138.32 458.57 137.38 459.32 C135 461 135 461 133 461 C132.67 461.99 132.34 462.98 132 464 C131.34 464 130.68 464 130 464 C130 464.66 130 465.32 130 466 C128.14 467.69 128.14 467.69 125.69 469.56 C124.49 470.49 124.49 470.49 123.26 471.44 C121 473 121 473 118 474 C118 474.66 118 475.32 118 476 C112.52 481 112.52 481 110 481 C110 481.66 110 482.32 110 483 C107.88 484.95 107.88 484.95 105.12 487.12 C104.22 487.85 103.32 488.57 102.38 489.32 C100 491 100 491 98 491 C97.67 491.99 97.34 492.98 97 494 C96.34 494 95.68 494 95 494 C95 494.66 95 495.32 95 496 C92.88 497.95 92.88 497.95 90.12 500.12 C89.22 500.85 88.32 501.57 87.38 502.32 C85 504 85 504 83 504 C83 504.66 83 505.32 83 506 C77.52 511 77.52 511 75 511 C75 511.66 75 512.32 75 513 C72.88 514.95 72.88 514.95 70.12 517.12 C69.22 517.85 68.32 518.57 67.38 519.32 C65 521 65 521 63 521 C62.67 521.99 62.34 522.98 62 524 C61.34 524 60.68 524 60 524 C60 524.66 60 525.32 60 526 C57.88 527.95 57.88 527.95 55.12 530.12 C54.22 530.85 53.32 531.57 52.38 532.32 C50 534 50 534 48 534 C48 534.66 48 535.32 48 536 C42.52 541 42.52 541 40 541 C40 541.66 40 542.32 40 543 C38.31 544.56 36.54 546.05 34.75 547.5 C33.78 548.29 32.8 549.09 31.8 549.91 C29.55 551.59 27.55 552.88 25 554 C25 554.66 25 555.32 25 556 C23.37 557.48 21.67 558.88 19.94 560.25 C16.54 562.96 13.19 565.68 9.94 568.56 C7 571 7 571 5 571 C5 571.66 5 572.32 5 573 C3.31 574.56 1.54 576.05 -0.25 577.5 C-1.22 578.29 -2.2 579.09 -3.2 579.91 C-5.45 581.59 -7.45 582.88 -10 584 C-10 584.66 -10 585.32 -10 586 C-15.48 591 -15.48 591 -18 591 C-18 591.66 -18 592.32 -18 593 C-19.86 594.69 -19.86 594.69 -22.31 596.56 C-23.11 597.18 -23.91 597.8 -24.74 598.44 C-27 600 -27 600 -30 601 C-30 601.66 -30 602.32 -30 603 C-31.69 604.56 -33.46 606.05 -35.25 607.5 C-36.22 608.29 -37.2 609.09 -38.2 609.91 C-40.45 611.59 -42.45 612.88 -45 614 C-45 614.66 -45 615.32 -45 616 C-50.48 621 -50.48 621 -53 621 C-53 621.66 -53 622.32 -53 623 C-57.47 627 -57.47 627 -60 627 C-60 627.66 -60 628.32 -60 629 C-61.65 629.66 -63.3 630.32 -65 631 C-65 631.66 -65 632.32 -65 633 C-66.69 634.56 -68.46 636.05 -70.25 637.5 C-71.22 638.29 -72.2 639.09 -73.2 639.91 C-75.45 641.59 -77.45 642.88 -80 644 C-80 644.66 -80 645.32 -80 646 C-85.48 651 -85.48 651 -88 651 C-88 651.66 -88 652.32 -88 653 C-92.47 657 -92.47 657 -95 657 C-95 657.66 -95 658.32 -95 659 C-95.8 659.27 -96.61 659.54 -97.44 659.81 C-98.28 660.2 -99.13 660.6 -100 661 C-100.33 661.99 -100.66 662.98 -101 664 C-101.66 664 -102.32 664 -103 664 C-103 664.66 -103 665.32 -103 666 C-105.12 667.95 -105.12 667.95 -107.88 670.12 C-108.78 670.85 -109.68 671.57 -110.62 672.32 C-113 674 -113 674 -115 674 C-115 674.66 -115 675.32 -115 676 C-116.57 677.41 -118.21 678.76 -119.88 680.06 C-124.78 683.97 -129.42 688.06 -134 692.35 C-136 694 -136 694 -138 694 C-138 694.66 -138 695.32 -138 696 C-140.12 697.95 -140.12 697.95 -142.88 700.12 C-143.78 700.85 -144.68 701.57 -145.62 702.32 C-148 704 -148 704 -150 704 C-150 704.66 -150 705.32 -150 706 C-151.57 707.41 -153.21 708.76 -154.88 710.06 C-159.78 713.97 -164.42 718.06 -169 722.35 C-171 724 -171 724 -173 724 C-173 724.66 -173 725.32 -173 726 C-175.12 727.95 -175.12 727.95 -177.88 730.12 C-178.78 730.85 -179.68 731.57 -180.62 732.32 C-183 734 -183 734 -185 734 C-185 734.66 -185 735.32 -185 736 C-186.31 736.78 -187.62 737.55 -188.94 738.31 C-189.67 738.74 -190.4 739.17 -191.15 739.61 C-198.96 743.41 -205.78 744.48 -214.44 744.38 C-215.41 744.39 -216.38 744.4 -217.38 744.41 C-238.68 744.32 -251.32 730.28 -265.41 716.11 C-267.13 714.39 -268.86 712.67 -270.58 710.96 C-274.76 706.8 -278.92 702.63 -283.08 698.46 C-286.47 695.06 -289.86 691.67 -293.25 688.29 C-293.98 687.56 -293.98 687.56 -294.72 686.82 C-295.7 685.83 -296.69 684.85 -297.67 683.87 C-306.89 674.66 -316.09 665.45 -325.28 656.23 C-333.16 648.34 -341.04 640.46 -348.94 632.59 C-358.12 623.42 -367.31 614.24 -376.48 605.06 C-377.46 604.08 -378.44 603.1 -379.42 602.12 C-380.14 601.39 -380.14 601.39 -380.88 600.65 C-384.26 597.27 -387.65 593.89 -391.03 590.51 C-395.6 585.96 -400.15 581.4 -404.7 576.82 C-406.37 575.15 -408.04 573.49 -409.71 571.82 C-434.2 547.45 -434.2 547.45 -434.52 528.33 C-434.51 526.81 -434.51 526.81 -434.5 525.25 C-434.5 524.19 -434.49 523.14 -434.49 522.05 C-434.32 513.79 -433.06 507.29 -429 500 C-428.49 499.07 -427.98 498.13 -427.46 497.17 C-426.98 496.45 -426.5 495.74 -426 495 C-425.34 495 -424.68 495 -424 495 C-423.73 494.43 -423.46 493.86 -423.19 493.27 C-421.96 490.92 -420.57 488.88 -419 486.75 C-418.23 485.69 -418.23 485.69 -417.44 484.61 C-416.96 484.08 -416.49 483.55 -416 483 C-415.34 483 -414.68 483 -414 483 C-413.6 482.12 -413.6 482.12 -413.18 481.22 C-412 479 -410.73 477.35 -409.07 475.47 C-408.5 474.82 -407.93 474.18 -407.35 473.51 C-406.76 472.85 -406.17 472.18 -405.56 471.5 C-404.4 470.18 -403.23 468.86 -402.07 467.53 C-401.53 466.92 -400.98 466.3 -400.43 465.67 C-398.89 463.91 -398.89 463.91 -397.21 461.53 C-396.81 461.03 -396.41 460.52 -396 460 C-395.34 460 -394.68 460 -394 460 C-393.73 459.43 -393.46 458.86 -393.19 458.27 C-391.96 455.92 -390.57 453.88 -389 451.75 C-388.23 450.69 -388.23 450.69 -387.44 449.61 C-386.96 449.08 -386.49 448.55 -386 448 C-385.34 448 -384.68 448 -384 448 C-383.67 447.01 -383.34 446.02 -383 445 C-382.34 445 -381.68 445 -381 445 C-380.34 443.35 -379.68 441.7 -379 440 C-378.34 440 -377.68 440 -377 440 C-376.71 439.4 -376.42 438.8 -376.12 438.19 C-375 436 -375 436 -373 433 C-372.34 433 -371.68 433 -371 433 C-370.6 432.13 -370.6 432.13 -370.19 431.25 C-368.97 428.94 -367.7 426.98 -366 425 C-365.34 425 -364.68 425 -364 425 C-363.73 424.43 -363.46 423.86 -363.19 423.27 C-361.96 420.92 -360.57 418.88 -359 416.75 C-358.23 415.69 -358.23 415.69 -357.44 414.61 C-356.96 414.08 -356.49 413.55 -356 413 C-355.34 413 -354.68 413 -354 413 C-353.67 412.01 -353.34 411.02 -353 410 C-352.34 410 -351.68 410 -351 410 C-350.34 408.35 -349.68 406.7 -349 405 C-348.34 405 -347.68 405 -347 405 C-346.71 404.4 -346.42 403.8 -346.12 403.19 C-345 401 -345 401 -343 398 C-342.34 398 -341.68 398 -341 398 C-340.6 397.13 -340.6 397.13 -340.19 396.25 C-338.97 393.94 -337.7 391.98 -336 390 C-335.34 390 -334.68 390 -334 390 C-333.73 389.42 -333.46 388.85 -333.18 388.25 C-331.98 385.96 -330.62 384 -329.06 381.94 C-328.56 381.27 -328.05 380.59 -327.54 379.9 C-326.1 378.13 -324.72 376.5 -323 375 C-322.34 375 -321.68 375 -321 375 C-320.73 374.43 -320.46 373.86 -320.19 373.27 C-318.96 370.92 -317.57 368.88 -316 366.75 C-315.23 365.69 -315.23 365.69 -314.44 364.61 C-313.96 364.08 -313.49 363.55 -313 363 C-312.34 363 -311.68 363 -311 363 C-310.6 362.13 -310.6 362.13 -310.19 361.25 C-308.97 358.94 -307.7 356.98 -306 355 C-305.34 355 -304.68 355 -304 355 C-303.76 354.46 -303.53 353.92 -303.28 353.36 C-301.66 350.37 -299.65 347.89 -297.5 345.25 C-296.71 344.27 -295.91 343.28 -295.09 342.27 C-294.4 341.52 -293.71 340.77 -293 340 C-292.34 340 -291.68 340 -291 340 C-290.73 339.41 -290.45 338.82 -290.17 338.21 C-289.03 336.06 -287.82 334.44 -286.21 332.62 C-285.42 331.7 -285.42 331.7 -284.61 330.77 C-284.06 330.14 -283.51 329.52 -282.94 328.88 C-281.84 327.62 -280.75 326.37 -279.65 325.12 C-278.93 324.29 -278.93 324.29 -278.18 323.45 C-276.9 321.99 -276.9 321.99 -276 320 C-275.34 320 -274.68 320 -274 320 C-273.76 319.46 -273.53 318.92 -273.28 318.36 C-271.66 315.37 -269.65 312.89 -267.5 310.25 C-266.71 309.27 -265.91 308.28 -265.09 307.27 C-264.4 306.52 -263.71 305.77 -263 305 C-262.34 305 -261.68 305 -261 305 C-260.73 304.41 -260.45 303.82 -260.17 303.21 C-259.03 301.06 -257.82 299.44 -256.21 297.62 C-255.42 296.7 -255.42 296.7 -254.61 295.77 C-254.06 295.14 -253.51 294.52 -252.94 293.88 C-251.84 292.62 -250.75 291.37 -249.65 290.12 C-248.93 289.29 -248.93 289.29 -248.18 288.45 C-246.9 286.99 -246.9 286.99 -246 285 C-245.34 285 -244.68 285 -244 285 C-243.76 284.46 -243.53 283.92 -243.28 283.36 C-241.66 280.37 -239.65 277.89 -237.5 275.25 C-236.71 274.27 -235.91 273.28 -235.09 272.27 C-234.4 271.52 -233.71 270.77 -233 270 C-232.34 270 -231.68 270 -231 270 C-230.6 269.13 -230.6 269.13 -230.19 268.25 C-228.97 265.94 -227.7 263.98 -226 262 C-225.34 262 -224.68 262 -224 262 C-223.73 261.43 -223.46 260.86 -223.19 260.27 C-221.96 257.92 -220.57 255.88 -219 253.75 C-218.48 253.04 -217.97 252.34 -217.44 251.61 C-216.96 251.08 -216.49 250.55 -216 250 C-215.34 250 -214.68 250 -214 250 C-213.67 249.01 -213.34 248.02 -213 247 C-212.34 247 -211.68 247 -211 247 C-210.79 246.32 -210.59 245.64 -210.38 244.94 C-208.57 241.08 -206.1 237.92 -203 235 C-202.34 235 -201.68 235 -201 235 C-200.73 234.42 -200.46 233.85 -200.19 233.25 C-198.97 230.94 -197.7 228.98 -196 227 C-195.34 227 -194.68 227 -194 227 C-193.64 226.19 -193.64 226.19 -193.28 225.36 C-191.66 222.37 -189.65 219.89 -187.5 217.25 C-186.71 216.27 -185.91 215.28 -185.09 214.27 C-184.4 213.52 -183.71 212.77 -183 212 C-182.34 212 -181.68 212 -181 212 C-180.73 211.43 -180.46 210.86 -180.19 210.27 C-178.96 207.92 -177.57 205.88 -176 203.75 C-175.48 203.04 -174.97 202.34 -174.44 201.61 C-173.73 200.81 -173.73 200.81 -173 200 C-172.34 200 -171.68 200 -171 200 C-170.73 199.42 -170.46 198.85 -170.19 198.25 C-168.97 195.94 -167.7 193.98 -166 192 C-165.34 192 -164.68 192 -164 192 C-163.64 191.19 -163.64 191.19 -163.28 190.36 C-161.66 187.37 -159.65 184.89 -157.5 182.25 C-156.71 181.27 -155.91 180.28 -155.09 179.27 C-154.4 178.52 -153.71 177.77 -153 177 C-152.34 177 -151.68 177 -151 177 C-150.73 176.43 -150.46 175.86 -150.19 175.27 C-148.96 172.92 -147.57 170.88 -146 168.75 C-145.48 168.04 -144.97 167.34 -144.44 166.61 C-143.73 165.81 -143.73 165.81 -143 165 C-142.34 165 -141.68 165 -141 165 C-140.73 164.42 -140.46 163.85 -140.19 163.25 C-138.97 160.94 -137.7 158.98 -136 157 C-135.34 157 -134.68 157 -134 157 C-133.64 156.19 -133.64 156.19 -133.28 155.36 C-131.66 152.37 -129.65 149.89 -127.5 147.25 C-126.71 146.27 -125.91 145.28 -125.09 144.27 C-124.4 143.52 -123.71 142.77 -123 142 C-122.34 142 -121.68 142 -121 142 C-120.73 141.41 -120.45 140.82 -120.17 140.21 C-119.03 138.06 -117.82 136.44 -116.21 134.62 C-115.68 134.01 -115.15 133.4 -114.61 132.77 C-114.06 132.14 -113.51 131.52 -112.94 130.88 C-111.84 129.62 -110.75 128.37 -109.65 127.12 C-109.17 126.57 -108.68 126.02 -108.18 125.45 C-106.9 123.99 -106.9 123.99 -106 122 C-105.34 122 -104.68 122 -104 122 C-103.76 121.46 -103.53 120.92 -103.28 120.36 C-101.66 117.37 -99.65 114.89 -97.5 112.25 C-96.31 110.77 -96.31 110.77 -95.09 109.27 C-94.4 108.52 -93.71 107.77 -93 107 C-92.34 107 -91.68 107 -91 107 C-90.75 106.45 -90.5 105.9 -90.25 105.33 C-88.76 102.55 -86.96 100.22 -85 97.75 C-84.3 96.86 -83.6 95.97 -82.88 95.05 C-82.26 94.37 -81.64 93.7 -81 93 C-80.34 93 -79.68 93 -79 93 C-78.73 92.41 -78.46 91.83 -78.19 91.23 C-76.99 88.98 -75.68 87.3 -74 85.4 C-73.13 84.42 -73.13 84.42 -72.25 83.41 C-71.65 82.74 -71.05 82.07 -70.44 81.38 C-69.25 80.03 -68.06 78.68 -66.87 77.34 C-66.34 76.74 -65.82 76.15 -65.28 75.54 C-63.91 74.01 -63.91 74.01 -63 72 C-62.34 72 -61.68 72 -61 72 C-61 71.34 -61 70.68 -61 70 C-60.34 70 -59.68 70 -59 70 C-58.73 69.43 -58.46 68.86 -58.19 68.27 C-56.96 65.92 -55.57 63.88 -54 61.75 C-53.48 61.04 -52.97 60.34 -52.44 59.61 C-51.96 59.08 -51.49 58.55 -51 58 C-50.34 58 -49.68 58 -49 58 C-48.73 57.41 -48.46 56.83 -48.18 56.22 C-47 54 -45.73 52.35 -44.07 50.47 C-43.22 49.5 -43.22 49.5 -42.35 48.51 C-41.76 47.85 -41.17 47.18 -40.56 46.5 C-39.4 45.18 -38.23 43.86 -37.07 42.53 C-36.53 41.92 -35.98 41.3 -35.43 40.67 C-33.89 38.91 -33.89 38.91 -32.21 36.53 C-31.81 36.03 -31.41 35.52 -31 35 C-30.34 35 -29.68 35 -29 35 C-28.73 34.43 -28.46 33.86 -28.19 33.27 C-26.96 30.92 -25.57 28.88 -24 26.75 C-23.48 26.04 -22.97 25.34 -22.44 24.61 C-21.73 23.81 -21.73 23.81 -21 23 C-20.34 23 -19.68 23 -19 23 C-18.73 22.41 -18.46 21.83 -18.18 21.22 C-17.01 19.01 -15.74 17.35 -14.1 15.47 C-13.54 14.82 -12.98 14.18 -12.4 13.51 C-11.81 12.85 -11.23 12.18 -10.62 11.5 C-9.76 10.5 -9.76 10.5 -8.88 9.49 C-6.01 6.22 -3.13 3.02 0 0 Z M12 249 C12 249.66 12 250.32 12 251 C11.27 251.09 10.53 251.18 9.78 251.27 C6.45 252.15 5.02 253.39 2.52 255.75 C1.64 256.56 0.77 257.38 -0.13 258.22 C-5.55 263.46 -10.93 268.74 -16.27 274.07 C-16.88 274.68 -17.5 275.29 -18.13 275.92 C-21.37 279.14 -24.6 282.36 -27.83 285.59 C-31.15 288.91 -34.48 292.21 -37.81 295.51 C-40.39 298.08 -42.97 300.65 -45.54 303.22 C-46.76 304.44 -47.99 305.66 -49.22 306.87 C-59.47 317.02 -67.18 325.44 -67.44 340.69 C-67.41 351.6 -63.78 360.17 -56.18 368.09 C-48.96 374.41 -40.68 377.39 -31.12 377.31 C-30.42 377.31 -29.71 377.3 -28.98 377.3 C-20.68 377.12 -14.98 374.22 -8 370 C-8 369.34 -8 368.68 -8 368 C-7.46 367.79 -6.92 367.57 -6.37 367.35 C-3.12 365.5 -0.69 362.96 1.91 360.33 C2.5 359.75 3.08 359.17 3.67 358.57 C5.59 356.66 7.5 354.74 9.41 352.82 C10.74 351.49 12.07 350.15 13.41 348.82 C16.2 346.03 18.99 343.23 21.77 340.43 C25.34 336.85 28.91 333.27 32.49 329.69 C35.24 326.94 37.99 324.19 40.74 321.43 C42.06 320.11 43.37 318.79 44.69 317.47 C46.54 315.63 48.38 313.78 50.22 311.93 C50.76 311.39 51.3 310.84 51.86 310.28 C57.48 305.06 57.48 305.06 59 298 C59.66 298 60.32 298 61 298 C64.61 286.32 65.46 276.86 59.78 265.58 C53.14 254.88 44.81 249.72 32.9 246.42 C25.56 244.8 18.99 246.84 12 249 Z " fill="#000000" transform="translate(608,362)"/>
<path d="M0 0 C0.69 -0 1.38 -0 2.09 -0.01 C4.37 -0.01 6.66 -0.01 8.94 -0 C10.53 -0 12.11 -0.01 13.7 -0.01 C17.02 -0.01 20.34 -0.01 23.66 -0 C27.93 0 32.19 0 36.45 -0 C39.73 -0.01 43 -0.01 46.27 -0 C47.84 -0 49.42 -0 50.99 -0.01 C53.18 -0.01 55.38 -0.01 57.57 0 C58.83 0 60.08 0 61.36 0 C64.29 0.13 64.29 0.13 66.29 1.13 C68.18 1.29 70.08 1.41 71.97 1.5 C82.74 2.26 93.15 4.75 103.58 7.45 C106.04 8.07 108.49 8.61 110.97 9.13 C114.67 9.94 118.2 11.04 121.77 12.28 C124.76 13.29 127.77 14.17 130.79 15.07 C135.4 16.47 139.72 18.1 144.07 20.15 C146.46 21.21 148.87 22.04 151.35 22.88 C158.99 25.6 166.1 29.39 173.29 33.13 C174.35 33.67 175.41 34.22 176.5 34.78 C190.36 42.07 203.81 50.13 216.54 59.25 C217.71 60.09 217.71 60.09 218.9 60.94 C219.61 61.46 220.32 61.98 221.05 62.51 C221.68 62.97 222.31 63.43 222.95 63.9 C223.61 64.51 223.61 64.51 224.29 65.13 C224.29 65.79 224.29 66.45 224.29 67.13 C225.35 67.47 225.35 67.47 226.43 67.81 C229.93 69.43 232.18 71.55 234.97 74.19 C238.36 77.55 238.36 77.55 242.29 80.13 C242.29 80.79 242.29 81.45 242.29 82.13 C242.95 82.13 243.61 82.13 244.29 82.13 C244.29 82.79 244.29 83.45 244.29 84.13 C245.28 84.46 246.27 84.79 247.29 85.13 C247.29 85.79 247.29 86.45 247.29 87.13 C247.86 87.38 248.43 87.62 249.02 87.88 C251.64 89.32 253.43 91.01 255.54 93.13 C256.6 94.18 256.6 94.18 257.68 95.25 C259.29 97.13 259.29 97.13 259.29 99.13 C260.28 99.46 261.27 99.79 262.29 100.13 C262.29 100.79 262.29 101.45 262.29 102.13 C262.95 102.13 263.61 102.13 264.29 102.13 C264.29 102.79 264.29 103.45 264.29 104.13 C264.95 104.13 265.61 104.13 266.29 104.13 C267.81 105.8 269.25 107.55 270.66 109.32 C271.82 110.76 271.82 110.76 273 112.23 C273.75 113.19 274.51 114.15 275.29 115.13 C276.04 116.03 276.8 116.94 277.58 117.87 C279.29 120.13 279.29 120.13 279.29 122.13 C279.95 122.13 280.61 122.13 281.29 122.13 C282.55 123.53 282.55 123.53 283.97 125.5 C284.5 126.23 285.03 126.96 285.58 127.72 C286.14 128.51 286.71 129.31 287.29 130.13 C287.87 130.94 288.45 131.75 289.05 132.59 C299.95 148 309.02 164.17 317.29 181.13 C317.59 181.75 317.9 182.38 318.21 183.02 C321.78 190.33 324.96 197.6 327.39 205.38 C328.24 207.99 329.22 210.48 330.29 213 C332.39 218.14 333.87 223.4 335.35 228.74 C336.15 231.64 337.01 234.51 337.91 237.38 C340.38 245.59 341.61 253.97 342.82 262.44 C343.15 265.09 343.15 265.09 344.29 267.13 C344.6 270.47 344.8 273.81 345.01 277.16 C345.1 280.06 345.1 280.06 346.29 282.13 C346.38 284.37 346.42 286.6 346.42 288.84 C346.42 289.53 346.42 290.22 346.42 290.93 C346.43 293.22 346.42 295.5 346.42 297.79 C346.42 299.37 346.42 300.95 346.42 302.54 C346.42 305.86 346.42 309.18 346.42 312.5 C346.41 316.77 346.42 321.03 346.42 325.3 C346.42 328.57 346.42 331.84 346.42 335.11 C346.42 336.69 346.42 338.26 346.42 339.83 C346.43 342.03 346.42 344.22 346.42 346.42 C346.42 348.29 346.42 348.29 346.41 350.21 C346.29 353.13 346.29 353.13 345.29 355.13 C345.13 357.02 345.01 358.92 344.91 360.82 C344.09 372.49 341.28 383.84 338.29 395.13 C338.07 395.95 337.86 396.78 337.63 397.63 C336.88 400.51 336.12 403.38 335.35 406.25 C335.11 407.17 334.87 408.09 334.62 409.04 C333.14 414.51 331.35 419.7 329.18 424.93 C328.13 427.52 327.29 430.14 326.47 432.82 C324.05 440.23 320.71 447.14 317.29 454.13 C316.76 455.22 316.22 456.31 315.68 457.43 C307.45 474.1 298 490.27 287.16 505.38 C286.61 506.16 286.05 506.94 285.48 507.74 C284.96 508.45 284.44 509.16 283.9 509.9 C283.45 510.52 282.99 511.15 282.52 511.79 C281.91 512.46 281.91 512.46 281.29 513.13 C280.63 513.13 279.97 513.13 279.29 513.13 C278.96 514.12 278.63 515.11 278.29 516.13 C277.3 515.8 276.31 515.47 275.29 515.13 C275.29 514.47 275.29 513.81 275.29 513.13 C274.63 513.13 273.97 513.13 273.29 513.13 C272.05 511.43 270.83 509.73 269.63 508 C266.91 504.22 263.47 501.28 259.91 498.32 C257.5 496.27 255.41 494.18 253.38 491.75 C247.97 485.5 242.03 479.76 236.16 473.94 C234.98 472.77 233.81 471.59 232.63 470.42 C230.46 468.26 228.3 466.11 226.13 463.96 C223.51 461.35 220.9 458.74 218.29 456.13 C217.21 455.05 216.13 453.97 215.04 452.89 C149.69 387.53 84.33 322.17 -134.4 103.43 C-136.24 101.6 -138.07 99.94 -140.09 98.32 C-142.62 96.18 -144.81 93.96 -146.96 91.44 C-149.96 87.93 -153.1 84.6 -156.34 81.32 C-157.24 80.4 -158.14 79.49 -159.06 78.55 C-161.61 76.07 -161.61 76.07 -164.55 74.43 C-165.26 74 -165.98 73.57 -166.71 73.13 C-166.71 72.47 -166.71 71.81 -166.71 71.13 C-167.37 71.13 -168.03 71.13 -168.71 71.13 C-169.04 70.14 -169.37 69.15 -169.71 68.13 C-168.23 67.63 -168.23 67.63 -166.71 67.13 C-166.71 66.47 -166.71 65.81 -166.71 65.13 C-165.31 63.87 -165.31 63.87 -163.34 62.44 C-162.61 61.91 -161.88 61.38 -161.13 60.84 C-160.33 60.27 -159.53 59.71 -158.71 59.13 C-157.9 58.55 -157.09 57.97 -156.25 57.37 C-140.84 46.47 -124.67 37.4 -107.71 29.13 C-107.09 28.82 -106.46 28.52 -105.82 28.2 C-98.51 24.64 -91.24 21.46 -83.47 19.02 C-80.86 18.18 -78.37 17.19 -75.84 16.13 C-70.7 14.02 -65.45 12.55 -60.1 11.07 C-57.2 10.27 -54.33 9.4 -51.46 8.5 C-47.52 7.32 -43.58 6.42 -39.53 5.66 C-37.42 5.26 -35.31 4.83 -33.21 4.38 C-25.86 2.81 -18.73 1.73 -11.22 1.34 C-7.29 1.01 -4.16 0 0 0 Z " fill="#000000" transform="translate(933.712890625,-0.12939453125)"/>
<path d="M0 0 C2.34 0.17 3.69 0.7 5.38 2.33 C9 6.57 9 6.57 9 9 C9.54 9.21 10.07 9.41 10.62 9.62 C13.92 11.53 16.59 14.05 19 17 C19 17.66 19 18.32 19 19 C19.54 19.21 20.07 19.41 20.62 19.62 C23.92 21.53 26.59 24.05 29 27 C29 27.66 29 28.32 29 29 C29.54 29.21 30.07 29.41 30.62 29.62 C33.92 31.53 36.59 34.05 39 37 C39 37.66 39 38.32 39 39 C39.54 39.21 40.07 39.41 40.62 39.62 C43.92 41.53 46.59 44.05 49 47 C49 47.66 49 48.32 49 49 C49.57 49.25 50.15 49.5 50.74 49.75 C53.35 51.19 55.11 52.85 57.22 54.96 C58.04 55.77 58.86 56.59 59.7 57.43 C61.02 58.75 61.02 58.75 62.36 60.09 C63.26 61 64.17 61.9 65.1 62.83 C67.01 64.74 68.92 66.65 70.82 68.56 C73.26 71.01 75.71 73.46 78.17 75.9 C80.51 78.23 82.84 80.57 85.17 82.91 C86.06 83.79 86.94 84.67 87.85 85.57 C88.66 86.39 89.47 87.2 90.3 88.04 C91.02 88.76 91.73 89.48 92.47 90.22 C94 92 94 92 94 94 C94.54 94.21 95.07 94.41 95.62 94.62 C98.92 96.53 101.59 99.05 104 102 C104 102.66 104 103.32 104 104 C104.59 104.27 105.18 104.53 105.79 104.81 C108.03 106.02 109.5 107.25 111.3 109.04 C111.92 109.66 112.54 110.27 113.18 110.9 C113.84 111.56 114.49 112.22 115.17 112.91 C115.85 113.59 116.54 114.27 117.24 114.97 C118.68 116.41 120.11 117.84 121.55 119.29 C123.75 121.5 125.96 123.7 128.18 125.9 C129.57 127.3 130.97 128.7 132.36 130.09 C133.02 130.76 133.69 131.42 134.38 132.1 C134.98 132.71 135.59 133.33 136.22 133.96 C136.76 134.5 137.3 135.04 137.85 135.6 C139 137 139 137 139 139 C139.89 139.4 139.89 139.4 140.79 139.81 C143.03 141.02 144.5 142.25 146.3 144.04 C146.92 144.66 147.54 145.27 148.18 145.9 C148.84 146.56 149.49 147.22 150.17 147.91 C150.85 148.59 151.54 149.27 152.24 149.97 C153.68 151.41 155.11 152.84 156.55 154.29 C158.75 156.5 160.96 158.7 163.18 160.9 C164.57 162.3 165.97 163.7 167.36 165.09 C168.02 165.76 168.69 166.42 169.38 167.1 C169.98 167.71 170.59 168.33 171.22 168.96 C171.76 169.5 172.3 170.04 172.85 170.6 C174 172 174 172 174 174 C174.57 174.24 175.13 174.48 175.71 174.73 C178.47 176.26 180.34 178.09 182.57 180.32 C183.49 181.23 184.4 182.14 185.35 183.08 C186.36 184.1 187.38 185.12 188.39 186.14 C189.47 187.21 190.55 188.29 191.63 189.37 C194.6 192.33 197.57 195.3 200.53 198.27 C203.73 201.47 206.93 204.66 210.13 207.86 C216.4 214.12 222.67 220.39 228.93 226.66 C234.02 231.75 239.11 236.84 244.2 241.93 C245.28 243.02 245.28 243.02 246.39 244.12 C247.86 245.59 249.33 247.06 250.8 248.53 C264.6 262.32 278.39 276.12 292.17 289.91 C304.01 301.76 315.86 313.61 327.71 325.45 C341.46 339.19 355.2 352.93 368.95 366.68 C370.41 368.14 371.87 369.6 373.34 371.07 C374.06 371.79 374.78 372.51 375.52 373.25 C380.61 378.34 385.7 383.43 390.79 388.51 C396.98 394.71 403.18 400.9 409.37 407.1 C412.53 410.27 415.69 413.43 418.86 416.59 C421.75 419.48 424.64 422.38 427.53 425.27 C428.58 426.32 429.63 427.37 430.68 428.42 C432.1 429.84 433.52 431.26 434.94 432.68 C435.73 433.47 436.52 434.27 437.33 435.08 C439 437 439 437 439 439 C439.84 439.37 439.84 439.37 440.69 439.75 C443.44 441.24 445.69 442.88 448 445 C448 445.99 448 446.98 448 448 C447.34 448 446.68 448 446 448 C446 448.66 446 449.32 446 450 C444.6 451.26 444.6 451.26 442.62 452.69 C441.89 453.22 441.16 453.75 440.41 454.29 C439.62 454.85 438.82 455.42 438 456 C437.19 456.58 436.38 457.16 435.54 457.76 C416.88 470.96 396.93 481.85 376 491 C375.01 491.43 374.02 491.87 373 492.31 C367.55 494.65 362.15 496.64 356.44 498.25 C353.83 499.05 351.34 500.03 348.81 501.06 C344.92 502.66 341.08 503.93 337 505 C336.17 505.24 335.33 505.47 334.48 505.71 C329.28 507.18 324.09 508.46 318.79 509.46 C316.68 509.87 314.59 510.3 312.5 510.75 C305.18 512.31 298.08 513.4 290.61 513.79 C287.89 513.9 287.89 513.9 285 515 C280.31 516.07 275.65 516.54 271.33 514.03 C266.68 510.55 262.7 506.31 258.65 502.17 C257.24 500.78 255.83 499.38 254.41 497.99 C250.53 494.16 246.7 490.3 242.86 486.43 C238.72 482.26 234.54 478.13 230.37 473.99 C222.21 465.88 214.07 457.73 205.95 449.58 C199.35 442.95 192.74 436.33 186.12 429.73 C185.41 429.02 185.41 429.02 184.69 428.3 C182.78 426.4 180.87 424.49 178.96 422.58 C161.05 404.7 143.17 386.79 125.3 368.86 C109.43 352.93 93.53 337.04 77.6 321.17 C59.71 303.34 41.83 285.48 23.98 267.6 C22.08 265.69 20.18 263.79 18.27 261.88 C17.81 261.41 17.34 260.94 16.85 260.46 C9.78 253.37 2.69 246.3 -4.4 239.24 C-12.47 231.2 -20.51 223.15 -28.53 215.06 C-32.62 210.94 -36.73 206.83 -40.85 202.74 C-44.63 199 -48.38 195.23 -52.11 191.43 C-53.46 190.07 -54.83 188.71 -56.2 187.36 C-67.75 176.04 -67.75 176.04 -67.86 168.29 C-67.54 165.3 -66.95 162.86 -66 160 C-65.85 158.09 -65.73 156.17 -65.62 154.25 C-64.86 143.51 -62.37 133.11 -59.68 122.71 C-59.06 120.25 -58.52 117.79 -58 115.31 C-57.19 111.61 -56.09 108.09 -54.85 104.52 C-53.84 101.53 -52.96 98.52 -52.06 95.5 C-50.66 90.89 -49.03 86.57 -46.98 82.21 C-45.92 79.83 -45.09 77.41 -44.25 74.94 C-41.52 67.3 -37.74 60.18 -34 53 C-33.45 51.94 -32.91 50.88 -32.35 49.79 C-25.06 35.93 -17 22.48 -7.88 9.75 C-7.32 8.97 -6.76 8.19 -6.19 7.38 C-5.67 6.67 -5.15 5.97 -4.62 5.23 C-4.16 4.61 -3.7 3.98 -3.23 3.33 C-2.82 2.89 -2.42 2.45 -2 2 C-1.34 2 -0.68 2 0 2 C0 1.34 0 0.68 0 0 Z " fill="#000000" transform="translate(712,120)"/>
<path d="M0 0 C2.3 1.35 2.67 2.7 3.81 5.06 C5.14 5.75 6.47 6.41 7.81 7.06 C8.14 8.05 8.47 9.04 8.81 10.06 C9.8 10.56 9.8 10.56 10.81 11.06 C11.8 11.56 11.8 11.56 12.81 12.06 C13.14 13.05 13.47 14.04 13.81 15.06 C14.8 15.56 14.8 15.56 15.81 16.06 C16.47 16.39 17.13 16.72 17.81 17.06 C18.14 18.05 18.47 19.04 18.81 20.06 C19.47 20.39 20.13 20.72 20.81 21.06 C21.47 21.39 22.13 21.72 22.81 22.06 C23.14 23.05 23.47 24.04 23.81 25.06 C24.47 25.39 25.13 25.72 25.81 26.06 C26.47 26.39 27.13 26.72 27.81 27.06 C28.14 28.05 28.47 29.04 28.81 30.06 C29.47 30.39 30.13 30.72 30.81 31.06 C31.47 31.39 32.13 31.72 32.81 32.06 C33.14 33.05 33.47 34.04 33.81 35.06 C34.47 35.39 35.13 35.72 35.81 36.06 C36.47 36.39 37.13 36.72 37.81 37.06 C38.14 38.05 38.47 39.04 38.81 40.06 C39.47 40.39 40.13 40.72 40.81 41.06 C41.47 41.39 42.13 41.72 42.81 42.06 C43.14 43.05 43.47 44.04 43.81 45.06 C44.47 45.39 45.13 45.72 45.81 46.06 C46.47 46.39 47.13 46.72 47.81 47.06 C48.14 48.05 48.47 49.04 48.81 50.06 C49.47 50.39 50.13 50.72 50.81 51.06 C51.47 51.39 52.13 51.72 52.81 52.06 C53.14 53.05 53.47 54.04 53.81 55.06 C54.47 55.39 55.13 55.72 55.81 56.06 C56.47 56.39 57.13 56.72 57.81 57.06 C58.14 58.05 58.47 59.04 58.81 60.06 C59.47 60.39 60.13 60.72 60.81 61.06 C61.47 61.39 62.13 61.72 62.81 62.06 C63.14 63.05 63.47 64.04 63.81 65.06 C64.47 65.39 65.13 65.72 65.81 66.06 C66.47 66.39 67.13 66.72 67.81 67.06 C68.14 68.05 68.47 69.04 68.81 70.06 C69.47 70.39 70.13 70.72 70.81 71.06 C71.47 71.39 72.13 71.72 72.81 72.06 C73.14 73.05 73.47 74.04 73.81 75.06 C74.47 75.39 75.13 75.72 75.81 76.06 C76.47 76.39 77.13 76.72 77.81 77.06 C78.14 78.05 78.47 79.04 78.81 80.06 C79.47 80.39 80.13 80.72 80.81 81.06 C81.47 81.39 82.13 81.72 82.81 82.06 C83.14 83.05 83.47 84.04 83.81 85.06 C84.47 85.39 85.13 85.72 85.81 86.06 C86.47 86.39 87.13 86.72 87.81 87.06 C88.14 88.05 88.47 89.04 88.81 90.06 C89.47 90.39 90.13 90.72 90.81 91.06 C91.47 91.39 92.13 91.72 92.81 92.06 C93.14 93.05 93.47 94.04 93.81 95.06 C94.47 95.39 95.13 95.72 95.81 96.06 C96.47 96.39 97.13 96.72 97.81 97.06 C98.14 98.05 98.47 99.04 98.81 100.06 C99.47 100.39 100.13 100.72 100.81 101.06 C101.47 101.39 102.13 101.72 102.81 102.06 C103.14 103.05 103.47 104.04 103.81 105.06 C104.47 105.39 105.13 105.72 105.81 106.06 C106.47 106.39 107.13 106.72 107.81 107.06 C108.14 108.05 108.47 109.04 108.81 110.06 C109.47 110.39 110.13 110.72 110.81 111.06 C111.47 111.39 112.13 111.72 112.81 112.06 C113.14 113.05 113.47 114.04 113.81 115.06 C114.47 115.39 115.13 115.72 115.81 116.06 C116.47 116.39 117.13 116.72 117.81 117.06 C118.14 118.05 118.47 119.04 118.81 120.06 C119.47 120.39 120.13 120.72 120.81 121.06 C121.47 121.39 122.13 121.72 122.81 122.06 C123.14 123.05 123.47 124.04 123.81 125.06 C124.47 125.39 125.13 125.72 125.81 126.06 C126.47 126.39 127.13 126.72 127.81 127.06 C128.14 128.05 128.47 129.04 128.81 130.06 C129.47 130.39 130.13 130.72 130.81 131.06 C131.47 131.39 132.13 131.72 132.81 132.06 C133.14 133.05 133.47 134.04 133.81 135.06 C134.47 135.39 135.13 135.72 135.81 136.06 C136.47 136.39 137.13 136.72 137.81 137.06 C138.14 138.05 138.47 139.04 138.81 140.06 C139.47 140.39 140.13 140.72 140.81 141.06 C141.47 141.39 142.13 141.72 142.81 142.06 C143.14 143.05 143.47 144.04 143.81 145.06 C144.47 145.39 145.13 145.72 145.81 146.06 C146.47 146.39 147.13 146.72 147.81 147.06 C148.14 148.05 148.47 149.04 148.81 150.06 C149.47 150.39 150.13 150.72 150.81 151.06 C151.47 151.39 152.13 151.72 152.81 152.06 C153.14 153.05 153.47 154.04 153.81 155.06 C154.47 155.39 155.13 155.72 155.81 156.06 C156.47 156.39 157.13 156.72 157.81 157.06 C158.14 158.05 158.47 159.04 158.81 160.06 C159.47 160.39 160.13 160.72 160.81 161.06 C161.47 161.39 162.13 161.72 162.81 162.06 C163.14 163.05 163.47 164.04 163.81 165.06 C164.47 165.39 165.13 165.72 165.81 166.06 C166.47 166.39 167.13 166.72 167.81 167.06 C168.14 168.05 168.47 169.04 168.81 170.06 C169.47 170.37 170.13 170.68 170.81 171 C172.81 172.06 172.81 172.06 173.69 174 C173.81 176.06 173.81 176.06 171.81 179.06 C171.15 179.06 170.49 179.06 169.81 179.06 C169.48 180.05 169.15 181.04 168.81 182.06 C168.15 182.06 167.49 182.06 166.81 182.06 C166.81 182.72 166.81 183.38 166.81 184.06 C164.44 186.69 164.44 186.69 161.81 189.06 C161.15 189.06 160.49 189.06 159.81 189.06 C159.48 190.05 159.15 191.04 158.81 192.06 C158.15 192.06 157.49 192.06 156.81 192.06 C156.81 192.72 156.81 193.38 156.81 194.06 C154.44 196.69 154.44 196.69 151.81 199.06 C151.15 199.06 150.49 199.06 149.81 199.06 C149.48 200.05 149.15 201.04 148.81 202.06 C148.15 202.06 147.49 202.06 146.81 202.06 C146.81 202.72 146.81 203.38 146.81 204.06 C146.15 204.06 145.49 204.06 144.81 204.06 C144.48 205.05 144.15 206.04 143.81 207.06 C143.15 207.06 142.49 207.06 141.81 207.06 C141.81 207.72 141.81 208.38 141.81 209.06 C141.15 209.06 140.49 209.06 139.81 209.06 C139.48 210.05 139.15 211.04 138.81 212.06 C138.15 212.06 137.49 212.06 136.81 212.06 C136.81 212.72 136.81 213.38 136.81 214.06 C136.15 214.06 135.49 214.06 134.81 214.06 C134.48 215.05 134.15 216.04 133.81 217.06 C133.15 217.06 132.49 217.06 131.81 217.06 C131.81 217.72 131.81 218.38 131.81 219.06 C131.15 219.06 130.49 219.06 129.81 219.06 C129.48 220.05 129.15 221.04 128.81 222.06 C128.15 222.06 127.49 222.06 126.81 222.06 C126.81 222.72 126.81 223.38 126.81 224.06 C125.13 225.79 125.13 225.79 122.94 227.69 C122.22 228.32 121.5 228.95 120.76 229.6 C118.81 231.06 118.81 231.06 116.81 231.06 C116.48 232.05 116.15 233.04 115.81 234.06 C113.25 235.25 113.25 235.25 110.81 236.06 C110.81 236.72 110.81 237.38 110.81 238.06 C109.2 239.24 109.2 239.24 106.94 240.52 C105.71 241.23 105.71 241.23 104.45 241.95 C103.58 242.44 102.71 242.93 101.81 243.44 C100.55 244.16 100.55 244.16 99.27 244.9 C91.93 249.09 84.73 252.95 76.69 255.62 C75.53 256.02 74.37 256.41 73.18 256.82 C61.52 260.28 50.76 261.55 38.66 261.45 C36.25 261.44 33.84 261.45 31.42 261.47 C22.16 261.49 13.77 260.66 4.81 258.06 C3.55 257.72 2.28 257.38 0.98 257.04 C-3.77 255.58 -8.29 254.15 -12.69 251.81 C-16.19 250.06 -17.42 249.49 -21.19 250.06 C-23.81 251.97 -23.81 251.97 -26.31 254.66 C-26.8 255.15 -27.28 255.64 -27.78 256.15 C-29.38 257.77 -30.97 259.41 -32.55 261.04 C-33.67 262.18 -34.78 263.31 -35.9 264.44 C-38.85 267.42 -41.78 270.41 -44.71 273.41 C-49.38 278.2 -54.06 282.97 -58.76 287.73 C-60.39 289.38 -62.01 291.05 -63.63 292.72 C-72.49 301.76 -80.23 308.27 -93.31 308.48 C-94.83 308.49 -94.83 308.49 -96.38 308.5 C-97.37 308.53 -98.36 308.57 -99.38 308.6 C-110.08 308.68 -117.52 304.38 -125.21 297.18 C-132.61 289.25 -134.56 281.47 -134.62 270.88 C-134.66 269.88 -134.69 268.89 -134.72 267.87 C-134.83 253.93 -127.01 246.02 -117.69 236.51 C-115.03 233.87 -112.36 231.25 -109.68 228.64 C-108.21 227.19 -106.74 225.73 -105.27 224.28 C-101.68 220.74 -98.1 217.21 -94.49 213.69 C-91.96 211.22 -89.44 208.74 -86.93 206.24 C-85.52 204.85 -84.09 203.46 -82.67 202.08 C-81.81 201.23 -80.96 200.38 -80.08 199.51 C-79.33 198.77 -78.57 198.03 -77.8 197.27 C-75.84 194.59 -75.72 193.31 -76.19 190.06 C-77.11 188.29 -78.03 186.52 -78.97 184.76 C-80.6 181.14 -81.7 177.43 -82.81 173.62 C-83.02 172.92 -83.22 172.22 -83.44 171.49 C-84.05 169.36 -84.62 167.21 -85.19 165.06 C-85.38 164.43 -85.57 163.8 -85.76 163.15 C-87.95 155.07 -87.63 146.61 -87.62 138.31 C-87.63 137.49 -87.63 136.67 -87.63 135.82 C-87.62 119.95 -85.85 105.62 -79.1 91.11 C-78.22 89.14 -77.5 87.17 -76.81 85.12 C-74.95 80.05 -72.05 75.62 -69.19 71.06 C-68.72 70.27 -68.24 69.47 -67.76 68.65 C-67.32 67.92 -66.89 67.19 -66.44 66.44 C-65.86 65.46 -65.86 65.46 -65.27 64.46 C-64.91 64 -64.55 63.54 -64.19 63.06 C-63.53 63.06 -62.87 63.06 -62.19 63.06 C-61.92 62.26 -61.65 61.45 -61.38 60.62 C-60.98 59.78 -60.59 58.93 -60.19 58.06 C-59.2 57.73 -58.21 57.4 -57.19 57.06 C-56.5 55.74 -55.84 54.4 -55.19 53.06 C-51.9 48.71 -48.25 45.26 -44.11 41.72 C-41.67 39.62 -39.43 37.37 -37.19 35.06 C-27.19 25.06 -17.19 15.06 -7.19 5.06 C-6.34 4.11 -5.5 3.16 -4.62 2.19 C-2.19 0.06 -2.19 0.06 0 0 Z " fill="#000000" transform="translate(134.1875,971.9375)"/>
</svg>
